ComicNeue_Oblique.ufo
<glyph name="exclam" format="1">
  <advance width="196"/>
  <unicode hex="0021"/>
  <outline>
    <contour>
      <point x="50" y="181" type="line" smooth="yes"/>
      <point x="47" y="165"/>
      <point x="57" y="152"/>
      <point x="73" y="152" type="curve" smooth="yes"/>
      <point x="89" y="152"/>
      <point x="105" y="165"/>
      <point x="108" y="181" type="curve" smooth="yes"/>
      <point x="210" y="663" type="line" smooth="yes"/>
      <point x="214" y="679"/>
      <point x="204" y="693"/>
      <point x="188" y="693" type="curve" smooth="yes"/>
      <point x="172" y="693"/>
      <point x="156" y="679"/>
      <point x="152" y="663" type="curve" smooth="yes"/>
    </contour>
    <contour>
      <point x="81" y="47" type="curve"/>
      <point x="86" y="66"/>
      <point x="76" y="83"/>
      <point x="57" y="83" type="curve" smooth="yes"/>
      <point x="36" y="83"/>
      <point x="12" y="61"/>
      <point x="7" y="37" type="curve" smooth="yes"/>
      <point x="3" y="16"/>
      <point x="13" y="0"/>
      <point x="32" y="0" type="curve" smooth="yes"/>
      <point x="52" y="0"/>
      <point x="76" y="20"/>
    </contour>
  </outline>
</glyph>
<glyph name="quotedbl" format="1">
  <advance width="313"/>
  <unicode hex="0022"/>
  <outline>
    <contour>
      <point x="148" y="500" type="curve" smooth="yes"/>
      <point x="163" y="500"/>
      <point x="178" y="512"/>
      <point x="182" y="528" type="curve" smooth="yes"/>
      <point x="210" y="662" type="line" smooth="yes"/>
      <point x="213" y="677"/>
      <point x="203" y="690"/>
      <point x="188" y="690" type="curve" smooth="yes"/>
      <point x="172" y="690"/>
      <point x="157" y="677"/>
      <point x="154" y="662" type="curve" smooth="yes"/>
      <point x="126" y="528" type="line" smooth="yes"/>
      <point x="122" y="512"/>
      <point x="132" y="500"/>
    </contour>
    <contour>
      <point x="267" y="500" type="curve" smooth="yes"/>
      <point x="282" y="500"/>
      <point x="297" y="512"/>
      <point x="301" y="528" type="curve" smooth="yes"/>
      <point x="329" y="662" type="line" smooth="yes"/>
      <point x="332" y="677"/>
      <point x="322" y="690"/>
      <point x="307" y="690" type="curve" smooth="yes"/>
      <point x="291" y="690"/>
      <point x="276" y="677"/>
      <point x="273" y="662" type="curve" smooth="yes"/>
      <point x="245" y="528" type="line" smooth="yes"/>
      <point x="241" y="512"/>
      <point x="251" y="500"/>
    </contour>
  </outline>
</glyph>
<glyph name="dollar" format="1">
  <advance width="604"/>
  <unicode hex="0024"/>
  <outline>
    <contour>
      <point x="218" y="-46" type="line" smooth="yes"/>
      <point x="215" y="-61"/>
      <point x="224" y="-74"/>
      <point x="239" y="-74" type="curve" smooth="yes"/>
      <point x="254" y="-74"/>
      <point x="270" y="-61"/>
      <point x="273" y="-46" type="curve" smooth="yes"/>
      <point x="283" y="1" type="line"/>
      <point x="406" y="16"/>
      <point x="503" y="84"/>
      <point x="526" y="191" type="curve" smooth="yes"/>
      <point x="545" y="279"/>
      <point x="492" y="342"/>
      <point x="364" y="382" type="curve"/>
      <point x="417" y="631" type="line"/>
      <point x="434" y="629"/>
      <point x="551" y="623"/>
      <point x="543" y="541" type="curve"/>
      <point x="543" y="527"/>
      <point x="551" y="517"/>
      <point x="567" y="517" type="curve" smooth="yes"/>
      <point x="581" y="517"/>
      <point x="596" y="528"/>
      <point x="599" y="542" type="curve" smooth="yes"/>
      <point x="621" y="646"/>
      <point x="515" y="680"/>
      <point x="427" y="680" type="curve"/>
      <point x="436" y="723" type="line" smooth="yes"/>
      <point x="439" y="738"/>
      <point x="429" y="751"/>
      <point x="414" y="751" type="curve" smooth="yes"/>
      <point x="399" y="751"/>
      <point x="384" y="738"/>
      <point x="381" y="723" type="curve" smooth="yes"/>
      <point x="372" y="678" type="line"/>
      <point x="281" y="671"/>
      <point x="177" y="624"/>
      <point x="153" y="510" type="curve" smooth="yes"/>
      <point x="133" y="418"/>
      <point x="215" y="366"/>
      <point x="299" y="337" type="curve"/>
      <point x="239" y="54" type="line"/>
      <point x="174" y="61"/>
      <point x="113" y="95"/>
      <point x="104" y="162" type="curve" smooth="yes"/>
      <point x="102" y="175"/>
      <point x="93" y="185"/>
      <point x="79" y="185" type="curve" smooth="yes"/>
      <point x="60" y="185"/>
      <point x="44" y="168"/>
      <point x="42" y="158" type="curve" smooth="yes"/>
      <point x="40" y="149"/>
      <point x="41" y="145"/>
      <point x="42" y="142" type="curve" smooth="yes"/>
      <point x="55" y="62"/>
      <point x="127" y="8"/>
      <point x="228" y="0" type="curve"/>
    </contour>
    <contour>
      <point x="215" y="507" type="curve" smooth="yes"/>
      <point x="226" y="556"/>
      <point x="259" y="612"/>
      <point x="361" y="627" type="curve"/>
      <point x="312" y="399" type="line"/>
      <point x="238" y="427"/>
      <point x="206" y="463"/>
    </contour>
    <contour>
      <point x="294" y="55" type="curve"/>
      <point x="351" y="321" type="line"/>
      <point x="473" y="279"/>
      <point x="471" y="225"/>
      <point x="465" y="197" type="curve" smooth="yes"/>
      <point x="447" y="109"/>
      <point x="375" y="67"/>
    </contour>
  </outline>
</glyph>
<glyph name="percent" format="1">
  <advance width="728"/>
  <unicode hex="0025"/>
  <outline>
    <contour>
      <point x="231" y="422" type="curve" smooth="yes"/>
      <point x="306" y="422"/>
      <point x="380" y="483"/>
      <point x="396" y="558" type="curve" smooth="yes"/>
      <point x="412" y="633"/>
      <point x="364" y="694"/>
      <point x="289" y="694" type="curve" smooth="yes"/>
      <point x="214" y="694"/>
      <point x="140" y="633"/>
      <point x="124" y="558" type="curve" smooth="yes"/>
      <point x="108" y="483"/>
      <point x="156" y="422"/>
    </contour>
    <contour>
      <point x="278" y="640" type="curve" smooth="yes"/>
      <point x="323" y="640"/>
      <point x="352" y="603"/>
      <point x="342" y="558" type="curve" smooth="yes"/>
      <point x="332" y="512"/>
      <point x="288" y="476"/>
      <point x="243" y="476" type="curve" smooth="yes"/>
      <point x="198" y="476"/>
      <point x="168" y="512"/>
      <point x="178" y="558" type="curve" smooth="yes"/>
      <point x="188" y="603"/>
      <point x="233" y="640"/>
    </contour>
    <contour>
      <point x="466" y="-8" type="curve" smooth="yes"/>
      <point x="541" y="-8"/>
      <point x="615" y="53"/>
      <point x="631" y="128" type="curve" smooth="yes"/>
      <point x="647" y="203"/>
      <point x="599" y="264"/>
      <point x="524" y="264" type="curve" smooth="yes"/>
      <point x="449" y="264"/>
      <point x="375" y="203"/>
      <point x="359" y="128" type="curve" smooth="yes"/>
      <point x="343" y="53"/>
      <point x="391" y="-8"/>
    </contour>
    <contour>
      <point x="512" y="210" type="curve" smooth="yes"/>
      <point x="557" y="210"/>
      <point x="586" y="173"/>
      <point x="577" y="128" type="curve" smooth="yes"/>
      <point x="567" y="82"/>
      <point x="522" y="46"/>
      <point x="477" y="46" type="curve" smooth="yes"/>
      <point x="432" y="46"/>
      <point x="403" y="82"/>
      <point x="413" y="128" type="curve" smooth="yes"/>
      <point x="422" y="173"/>
      <point x="467" y="210"/>
    </contour>
    <contour>
      <point x="130" y="0" type="curve" smooth="yes"/>
      <point x="139" y="0"/>
      <point x="148" y="4"/>
      <point x="155" y="13" type="curve" smooth="yes"/>
      <point x="645" y="652" type="line" smooth="yes"/>
      <point x="648" y="656"/>
      <point x="650" y="660"/>
      <point x="651" y="664" type="curve" smooth="yes"/>
      <point x="653" y="677"/>
      <point x="645" y="690"/>
      <point x="630" y="690" type="curve" smooth="yes"/>
      <point x="621" y="690"/>
      <point x="612" y="685"/>
      <point x="605" y="677" type="curve" smooth="yes"/>
      <point x="118" y="41" type="line" smooth="yes"/>
      <point x="113" y="34"/>
      <point x="110" y="28"/>
      <point x="110" y="24" type="curve"/>
      <point x="107" y="12"/>
      <point x="115" y="0"/>
    </contour>
  </outline>
</glyph>
<glyph name="ampersand" format="1">
  <advance width="660"/>
  <unicode hex="0026"/>
  <outline>
    <contour>
      <point x="470" y="159" type="line"/>
      <point x="491" y="187"/>
      <point x="511" y="220"/>
      <point x="530" y="258" type="curve" smooth="yes"/>
      <point x="537" y="272"/>
      <point x="538" y="276"/>
      <point x="539" y="278" type="curve" smooth="yes"/>
      <point x="542" y="293"/>
      <point x="533" y="304"/>
      <point x="518" y="304" type="curve" smooth="yes"/>
      <point x="501" y="304"/>
      <point x="494" y="296"/>
      <point x="481" y="272" type="curve" smooth="yes"/>
      <point x="468" y="246"/>
      <point x="456" y="223"/>
      <point x="442" y="204" type="curve"/>
      <point x="334" y="376" type="line"/>
      <point x="435" y="424"/>
      <point x="486" y="470"/>
      <point x="504" y="551" type="curve" smooth="yes"/>
      <point x="519" y="622"/>
      <point x="462" y="690"/>
      <point x="386" y="690" type="curve" smooth="yes"/>
      <point x="310" y="690"/>
      <point x="225" y="623"/>
      <point x="209" y="548" type="curve" smooth="yes"/>
      <point x="196" y="485"/>
      <point x="229" y="424"/>
      <point x="251" y="390" type="curve"/>
      <point x="160" y="346"/>
      <point x="69" y="297"/>
      <point x="44" y="181" type="curve" smooth="yes"/>
      <point x="20" y="67"/>
      <point x="111" y="-4"/>
      <point x="208" y="-4" type="curve" smooth="yes"/>
      <point x="233" y="-4"/>
      <point x="330" y="3"/>
      <point x="430" y="110" type="curve"/>
      <point x="493" y="10" type="line" smooth="yes"/>
      <point x="496" y="4"/>
      <point x="504" y="0"/>
      <point x="512" y="0" type="curve" smooth="yes"/>
      <point x="527" y="0"/>
      <point x="541" y="12"/>
      <point x="544" y="27" type="curve" smooth="yes"/>
      <point x="546" y="33"/>
      <point x="544" y="40"/>
      <point x="542" y="44" type="curve" smooth="yes"/>
    </contour>
    <contour>
      <point x="263" y="548" type="curve" smooth="yes"/>
      <point x="274" y="598"/>
      <point x="332" y="636"/>
      <point x="375" y="636" type="curve" smooth="yes"/>
      <point x="423" y="636"/>
      <point x="459" y="592"/>
      <point x="450" y="549" type="curve" smooth="yes"/>
      <point x="443" y="514"/>
      <point x="433" y="474"/>
      <point x="306" y="417" type="curve"/>
      <point x="284" y="445"/>
      <point x="253" y="500"/>
    </contour>
    <contour>
      <point x="219" y="50" type="curve" smooth="yes"/>
      <point x="159" y="50"/>
      <point x="79" y="91"/>
      <point x="98" y="181" type="curve" smooth="yes"/>
      <point x="117" y="270"/>
      <point x="190" y="306"/>
      <point x="281" y="350" type="curve"/>
      <point x="403" y="153" type="line"/>
      <point x="319" y="56"/>
      <point x="240" y="50"/>
    </contour>
  </outline>
</glyph>
<glyph name="quotesingle" format="1">
  <advance width="194"/>
  <unicode hex="0027"/>
  <outline>
    <contour>
      <point x="148" y="500" type="curve" smooth="yes"/>
      <point x="163" y="500"/>
      <point x="178" y="512"/>
      <point x="182" y="528" type="curve" smooth="yes"/>
      <point x="210" y="662" type="line" smooth="yes"/>
      <point x="213" y="677"/>
      <point x="203" y="690"/>
      <point x="188" y="690" type="curve" smooth="yes"/>
      <point x="172" y="690"/>
      <point x="157" y="677"/>
      <point x="154" y="662" type="curve" smooth="yes"/>
      <point x="126" y="528" type="line" smooth="yes"/>
      <point x="122" y="512"/>
      <point x="132" y="500"/>
    </contour>
  </outline>
</glyph>
<glyph name="plus" format="1">
  <advance width="443"/>
  <unicode hex="002B"/>
  <outline>
    <contour>
      <point x="354" y="224" type="line" smooth="yes"/>
      <point x="369" y="224"/>
      <point x="384" y="236"/>
      <point x="387" y="251" type="curve" smooth="yes"/>
      <point x="390" y="266"/>
      <point x="381" y="278"/>
      <point x="366" y="278" type="curve" smooth="yes"/>
      <point x="252" y="278" type="line"/>
      <point x="273" y="380" type="line" smooth="yes"/>
      <point x="276" y="395"/>
      <point x="267" y="407"/>
      <point x="252" y="407" type="curve" smooth="yes"/>
      <point x="237" y="407"/>
      <point x="222" y="395"/>
      <point x="219" y="380" type="curve" smooth="yes"/>
      <point x="198" y="278" type="line"/>
      <point x="85" y="278" type="line" smooth="yes"/>
      <point x="70" y="278"/>
      <point x="55" y="266"/>
      <point x="52" y="251" type="curve" smooth="yes"/>
      <point x="49" y="236"/>
      <point x="58" y="224"/>
      <point x="73" y="224" type="curve" smooth="yes"/>
      <point x="186" y="224" type="line"/>
      <point x="162" y="112" type="line" smooth="yes"/>
      <point x="159" y="97"/>
      <point x="169" y="85"/>
      <point x="184" y="85" type="curve" smooth="yes"/>
      <point x="199" y="85"/>
      <point x="213" y="97"/>
      <point x="216" y="112" type="curve" smooth="yes"/>
      <point x="240" y="224" type="line"/>
    </contour>
  </outline>
</glyph>
<glyph name="comma" format="1">
  <advance width="261"/>
  <unicode hex="002C"/>
  <outline>
    <contour>
      <point x="105" y="77" type="curve" smooth="yes"/>
      <point x="120.875" y="77"/>
      <point x="130.527" y="63.7772"/>
      <point x="130.527" y="50.3653" type="curve" smooth="yes"/>
      <point x="130.527" y="48.5698"/>
      <point x="130.354" y="46.771"/>
      <point x="130" y="45" type="curve" smooth="yes"/>
      <point x="126" y="26"/>
      <point x="120" y="17"/>
      <point x="97" y="-19" type="curve" smooth="yes"/>
      <point x="61" y="-77"/>
      <point x="57" y="-93"/>
      <point x="38" y="-93" type="curve" smooth="yes"/>
      <point x="26.3342" y="-93"/>
      <point x="18.6948" y="-84.9473"/>
      <point x="18.6948" y="-74.623" type="curve" smooth="yes"/>
      <point x="18.6948" y="-69.077"/>
      <point x="21.6064" y="-66.1809"/>
      <point x="23" y="-62" type="curve" smooth="yes"/>
      <point x="61" y="2" type="line"/>
      <point x="56.5" y="7.25"/>
      <point x="54.25" y="14.75"/>
      <point x="54.25" y="23.2344" type="curve" smooth="yes"/>
      <point x="54.25" y="26.0625"/>
      <point x="54.5" y="29"/>
      <point x="55" y="32" type="curve" smooth="yes"/>
      <point x="60" y="56"/>
      <point x="84" y="77"/>
    </contour>
  </outline>
</glyph>
<glyph name="hyphen" format="1">
  <advance width="441"/>
  <unicode hex="002D"/>
  <outline>
    <contour>
      <point x="337" y="223" type="line" smooth="yes"/>
      <point x="352" y="223"/>
      <point x="367" y="236"/>
      <point x="370" y="250" type="curve" smooth="yes"/>
      <point x="373" y="265"/>
      <point x="363" y="277"/>
      <point x="348" y="277" type="curve" smooth="yes"/>
      <point x="101" y="277" type="line" smooth="yes"/>
      <point x="87" y="277"/>
      <point x="72" y="265"/>
      <point x="69" y="250" type="curve" smooth="yes"/>
      <point x="66" y="236"/>
      <point x="76" y="223"/>
      <point x="90" y="223" type="curve" smooth="yes"/>
    </contour>
  </outline>
</glyph>
<glyph name="one" format="1">
  <advance width="404"/>
  <unicode hex="0031"/>
  <outline>
    <contour>
      <point x="193" y="56" type="line"/>
      <point x="329" y="652" type="line" smooth="yes"/>
      <point x="332" y="666"/>
      <point x="324" y="680"/>
      <point x="306" y="680" type="curve" smooth="yes"/>
      <point x="299" y="680"/>
      <point x="290" y="677"/>
      <point x="284" y="671" type="curve" smooth="yes"/>
      <point x="127" y="532" type="line" smooth="yes"/>
      <point x="121" y="527"/>
      <point x="116" y="520"/>
      <point x="115" y="513" type="curve" smooth="yes"/>
      <point x="111" y="498"/>
      <point x="121" y="485"/>
      <point x="137" y="485" type="curve" smooth="yes"/>
      <point x="144" y="485"/>
      <point x="152" y="488"/>
      <point x="160" y="494" type="curve"/>
      <point x="257" y="579" type="line"/>
      <point x="137" y="56" type="line"/>
      <point x="48" y="56" type="line" smooth="yes"/>
      <point x="32" y="56"/>
      <point x="18" y="43"/>
      <point x="14" y="28" type="curve"/>
      <point x="11" y="12"/>
      <point x="21" y="0"/>
      <point x="37" y="0" type="curve" smooth="yes"/>
      <point x="255" y="0" type="line" smooth="yes"/>
      <point x="270" y="0"/>
      <point x="285" y="12"/>
      <point x="288" y="28" type="curve"/>
      <point x="292" y="43"/>
      <point x="283" y="56"/>
      <point x="264" y="56" type="curve" smooth="yes"/>
    </contour>
  </outline>
</glyph>
<glyph name="two" format="1">
  <advance width="528"/>
  <unicode hex="0032"/>
  <outline>
    <contour>
      <point x="384" y="0" type="line" smooth="yes"/>
      <point x="399" y="0"/>
      <point x="414" y="12"/>
      <point x="417" y="27" type="curve" smooth="yes"/>
      <point x="421" y="43"/>
      <point x="410" y="55"/>
      <point x="395" y="55" type="curve" smooth="yes"/>
      <point x="81" y="55" type="line"/>
      <point x="114" y="180"/>
      <point x="206" y="237"/>
      <point x="297" y="289" type="curve" smooth="yes"/>
      <point x="392" y="343"/>
      <point x="486" y="392"/>
      <point x="510" y="508" type="curve" smooth="yes"/>
      <point x="530" y="601"/>
      <point x="468" y="677"/>
      <point x="358" y="677" type="curve" smooth="yes"/>
      <point x="275" y="677"/>
      <point x="205" y="632"/>
      <point x="163" y="598" type="curve" smooth="yes"/>
      <point x="136" y="577"/>
      <point x="128" y="568"/>
      <point x="126" y="558" type="curve" smooth="yes"/>
      <point x="123" y="544"/>
      <point x="131" y="529"/>
      <point x="148" y="529" type="curve" smooth="yes"/>
      <point x="162" y="529"/>
      <point x="172" y="540"/>
      <point x="181" y="548" type="curve" smooth="yes"/>
      <point x="190" y="556"/>
      <point x="262" y="621"/>
      <point x="346" y="621" type="curve" smooth="yes"/>
      <point x="420" y="621"/>
      <point x="468" y="573"/>
      <point x="454" y="508" type="curve" smooth="yes"/>
      <point x="436" y="422"/>
      <point x="358" y="382"/>
      <point x="271" y="333" type="curve" smooth="yes"/>
      <point x="169" y="275"/>
      <point x="56" y="204"/>
      <point x="18" y="27" type="curve"/>
      <point x="13" y="0" type="line"/>
    </contour>
  </outline>
</glyph>
<glyph name="three" format="1">
  <advance width="543"/>
  <unicode hex="0033"/>
  <outline>
    <contour>
      <point x="39" y="104" type="curve" smooth="yes"/>
      <point x="40" y="101"/>
      <point x="69" y="-6"/>
      <point x="210" y="-6" type="curve" smooth="yes"/>
      <point x="289" y="-6"/>
      <point x="429" y="48"/>
      <point x="461" y="200" type="curve" smooth="yes"/>
      <point x="478" y="281"/>
      <point x="453" y="351"/>
      <point x="384" y="383" type="curve"/>
      <point x="450" y="415"/>
      <point x="502" y="469"/>
      <point x="516" y="532" type="curve" smooth="yes"/>
      <point x="534" y="618"/>
      <point x="464" y="684"/>
      <point x="356" y="684" type="curve" smooth="yes"/>
      <point x="298" y="684"/>
      <point x="245" y="664"/>
      <point x="212" y="646" type="curve" smooth="yes"/>
      <point x="181" y="629"/>
      <point x="173" y="617"/>
      <point x="171" y="607" type="curve" smooth="yes"/>
      <point x="168" y="594"/>
      <point x="174" y="579"/>
      <point x="193" y="579" type="curve" smooth="yes"/>
      <point x="200" y="579"/>
      <point x="205" y="582"/>
      <point x="214" y="588" type="curve" smooth="yes"/>
      <point x="232" y="599"/>
      <point x="273" y="628"/>
      <point x="344" y="628" type="curve" smooth="yes"/>
      <point x="432" y="628"/>
      <point x="469" y="578"/>
      <point x="460" y="532" type="curve"/>
      <point x="445" y="465"/>
      <point x="352" y="409"/>
      <point x="280" y="409" type="curve" smooth="yes"/>
      <point x="264" y="409"/>
      <point x="250" y="397"/>
      <point x="246" y="381" type="curve" smooth="yes"/>
      <point x="243" y="366"/>
      <point x="253" y="353"/>
      <point x="268" y="353" type="curve" smooth="yes"/>
      <point x="316" y="353"/>
      <point x="432" y="326"/>
      <point x="405" y="200" type="curve" smooth="yes"/>
      <point x="383" y="97"/>
      <point x="291" y="50"/>
      <point x="220" y="50" type="curve" smooth="yes"/>
      <point x="132" y="50"/>
      <point x="101" y="109"/>
      <point x="93" y="133" type="curve" smooth="yes"/>
      <point x="90" y="142"/>
      <point x="83" y="148"/>
      <point x="71" y="148" type="curve" smooth="yes"/>
      <point x="56" y="148"/>
      <point x="42" y="137"/>
      <point x="38" y="122" type="curve"/>
      <point x="38" y="118"/>
      <point x="36" y="112"/>
    </contour>
  </outline>
</glyph>
<glyph name="four" format="1">
  <advance width="508"/>
  <unicode hex="0034"/>
  <outline>
    <contour>
      <point x="306" y="-1" type="curve" smooth="yes"/>
      <point x="292.055" y="-1"/>
      <point x="283.427" y="8.87509"/>
      <point x="283.427" y="21.3426" type="curve" smooth="yes"/>
      <point x="283.427" y="23.1799"/>
      <point x="283.615" y="25.0735"/>
      <point x="284" y="27" type="curve" smooth="yes"/>
      <point x="314" y="166" type="line"/>
      <point x="64" y="170" type="line" smooth="yes"/>
      <point x="51.8579" y="170"/>
      <point x="41.2201" y="179.779"/>
      <point x="41.2201" y="192.16" type="curve" smooth="yes"/>
      <point x="41.2201" y="194.054"/>
      <point x="41.4692" y="196.009"/>
      <point x="42" y="198" type="curve" smooth="yes"/>
      <point x="43" y="204"/>
      <point x="46" y="208"/>
      <point x="50" y="213" type="curve" smooth="yes"/>
      <point x="425" y="671" type="line" smooth="yes"/>
      <point x="432" y="679"/>
      <point x="441" y="684"/>
      <point x="450" y="684" type="curve" smooth="yes"/>
      <point x="464.222" y="684"/>
      <point x="474.494" y="674.519"/>
      <point x="474.494" y="661.174" type="curve" smooth="yes"/>
      <point x="474.494" y="659.506"/>
      <point x="474.333" y="657.778"/>
      <point x="474" y="656" type="curve" smooth="yes"/>
      <point x="381" y="221" type="line"/>
      <point x="416" y="220" type="line" smooth="yes"/>
      <point x="429.776" y="219.139"/>
      <point x="437.621" y="210.123"/>
      <point x="437.621" y="198.06" type="curve" smooth="yes"/>
      <point x="437.621" y="196.112"/>
      <point x="437.417" y="194.085"/>
      <point x="437" y="192" type="curve" smooth="yes"/>
      <point x="434.109" y="176.58"/>
      <point x="419.142" y="163.946"/>
      <point x="404.634" y="163.946" type="curve" smooth="yes"/>
      <point x="404.088" y="163.946"/>
      <point x="403.543" y="163.964"/>
      <point x="403" y="164" type="curve" smooth="yes"/>
      <point x="370" y="165" type="line"/>
      <point x="340" y="27" type="line" smooth="yes"/>
      <point x="337" y="12"/>
      <point x="321" y="-1"/>
    </contour>
    <contour>
      <point x="397" y="556" type="line"/>
      <point x="125" y="225" type="line"/>
      <point x="326" y="222" type="line"/>
    </contour>
  </outline>
</glyph>
<glyph name="five" format="1">
  <advance width="559"/>
  <unicode hex="0035"/>
  <outline>
    <contour>
      <point x="93" y="133" type="curve" smooth="yes"/>
      <point x="88" y="142"/>
      <point x="85" y="148"/>
      <point x="71" y="148" type="curve" smooth="yes"/>
      <point x="56" y="148"/>
      <point x="40" y="135"/>
      <point x="37" y="120" type="curve" smooth="yes"/>
      <point x="36" y="115"/>
      <point x="36" y="110"/>
      <point x="37" y="106" type="curve" smooth="yes"/>
      <point x="45" y="75"/>
      <point x="98" y="-3"/>
      <point x="211" y="-3" type="curve" smooth="yes"/>
      <point x="330" y="-3"/>
      <point x="463" y="112"/>
      <point x="493" y="253" type="curve" smooth="yes"/>
      <point x="523" y="391"/>
      <point x="453" y="483"/>
      <point x="334" y="483" type="curve" smooth="yes"/>
      <point x="279" y="483"/>
      <point x="231" y="464"/>
      <point x="195" y="445" type="curve"/>
      <point x="249" y="617" type="line"/>
      <point x="515" y="617" type="line" smooth="yes"/>
      <point x="530" y="617"/>
      <point x="545" y="629"/>
      <point x="549" y="645" type="curve" smooth="yes"/>
      <point x="552" y="660"/>
      <point x="542" y="673"/>
      <point x="527" y="673" type="curve" smooth="yes"/>
      <point x="236" y="673" type="line" smooth="yes"/>
      <point x="222" y="673"/>
      <point x="206" y="662"/>
      <point x="202" y="648" type="curve" smooth="yes"/>
      <point x="119" y="385" type="line" smooth="yes"/>
      <point x="114" y="368"/>
      <point x="121" y="352"/>
      <point x="141" y="352" type="curve" smooth="yes"/>
      <point x="149" y="352"/>
      <point x="156" y="355"/>
      <point x="164" y="362" type="curve" smooth="yes"/>
      <point x="171" y="367"/>
      <point x="234" y="427"/>
      <point x="322" y="427" type="curve" smooth="yes"/>
      <point x="427" y="427"/>
      <point x="456" y="339"/>
      <point x="437" y="253" type="curve" smooth="yes"/>
      <point x="414" y="145"/>
      <point x="314" y="53"/>
      <point x="223" y="53" type="curve" smooth="yes"/>
      <point x="156" y="53"/>
      <point x="118" y="82"/>
    </contour>
  </outline>
</glyph>
<glyph name="six" format="1">
  <advance width="546"/>
  <unicode hex="0036"/>
  <outline>
    <contour>
      <point x="131" y="320" type="curve"/>
      <point x="121" y="296"/>
      <point x="115" y="272"/>
      <point x="110" y="247" type="curve" smooth="yes"/>
      <point x="104.321" y="220.554"/>
      <point x="101.749" y="197.503"/>
      <point x="101.749" y="177.442" type="curve" smooth="yes"/>
      <point x="101.749" y="73.8622"/>
      <point x="170.331" y="50"/>
      <point x="234" y="50" type="curve" smooth="yes"/>
      <point x="276" y="50"/>
      <point x="390" y="84"/>
      <point x="424" y="242" type="curve" smooth="yes"/>
      <point x="427.511" y="258.707"/>
      <point x="429.087" y="273.552"/>
      <point x="429.087" y="286.742" type="curve" smooth="yes"/>
      <point x="429.087" y="382.502"/>
      <point x="346.005" y="391"/>
      <point x="317" y="391" type="curve" smooth="yes"/>
      <point x="224" y="391"/>
      <point x="154" y="339"/>
    </contour>
    <contour>
      <point x="416" y="676" type="curve" smooth="yes"/>
      <point x="423" y="679"/>
      <point x="428" y="681"/>
      <point x="435" y="681" type="curve" smooth="yes"/>
      <point x="448.062" y="681"/>
      <point x="456.575" y="672.658"/>
      <point x="456.575" y="660.597" type="curve" smooth="yes"/>
      <point x="456.575" y="658.808"/>
      <point x="456.388" y="656.938"/>
      <point x="456" y="655" type="curve" smooth="yes"/>
      <point x="453" y="644"/>
      <point x="445" y="635"/>
      <point x="436" y="631" type="curve" smooth="yes"/>
      <point x="326" y="583"/>
      <point x="225" y="501"/>
      <point x="169" y="402" type="curve"/>
      <point x="211" y="424"/>
      <point x="265" y="444"/>
      <point x="328" y="444" type="curve" smooth="yes"/>
      <point x="417.39" y="444"/>
      <point x="482.137" y="393.991"/>
      <point x="482.137" y="297.059" type="curve" smooth="yes"/>
      <point x="482.137" y="280.132"/>
      <point x="480.163" y="261.773"/>
      <point x="476" y="242" type="curve" smooth="yes"/>
      <point x="433" y="40"/>
      <point x="277" y="-3"/>
      <point x="223" y="-3" type="curve" smooth="yes"/>
      <point x="133.466" y="-3"/>
      <point x="48.9268" y="39.8067"/>
      <point x="48.9268" y="167.603" type="curve" smooth="yes"/>
      <point x="48.9268" y="191.107"/>
      <point x="51.7863" y="217.485"/>
      <point x="58" y="247" type="curve" smooth="yes"/>
      <point x="120" y="539"/>
      <point x="365" y="653"/>
    </contour>
  </outline>
</glyph>
<glyph name="equal" format="1">
  <advance width="493"/>
  <unicode hex="003D"/>
  <outline>
    <contour>
      <point x="398" y="299" type="line" smooth="yes"/>
      <point x="413" y="299"/>
      <point x="429" y="311"/>
      <point x="432" y="326" type="curve" smooth="yes"/>
      <point x="435" y="341"/>
      <point x="425" y="354"/>
      <point x="410" y="354" type="curve" smooth="yes"/>
      <point x="124" y="354" type="line" smooth="yes"/>
      <point x="109" y="354"/>
      <point x="94" y="341"/>
      <point x="91" y="326" type="curve" smooth="yes"/>
      <point x="88" y="311"/>
      <point x="97" y="299"/>
      <point x="112" y="299" type="curve" smooth="yes"/>
    </contour>
    <contour>
      <point x="365" y="145" type="line" smooth="yes"/>
      <point x="380" y="145"/>
      <point x="396" y="157"/>
      <point x="399" y="172" type="curve" smooth="yes"/>
      <point x="402" y="187"/>
      <point x="392" y="200"/>
      <point x="377" y="200" type="curve" smooth="yes"/>
      <point x="91" y="200" type="line" smooth="yes"/>
      <point x="76" y="200"/>
      <point x="61" y="187"/>
      <point x="58" y="172" type="curve" smooth="yes"/>
      <point x="55" y="157"/>
      <point x="64" y="145"/>
      <point x="79" y="145" type="curve" smooth="yes"/>
    </contour>
  </outline>
</glyph>
<glyph name="B" format="1">
  <advance width="603"/>
  <unicode hex="0042"/>
  <outline>
    <contour>
      <point x="48" y="-2" type="curve" smooth="yes"/>
      <point x="352" y="-2"/>
      <point x="513" y="74"/>
      <point x="541" y="204" type="curve" smooth="yes"/>
      <point x="558" y="286"/>
      <point x="524" y="341"/>
      <point x="447" y="370" type="curve"/>
      <point x="487" y="395"/>
      <point x="532" y="439"/>
      <point x="548" y="513" type="curve" smooth="yes"/>
      <point x="554" y="543"/>
      <point x="561" y="681"/>
      <point x="364" y="681" type="curve" smooth="yes"/>
      <point x="182" y="681" type="line" smooth="yes"/>
      <point x="167" y="681"/>
      <point x="151" y="668"/>
      <point x="148" y="653" type="curve" smooth="yes"/>
      <point x="16" y="32" type="line" smooth="yes"/>
      <point x="10" y="4"/>
      <point x="25" y="-2"/>
    </contour>
    <contour>
      <point x="137" y="330" type="line"/>
      <point x="343" y="330" type="line" smooth="yes"/>
      <point x="419" y="330"/>
      <point x="504" y="294"/>
      <point x="485" y="204" type="curve" smooth="yes"/>
      <point x="463" y="99"/>
      <point x="281" y="54"/>
      <point x="78" y="54" type="curve"/>
    </contour>
    <contour>
      <point x="199" y="624" type="line"/>
      <point x="352" y="624" type="line" smooth="yes"/>
      <point x="504" y="624"/>
      <point x="495" y="528"/>
      <point x="491" y="510" type="curve" smooth="yes"/>
      <point x="478" y="448"/>
      <point x="414" y="387"/>
      <point x="345" y="387" type="curve" smooth="yes"/>
      <point x="149" y="387" type="line"/>
    </contour>
  </outline>
</glyph>
<glyph name="C" format="1">
  <advance width="632"/>
  <unicode hex="0043"/>
  <outline>
    <contour>
      <point x="531" y="161" type="curve" smooth="yes"/>
      <point x="523" y="161"/>
      <point x="515" y="159"/>
      <point x="506" y="150" type="curve" smooth="yes"/>
      <point x="439" y="81"/>
      <point x="366" y="55"/>
      <point x="294" y="55" type="curve" smooth="yes"/>
      <point x="204" y="55"/>
      <point x="78" y="124"/>
      <point x="114" y="296" type="curve" smooth="yes"/>
      <point x="149" y="460"/>
      <point x="312" y="627"/>
      <point x="424" y="627" type="curve" smooth="yes"/>
      <point x="509" y="627"/>
      <point x="539" y="593"/>
      <point x="554" y="572" type="curve"/>
      <point x="553" y="567" type="line" smooth="yes"/>
      <point x="550" y="551"/>
      <point x="560" y="538"/>
      <point x="576" y="538" type="curve" smooth="yes"/>
      <point x="592" y="538"/>
      <point x="607" y="551"/>
      <point x="610" y="567" type="curve" smooth="yes"/>
      <point x="624" y="631" type="line" smooth="yes"/>
      <point x="627" y="647"/>
      <point x="618" y="659"/>
      <point x="602" y="659" type="curve" smooth="yes"/>
      <point x="591" y="659"/>
      <point x="579" y="653"/>
      <point x="573" y="644" type="curve"/>
      <point x="547" y="664"/>
      <point x="505" y="684"/>
      <point x="436" y="684" type="curve" smooth="yes"/>
      <point x="298" y="684"/>
      <point x="101" y="500"/>
      <point x="57" y="296" type="curve" smooth="yes"/>
      <point x="21" y="126"/>
      <point x="125" y="-2"/>
      <point x="282" y="-2" type="curve" smooth="yes"/>
      <point x="378" y="-2"/>
      <point x="472" y="40"/>
      <point x="545" y="116" type="curve" smooth="yes"/>
      <point x="550" y="121"/>
      <point x="552" y="127"/>
      <point x="554" y="133" type="curve" smooth="yes"/>
      <point x="558" y="151"/>
      <point x="546" y="161"/>
    </contour>
  </outline>
</glyph>
<glyph name="D" format="1">
  <advance width="620"/>
  <unicode hex="0044"/>
  <outline>
    <contour>
      <point x="150" y="-20" type="curve" smooth="yes"/>
      <point x="91" y="-20"/>
      <point x="38" y="-5"/>
      <point x="31" y="-3" type="curve" smooth="yes"/>
      <point x="20.8731" y="-0.468273"/>
      <point x="14.3071" y="8.47309"/>
      <point x="14.3071" y="19.016" type="curve" smooth="yes"/>
      <point x="14.3071" y="20.966"/>
      <point x="14.5317" y="22.9708"/>
      <point x="15" y="25" type="curve" smooth="yes"/>
      <point x="148" y="653" type="line" smooth="yes"/>
      <point x="152" y="669"/>
      <point x="167" y="681"/>
      <point x="183" y="681" type="curve" smooth="yes"/>
      <point x="329.044" y="681"/>
      <point x="578.646" y="636.847"/>
      <point x="578.646" y="393.181" type="curve" smooth="yes"/>
      <point x="578.646" y="364.891"/>
      <point x="575.282" y="333.912"/>
      <point x="568" y="300" type="curve" smooth="yes"/>
      <point x="521" y="77"/>
      <point x="343" y="-20"/>
    </contour>
    <contour>
      <point x="199" y="624" type="curve"/>
      <point x="77" y="48" type="line"/>
      <point x="98" y="43"/>
      <point x="130" y="37"/>
      <point x="162" y="37" type="curve" smooth="yes"/>
      <point x="340" y="37"/>
      <point x="474" y="123"/>
      <point x="511" y="300" type="curve"/>
      <point x="517.24" y="328.952"/>
      <point x="520.193" y="355.584"/>
      <point x="520.193" y="380.041" type="curve" smooth="yes"/>
      <point x="520.193" y="551.563"/>
      <point x="374.916" y="616.123"/>
    </contour>
  </outline>
</glyph>
<glyph name="J" format="1">
  <advance width="472"/>
  <unicode hex="004A"/>
  <outline>
    <contour>
      <point x="307" y="677" type="line" smooth="yes"/>
      <point x="291" y="677"/>
      <point x="276" y="664"/>
      <point x="272" y="649" type="curve"/>
      <point x="269" y="633"/>
      <point x="279" y="620"/>
      <point x="295" y="620" type="curve" smooth="yes"/>
      <point x="418" y="620" type="line"/>
      <point x="320" y="159" type="line" smooth="yes"/>
      <point x="314" y="128"/>
      <point x="288" y="57"/>
      <point x="185" y="57" type="curve" smooth="yes"/>
      <point x="69" y="57"/>
      <point x="83" y="150"/>
      <point x="88" y="171" type="curve" smooth="yes"/>
      <point x="91" y="187"/>
      <point x="82" y="200"/>
      <point x="66" y="200" type="curve" smooth="yes"/>
      <point x="48" y="200"/>
      <point x="34" y="186"/>
      <point x="30" y="169" type="curve" smooth="yes"/>
      <point x="22" y="128"/>
      <point x="16" y="0"/>
      <point x="173" y="0" type="curve" smooth="yes"/>
      <point x="299" y="0"/>
      <point x="362" y="86"/>
      <point x="377" y="159" type="curve" smooth="yes"/>
      <point x="475" y="620" type="line"/>
      <point x="500" y="620" type="line" smooth="yes"/>
      <point x="515" y="620"/>
      <point x="531" y="633"/>
      <point x="534" y="649" type="curve"/>
      <point x="538" y="664"/>
      <point x="527" y="677"/>
      <point x="512" y="677" type="curve" smooth="yes"/>
    </contour>
  </outline>
</glyph>
<glyph name="K" format="1">
  <advance width="570"/>
  <unicode hex="004B"/>
  <outline>
    <contour>
      <point x="157" y="335" type="line"/>
      <point x="569" y="633" type="line" smooth="yes"/>
      <point x="576" y="638"/>
      <point x="581" y="646"/>
      <point x="583" y="654" type="curve" smooth="yes"/>
      <point x="585" y="668"/>
      <point x="575" y="682"/>
      <point x="561" y="682" type="curve" smooth="yes"/>
      <point x="554" y="682"/>
      <point x="548" y="679"/>
      <point x="542" y="675" type="curve" smooth="yes"/>
      <point x="147" y="389" type="line"/>
      <point x="204" y="654" type="line" smooth="yes"/>
      <point x="207" y="669"/>
      <point x="196" y="681"/>
      <point x="181" y="681" type="curve" smooth="yes"/>
      <point x="166" y="681"/>
      <point x="152" y="669"/>
      <point x="149" y="654" type="curve" smooth="yes"/>
      <point x="15" y="28" type="line" smooth="yes"/>
      <point x="12" y="13"/>
      <point x="22" y="0"/>
      <point x="37" y="0" type="curve" smooth="yes"/>
      <point x="52" y="0"/>
      <point x="67" y="13"/>
      <point x="70" y="28" type="curve" smooth="yes"/>
      <point x="124" y="282" type="line"/>
      <point x="421" y="5" type="line" smooth="yes"/>
      <point x="425" y="1"/>
      <point x="430" y="-1"/>
      <point x="436" y="-1" type="curve" smooth="yes"/>
      <point x="451" y="-1"/>
      <point x="466" y="11"/>
      <point x="469" y="27" type="curve" smooth="yes"/>
      <point x="471" y="35"/>
      <point x="470" y="42"/>
      <point x="464" y="49" type="curve"/>
    </contour>
  </outline>
</glyph>
<glyph name="M" format="1">
  <advance width="857"/>
  <unicode hex="004D"/>
  <outline>
    <contour>
      <point x="358" y="0" type="curve" smooth="yes"/>
      <point x="370" y="0"/>
      <point x="382" y="7"/>
      <point x="388" y="18" type="curve" smooth="yes"/>
      <point x="695" y="553" type="line"/>
      <point x="700" y="22" type="line" smooth="yes"/>
      <point x="700" y="9"/>
      <point x="709" y="0"/>
      <point x="724" y="0" type="curve" smooth="yes"/>
      <point x="740" y="0"/>
      <point x="753" y="12"/>
      <point x="756" y="24" type="curve" smooth="yes"/>
      <point x="757" y="31"/>
      <point x="758" y="40"/>
      <point x="758" y="52" type="curve" smooth="yes"/>
      <point x="751" y="659" type="line"/>
      <point x="750" y="672"/>
      <point x="743" y="680"/>
      <point x="730" y="681" type="curve" smooth="yes"/>
      <point x="717" y="681"/>
      <point x="705" y="675"/>
      <point x="698" y="663" type="curve" smooth="yes"/>
      <point x="384" y="115" type="line"/>
      <point x="327" y="662" type="line" smooth="yes"/>
      <point x="326" y="673"/>
      <point x="317" y="681"/>
      <point x="305" y="681" type="curve" smooth="yes"/>
      <point x="291" y="681"/>
      <point x="279" y="673"/>
      <point x="273" y="659" type="curve" smooth="yes"/>
      <point x="9" y="49" type="line" smooth="yes"/>
      <point x="5" y="41"/>
      <point x="1" y="30"/>
      <point x="0" y="25" type="curve" smooth="yes"/>
      <point x="-2" y="15"/>
      <point x="4" y="0"/>
      <point x="22" y="0" type="curve" smooth="yes"/>
      <point x="35" y="0"/>
      <point x="48" y="8"/>
      <point x="54" y="22" type="curve" smooth="yes"/>
      <point x="280" y="545" type="line"/>
      <point x="336" y="19" type="line"/>
      <point x="336" y="8"/>
      <point x="346" y="0"/>
    </contour>
  </outline>
</glyph>
<glyph name="Q" format="1">
  <advance width="714"/>
  <unicode hex="0051"/>
  <outline>
    <contour>
      <point x="514" y="93" type="line"/>
      <point x="597" y="161"/>
      <point x="662" y="260"/>
      <point x="684" y="366" type="curve" smooth="yes"/>
      <point x="720" y="536"/>
      <point x="632" y="680"/>
      <point x="469" y="680" type="curve" smooth="yes"/>
      <point x="293" y="680"/>
      <point x="104" y="512"/>
      <point x="62" y="311" type="curve" smooth="yes"/>
      <point x="26" y="142"/>
      <point x="113" y="-2"/>
      <point x="277" y="-2" type="curve" smooth="yes"/>
      <point x="339" y="-2"/>
      <point x="404" y="19"/>
      <point x="462" y="56" type="curve"/>
      <point x="560" y="-20" type="line" smooth="yes"/>
      <point x="565" y="-23"/>
      <point x="569" y="-24"/>
      <point x="574" y="-24" type="curve" smooth="yes"/>
      <point x="588" y="-24"/>
      <point x="605" y="-14"/>
      <point x="608" y="3" type="curve" smooth="yes"/>
      <point x="610" y="12"/>
      <point x="609" y="21"/>
      <point x="601" y="27" type="curve" smooth="yes"/>
    </contour>
    <contour>
      <point x="289" y="52" type="curve" smooth="yes"/>
      <point x="160" y="52"/>
      <point x="91" y="168"/>
      <point x="122" y="315" type="curve" smooth="yes"/>
      <point x="159" y="487"/>
      <point x="313" y="626"/>
      <point x="450" y="626" type="curve" smooth="yes"/>
      <point x="583" y="626"/>
      <point x="651" y="497"/>
      <point x="623" y="363" type="curve" smooth="yes"/>
      <point x="603" y="269"/>
      <point x="543" y="182"/>
      <point x="473" y="125" type="curve"/>
      <point x="391" y="188" type="line" smooth="yes"/>
      <point x="387" y="191"/>
      <point x="382" y="192"/>
      <point x="376" y="192" type="curve" smooth="yes"/>
      <point x="362" y="192"/>
      <point x="347" y="180"/>
      <point x="343" y="164" type="curve" smooth="yes"/>
      <point x="341" y="155"/>
      <point x="345" y="146"/>
      <point x="351" y="141" type="curve" smooth="yes"/>
      <point x="419" y="89" type="line"/>
      <point x="376" y="65"/>
      <point x="332" y="52"/>
    </contour>
  </outline>
</glyph>
<glyph name="R" format="1">
  <advance width="597"/>
  <unicode hex="0052"/>
  <outline>
    <contour>
      <point x="496" y="41" type="curve" smooth="yes"/>
      <point x="457" y="173"/>
      <point x="375" y="250"/>
      <point x="336" y="276" type="curve"/>
      <point x="437" y="308"/>
      <point x="543" y="366"/>
      <point x="567" y="478" type="curve" smooth="yes"/>
      <point x="595" y="611"/>
      <point x="486" y="688"/>
      <point x="261" y="688" type="curve" smooth="yes"/>
      <point x="172" y="688"/>
      <point x="156" y="689"/>
      <point x="147" y="648" type="curve" smooth="yes"/>
      <point x="15" y="28" type="line" smooth="yes"/>
      <point x="12" y="12"/>
      <point x="22" y="0"/>
      <point x="38" y="0" type="curve" smooth="yes"/>
      <point x="53" y="0"/>
      <point x="68" y="12"/>
      <point x="71" y="28" type="curve" smooth="yes"/>
      <point x="117" y="241" type="line"/>
      <point x="152" y="246"/>
      <point x="196" y="250"/>
      <point x="215" y="250" type="curve" smooth="yes"/>
      <point x="258" y="250"/>
      <point x="358" y="242"/>
      <point x="441" y="16" type="curve" smooth="yes"/>
      <point x="445" y="6"/>
      <point x="453" y="0"/>
      <point x="463" y="0" type="curve" smooth="yes"/>
      <point x="480" y="0"/>
      <point x="493" y="14"/>
      <point x="496" y="28" type="curve" smooth="yes"/>
      <point x="497" y="32"/>
      <point x="497" y="37"/>
    </contour>
    <contour>
      <point x="200" y="631" type="line"/>
      <point x="215" y="632"/>
      <point x="236" y="632"/>
      <point x="246" y="632" type="curve" smooth="yes"/>
      <point x="434" y="632"/>
      <point x="533" y="580"/>
      <point x="511" y="478" type="curve" smooth="yes"/>
      <point x="484" y="349"/>
      <point x="273" y="300"/>
      <point x="129" y="297" type="curve"/>
    </contour>
  </outline>
</glyph>
<glyph name="S" format="1">
  <advance width="598"/>
  <unicode hex="0053"/>
  <outline>
    <contour>
      <point x="345" y="388" type="curve" smooth="yes"/>
      <point x="246" y="417"/>
      <point x="200" y="456"/>
      <point x="211" y="506" type="curve" smooth="yes"/>
      <point x="231" y="602"/>
      <point x="316" y="632"/>
      <point x="403" y="632" type="curve" smooth="yes"/>
      <point x="475" y="632"/>
      <point x="546" y="604"/>
      <point x="540" y="542" type="curve"/>
      <point x="538" y="529"/>
      <point x="548" y="518"/>
      <point x="562" y="518" type="curve" smooth="yes"/>
      <point x="578" y="518"/>
      <point x="592" y="531"/>
      <point x="595" y="548" type="curve" smooth="yes"/>
      <point x="611" y="662"/>
      <point x="490" y="682"/>
      <point x="416" y="682" type="curve" smooth="yes"/>
      <point x="302" y="682"/>
      <point x="176" y="640"/>
      <point x="148" y="509" type="curve" smooth="yes"/>
      <point x="126" y="409"/>
      <point x="228" y="357"/>
      <point x="320" y="331" type="curve" smooth="yes"/>
      <point x="469" y="288"/>
      <point x="467" y="228"/>
      <point x="461" y="198" type="curve" smooth="yes"/>
      <point x="438" y="93"/>
      <point x="334" y="53"/>
      <point x="259" y="53" type="curve" smooth="yes"/>
      <point x="188" y="53"/>
      <point x="109" y="87"/>
      <point x="99" y="163" type="curve" smooth="yes"/>
      <point x="97" y="177"/>
      <point x="89" y="186"/>
      <point x="74" y="186" type="curve" smooth="yes"/>
      <point x="57" y="186"/>
      <point x="41" y="173"/>
      <point x="38" y="157" type="curve" smooth="yes"/>
      <point x="37" y="152"/>
      <point x="37" y="144"/>
      <point x="38" y="140" type="curve" smooth="yes"/>
      <point x="54" y="58"/>
      <point x="136" y="0"/>
      <point x="249" y="0" type="curve" smooth="yes"/>
      <point x="352" y="0"/>
      <point x="494" y="60"/>
      <point x="522" y="191" type="curve" smooth="yes"/>
      <point x="542" y="283"/>
      <point x="483" y="347"/>
    </contour>
  </outline>
</glyph>
<glyph name="V" format="1">
  <advance width="535"/>
  <unicode hex="0056"/>
  <outline>
    <contour>
      <point x="195" y="0" type="curve" smooth="yes"/>
      <point x="206" y="0"/>
      <point x="217" y="7"/>
      <point x="224" y="18" type="curve" smooth="yes"/>
      <point x="603" y="642" type="line" smooth="yes"/>
      <point x="605" y="646"/>
      <point x="606" y="649"/>
      <point x="607" y="653" type="curve" smooth="yes"/>
      <point x="610" y="667"/>
      <point x="602" y="680"/>
      <point x="586" y="680" type="curve" smooth="yes"/>
      <point x="574" y="680"/>
      <point x="563" y="674"/>
      <point x="555" y="663" type="curve"/>
      <point x="220" y="110" type="line"/>
      <point x="151" y="661" type="line" smooth="yes"/>
      <point x="150" y="673"/>
      <point x="140" y="680"/>
      <point x="128" y="680" type="curve" smooth="yes"/>
      <point x="110" y="680"/>
      <point x="97" y="668"/>
      <point x="94" y="653" type="curve" smooth="yes"/>
      <point x="94" y="650"/>
      <point x="93" y="643"/>
      <point x="94" y="638" type="curve" smooth="yes"/>
      <point x="172" y="19" type="line" smooth="yes"/>
      <point x="173" y="8"/>
      <point x="183" y="0"/>
    </contour>
  </outline>
</glyph>
<glyph name="W" format="1">
  <advance width="867"/>
  <unicode hex="0057"/>
  <outline>
    <contour>
      <point x="548" y="0" type="curve" smooth="yes"/>
      <point x="560" y="0"/>
      <point x="571" y="7"/>
      <point x="577" y="18" type="curve" smooth="yes"/>
      <point x="935" y="644" type="line" smooth="yes"/>
      <point x="937" y="647"/>
      <point x="939" y="651"/>
      <point x="940" y="655" type="curve" smooth="yes"/>
      <point x="942" y="667"/>
      <point x="933" y="681"/>
      <point x="917" y="681" type="curve" smooth="yes"/>
      <point x="906" y="681"/>
      <point x="894" y="674"/>
      <point x="887" y="663" type="curve" smooth="yes"/>
      <point x="576" y="120" type="line"/>
      <point x="542" y="661" type="line"/>
      <point x="542" y="673"/>
      <point x="532" y="681"/>
      <point x="520" y="681" type="curve" smooth="yes"/>
      <point x="507" y="681"/>
      <point x="496" y="675"/>
      <point x="489" y="662" type="curve" smooth="yes"/>
      <point x="199" y="121" type="line"/>
      <point x="150" y="661" type="line" smooth="yes"/>
      <point x="149" y="673"/>
      <point x="140" y="681"/>
      <point x="127" y="681" type="curve" smooth="yes"/>
      <point x="112" y="681"/>
      <point x="98" y="670"/>
      <point x="95" y="654" type="curve" smooth="yes"/>
      <point x="94" y="651"/>
      <point x="94" y="645"/>
      <point x="95" y="632" type="curve" smooth="yes"/>
      <point x="151" y="19" type="line"/>
      <point x="151" y="8"/>
      <point x="161" y="0"/>
      <point x="173" y="0" type="curve" smooth="yes"/>
      <point x="186" y="0"/>
      <point x="197" y="6"/>
      <point x="204" y="19" type="curve" smooth="yes"/>
      <point x="491" y="556" type="line"/>
      <point x="525" y="20" type="line"/>
      <point x="525" y="7"/>
      <point x="534" y="0"/>
    </contour>
  </outline>
</glyph>
<glyph name="X" format="1">
  <advance width="681"/>
  <unicode hex="0058"/>
  <outline>
    <contour>
      <point x="399" y="345" type="line"/>
      <point x="703" y="635" type="line" smooth="yes"/>
      <point x="709" y="640"/>
      <point x="713" y="647"/>
      <point x="715" y="654" type="curve"/>
      <point x="717" y="668"/>
      <point x="707" y="681"/>
      <point x="692" y="681" type="curve" smooth="yes"/>
      <point x="684" y="681"/>
      <point x="676" y="678"/>
      <point x="668" y="671" type="curve" smooth="yes"/>
      <point x="372" y="390" type="line"/>
      <point x="209" y="671" type="line" smooth="yes"/>
      <point x="205" y="678"/>
      <point x="197" y="681"/>
      <point x="189" y="681" type="curve" smooth="yes"/>
      <point x="174" y="681"/>
      <point x="158" y="669"/>
      <point x="155" y="654" type="curve" smooth="yes"/>
      <point x="153" y="647"/>
      <point x="155" y="641"/>
      <point x="158" y="636" type="curve" smooth="yes"/>
      <point x="327" y="346" type="line"/>
      <point x="11" y="46" type="line" smooth="yes"/>
      <point x="6" y="41"/>
      <point x="2" y="34"/>
      <point x="0" y="28" type="curve" smooth="yes"/>
      <point x="-3" y="14"/>
      <point x="7" y="0"/>
      <point x="24" y="0" type="curve" smooth="yes"/>
      <point x="32" y="0"/>
      <point x="40" y="3"/>
      <point x="47" y="10" type="curve" smooth="yes"/>
      <point x="352" y="301" type="line"/>
      <point x="523" y="10" type="line" smooth="yes"/>
      <point x="527" y="3"/>
      <point x="535" y="0"/>
      <point x="543" y="0" type="curve" smooth="yes"/>
      <point x="558" y="0"/>
      <point x="572" y="13"/>
      <point x="575" y="28" type="curve" smooth="yes"/>
      <point x="577" y="34"/>
      <point x="577" y="40"/>
      <point x="574" y="45" type="curve" smooth="yes"/>
    </contour>
  </outline>
</glyph>
<glyph name="Y" format="1">
  <advance width="593"/>
  <unicode hex="0059"/>
  <outline>
    <contour>
      <point x="653" y="681" type="curve" smooth="yes"/>
      <point x="643" y="681"/>
      <point x="633" y="676"/>
      <point x="626" y="667" type="curve" smooth="yes"/>
      <point x="306" y="269" type="line"/>
      <point x="158" y="667" type="line" smooth="yes"/>
      <point x="155" y="676"/>
      <point x="147" y="681"/>
      <point x="138" y="681" type="curve" smooth="yes"/>
      <point x="122" y="681"/>
      <point x="106" y="668"/>
      <point x="103" y="653" type="curve" smooth="yes"/>
      <point x="102" y="648"/>
      <point x="103" y="642"/>
      <point x="105" y="635" type="curve" smooth="yes"/>
      <point x="261" y="214" type="line"/>
      <point x="125" y="46" type="line" smooth="yes"/>
      <point x="121" y="41"/>
      <point x="117" y="34"/>
      <point x="115" y="28" type="curve" smooth="yes"/>
      <point x="112" y="14"/>
      <point x="122" y="0"/>
      <point x="138" y="0" type="curve" smooth="yes"/>
      <point x="148" y="0"/>
      <point x="158" y="5"/>
      <point x="164" y="14" type="curve"/>
      <point x="663" y="632" type="line" smooth="yes"/>
      <point x="672" y="644"/>
      <point x="674" y="648"/>
      <point x="675" y="653" type="curve" smooth="yes"/>
      <point x="679" y="669"/>
      <point x="667" y="681"/>
    </contour>
  </outline>
</glyph>
<glyph name="bracketleft" format="1">
  <advance width="315"/>
  <unicode hex="005B"/>
  <outline>
    <contour>
      <point x="133" y="-124" type="line" smooth="yes"/>
      <point x="148" y="-124"/>
      <point x="164" y="-112"/>
      <point x="167" y="-96" type="curve" smooth="yes"/>
      <point x="170" y="-81"/>
      <point x="160" y="-68"/>
      <point x="145" y="-68" type="curve" smooth="yes"/>
      <point x="52" y="-68" type="line"/>
      <point x="226" y="750" type="line"/>
      <point x="335" y="750" type="line" smooth="yes"/>
      <point x="350" y="750"/>
      <point x="365" y="762"/>
      <point x="369" y="778" type="curve" smooth="yes"/>
      <point x="372" y="793"/>
      <point x="362" y="806"/>
      <point x="347" y="806" type="curve" smooth="yes"/>
      <point x="210" y="806" type="line" smooth="yes"/>
      <point x="194" y="806"/>
      <point x="179" y="793"/>
      <point x="176" y="778" type="curve" smooth="yes"/>
      <point x="-10" y="-96" type="line" smooth="yes"/>
      <point x="-13" y="-112"/>
      <point x="-4" y="-124"/>
      <point x="12" y="-124" type="curve" smooth="yes"/>
    </contour>
  </outline>
</glyph>
<glyph name="backslash" format="1">
  <advance width="545"/>
  <unicode hex="005C"/>
  <outline>
    <contour>
      <point x="392" y="-1" type="curve" smooth="yes"/>
      <point x="409" y="-1"/>
      <point x="423" y="12"/>
      <point x="426" y="27" type="curve" smooth="yes"/>
      <point x="427" y="32"/>
      <point x="427" y="37"/>
      <point x="426" y="41" type="curve" smooth="yes"/>
      <point x="209" y="678" type="line" smooth="yes"/>
      <point x="206" y="687"/>
      <point x="197" y="692"/>
      <point x="187" y="692" type="curve" smooth="yes"/>
      <point x="171" y="692"/>
      <point x="156" y="679"/>
      <point x="153" y="666" type="curve" smooth="yes"/>
      <point x="151" y="657"/>
      <point x="154" y="648"/>
      <point x="157" y="641" type="curve" smooth="yes"/>
      <point x="371" y="13" type="line" smooth="yes"/>
      <point x="374" y="4"/>
      <point x="382" y="-1"/>
    </contour>
  </outline>
</glyph>
<glyph name="bracketright" format="1">
  <advance width="315"/>
  <unicode hex="005D"/>
  <outline>
    <contour>
      <point x="221" y="806" type="line" smooth="yes"/>
      <point x="206" y="806"/>
      <point x="190" y="794"/>
      <point x="187" y="778" type="curve" smooth="yes"/>
      <point x="184" y="763"/>
      <point x="194" y="750"/>
      <point x="209" y="750" type="curve" smooth="yes"/>
      <point x="302" y="750" type="line"/>
      <point x="128" y="-68" type="line"/>
      <point x="19" y="-68" type="line" smooth="yes"/>
      <point x="4" y="-68"/>
      <point x="-12" y="-80"/>
      <point x="-15" y="-96" type="curve" smooth="yes"/>
      <point x="-18" y="-111"/>
      <point x="-8" y="-124"/>
      <point x="7" y="-124" type="curve" smooth="yes"/>
      <point x="144" y="-124" type="line" smooth="yes"/>
      <point x="160" y="-124"/>
      <point x="175" y="-111"/>
      <point x="178" y="-96" type="curve" smooth="yes"/>
      <point x="364" y="778" type="line" smooth="yes"/>
      <point x="367" y="794"/>
      <point x="358" y="806"/>
      <point x="342" y="806" type="curve" smooth="yes"/>
    </contour>
  </outline>
</glyph>
<glyph name="asciicircum" format="1">
  <advance width="500"/>
  <unicode hex="005E"/>
  <outline>
    <contour>
      <point x="373" y="641" type="line" smooth="yes"/>
      <point x="369" y="654"/>
      <point x="359" y="663"/>
      <point x="345" y="663" type="curve" smooth="yes"/>
      <point x="331" y="663"/>
      <point x="319" y="654"/>
      <point x="309" y="643" type="curve"/>
      <point x="141" y="436" type="line" smooth="yes"/>
      <point x="137" y="432"/>
      <point x="135" y="427"/>
      <point x="134" y="422" type="curve" smooth="yes"/>
      <point x="131" y="407"/>
      <point x="140" y="395"/>
      <point x="155" y="395" type="curve" smooth="yes"/>
      <point x="166" y="395"/>
      <point x="177" y="401"/>
      <point x="184" y="411" type="curve"/>
      <point x="184" y="411"/>
      <point x="327" y="582"/>
      <point x="327" y="582" type="curve"/>
      <point x="379" y="409" type="line" smooth="yes"/>
      <point x="382" y="401"/>
      <point x="390" y="395"/>
      <point x="400" y="395" type="curve" smooth="yes"/>
      <point x="415" y="395"/>
      <point x="430" y="407"/>
      <point x="433" y="422" type="curve" smooth="yes"/>
      <point x="434" y="426"/>
      <point x="434" y="432"/>
      <point x="433" y="438" type="curve"/>
    </contour>
  </outline>
</glyph>
<glyph name="grave" format="1">
  <advance width="500"/>
  <unicode hex="0060"/>
  <outline>
    <contour>
      <point x="359" y="583" type="curve" smooth="yes"/>
      <point x="267" y="704" type="line" smooth="yes"/>
      <point x="262" y="711"/>
      <point x="259" y="719"/>
      <point x="261" y="729" type="curve" smooth="yes"/>
      <point x="265" y="747"/>
      <point x="286" y="763"/>
      <point x="304" y="763" type="curve" smooth="yes"/>
      <point x="315" y="763"/>
      <point x="324" y="756"/>
      <point x="329" y="748" type="curve" smooth="yes"/>
      <point x="407" y="618" type="line"/>
      <point x="410" y="611"/>
      <point x="411" y="606"/>
      <point x="410" y="600" type="curve" smooth="yes"/>
      <point x="407" y="585"/>
      <point x="391" y="574"/>
      <point x="377" y="574" type="curve" smooth="yes"/>
      <point x="369" y="574"/>
      <point x="363" y="578"/>
    </contour>
  </outline>
</glyph>
<glyph name="a" format="1">
  <advance width="505"/>
  <unicode hex="0061"/>
  <outline>
    <contour>
      <point x="485" y="473" type="line"/>
      <point x="472" y="481"/>
      <point x="417" y="514"/>
      <point x="343" y="514" type="curve" smooth="yes"/>
      <point x="169" y="514"/>
      <point x="64" y="328"/>
      <point x="42" y="224" type="curve" smooth="yes"/>
      <point x="15" y="95"/>
      <point x="76" y="8"/>
      <point x="184" y="8" type="curve" smooth="yes"/>
      <point x="239" y="8"/>
      <point x="300" y="33"/>
      <point x="340" y="55" type="curve"/>
      <point x="335" y="32" type="line" smooth="yes"/>
      <point x="332" y="15"/>
      <point x="338" y="0"/>
      <point x="357" y="0" type="curve" smooth="yes"/>
      <point x="373" y="0"/>
      <point x="387" y="14"/>
      <point x="391" y="30" type="curve" smooth="yes"/>
    </contour>
    <contour>
      <point x="352" y="121" type="line"/>
      <point x="326" y="105"/>
      <point x="255" y="63"/>
      <point x="194" y="63" type="curve" smooth="yes"/>
      <point x="99" y="63"/>
      <point x="85" y="156"/>
      <point x="100" y="226" type="curve" smooth="yes"/>
      <point x="117" y="309"/>
      <point x="197" y="459"/>
      <point x="334" y="459" type="curve" smooth="yes"/>
      <point x="368" y="459"/>
      <point x="406" y="446"/>
      <point x="424" y="438" type="curve"/>
    </contour>
  </outline>
</glyph>
<glyph name="b" format="1">
  <advance width="524"/>
  <unicode hex="0062"/>
  <outline>
    <contour>
      <point x="349" y="491" type="curve" smooth="yes"/>
      <point x="280" y="491"/>
      <point x="205" y="460"/>
      <point x="152" y="410" type="curve"/>
      <point x="206" y="665" type="line" smooth="yes"/>
      <point x="209" y="680"/>
      <point x="198" y="690"/>
      <point x="184" y="690" type="curve" smooth="yes"/>
      <point x="169" y="690"/>
      <point x="154" y="680"/>
      <point x="151" y="665" type="curve" smooth="yes"/>
      <point x="15" y="26" type="line" smooth="yes"/>
      <point x="12" y="12"/>
      <point x="23" y="0"/>
      <point x="38" y="0" type="curve" smooth="yes"/>
      <point x="53" y="0"/>
      <point x="67" y="13"/>
      <point x="70" y="26" type="curve" smooth="yes"/>
      <point x="72" y="35" type="line"/>
      <point x="100" y="22"/>
      <point x="151" y="7"/>
      <point x="203" y="7" type="curve" smooth="yes"/>
      <point x="357" y="7"/>
      <point x="445" y="125"/>
      <point x="476" y="271" type="curve" smooth="yes"/>
      <point x="498" y="374"/>
      <point x="477" y="491"/>
    </contour>
    <contour>
      <point x="206" y="60" type="curve" smooth="yes"/>
      <point x="149" y="60"/>
      <point x="98" y="79"/>
      <point x="83" y="87" type="curve"/>
      <point x="127" y="294" type="line" smooth="yes"/>
      <point x="144" y="372"/>
      <point x="236" y="435"/>
      <point x="341" y="435" type="curve" smooth="yes"/>
      <point x="432" y="435"/>
      <point x="438" y="340"/>
      <point x="423" y="271" type="curve" smooth="yes"/>
      <point x="396" y="144"/>
      <point x="332" y="60"/>
    </contour>
  </outline>
</glyph>
<glyph name="d" format="1">
  <advance width="530"/>
  <unicode hex="0064"/>
  <outline>
    <contour>
      <point x="551" y="667" type="line" smooth="yes"/>
      <point x="555" y="683"/>
      <point x="545" y="697"/>
      <point x="530" y="697" type="curve" smooth="yes"/>
      <point x="514" y="697"/>
      <point x="498" y="684"/>
      <point x="494" y="668" type="curve" smooth="yes"/>
      <point x="447" y="467" type="line"/>
      <point x="417" y="482"/>
      <point x="371" y="498"/>
      <point x="315" y="498" type="curve" smooth="yes"/>
      <point x="160" y="498"/>
      <point x="74" y="368"/>
      <point x="44" y="226" type="curve" smooth="yes"/>
      <point x="20" y="116"/>
      <point x="50" y="4"/>
      <point x="168" y="4" type="curve" smooth="yes"/>
      <point x="247" y="4"/>
      <point x="313" y="46"/>
      <point x="356" y="79" type="curve"/>
      <point x="345" y="34" type="line" smooth="yes"/>
      <point x="340" y="17"/>
      <point x="347" y="0"/>
      <point x="366" y="0" type="curve" smooth="yes"/>
      <point x="382" y="0"/>
      <point x="397" y="11"/>
      <point x="400" y="27" type="curve"/>
    </contour>
    <contour>
      <point x="99" y="229" type="curve" smooth="yes"/>
      <point x="118" y="316"/>
      <point x="170" y="444"/>
      <point x="306" y="444" type="curve" smooth="yes"/>
      <point x="365" y="444"/>
      <point x="416" y="416"/>
      <point x="433" y="406" type="curve"/>
      <point x="376" y="161" type="line"/>
      <point x="368" y="130"/>
      <point x="283" y="53"/>
      <point x="179" y="53" type="curve" smooth="yes"/>
      <point x="87" y="53"/>
      <point x="84" y="156"/>
    </contour>
  </outline>
</glyph>
<glyph name="e" format="1">
  <advance width="521"/>
  <unicode hex="0065"/>
  <outline>
    <contour>
      <point x="435" y="90" type="curve" smooth="yes"/>
      <point x="438" y="105"/>
      <point x="429" y="116"/>
      <point x="414" y="116" type="curve" smooth="yes"/>
      <point x="407" y="116"/>
      <point x="400" y="113"/>
      <point x="394" y="108" type="curve" smooth="yes"/>
      <point x="361" y="77"/>
      <point x="298" y="52"/>
      <point x="255" y="52" type="curve" smooth="yes"/>
      <point x="174" y="52"/>
      <point x="122" y="86"/>
      <point x="99" y="155" type="curve"/>
      <point x="456" y="337" type="line" smooth="yes"/>
      <point x="474" y="346"/>
      <point x="482" y="355"/>
      <point x="484" y="366" type="curve" smooth="yes"/>
      <point x="493" y="409"/>
      <point x="455" y="499"/>
      <point x="326" y="499" type="curve" smooth="yes"/>
      <point x="190" y="499"/>
      <point x="75" y="376"/>
      <point x="46" y="238" type="curve" smooth="yes"/>
      <point x="20" y="114"/>
      <point x="92" y="0"/>
      <point x="245" y="0" type="curve" smooth="yes"/>
      <point x="306" y="0"/>
      <point x="380" y="32"/>
      <point x="424" y="72" type="curve" smooth="yes"/>
      <point x="429" y="76"/>
      <point x="433" y="83"/>
    </contour>
    <contour>
      <point x="314" y="446" type="curve" smooth="yes"/>
      <point x="389" y="446"/>
      <point x="424" y="420"/>
      <point x="432" y="373" type="curve"/>
      <point x="92" y="206" type="line"/>
      <point x="93" y="217"/>
      <point x="95" y="226"/>
      <point x="97" y="237" type="curve" smooth="yes"/>
      <point x="122" y="353"/>
      <point x="212" y="446"/>
    </contour>
  </outline>
</glyph>
<glyph name="f" format="1">
  <advance width="371"/>
  <unicode hex="0066"/>
  <outline>
    <contour>
      <point x="95" y="501" type="curve" smooth="yes"/>
      <point x="172" y="501" type="line"/>
      <point x="202" y="644"/>
      <point x="272" y="691"/>
      <point x="413" y="691" type="curve" smooth="yes"/>
      <point x="432.717" y="691"/>
      <point x="447.615" y="686.984"/>
      <point x="447.615" y="671.033" type="curve" smooth="yes"/>
      <point x="447.615" y="669.186"/>
      <point x="447.415" y="667.179"/>
      <point x="447" y="665" type="curve" smooth="yes"/>
      <point x="444" y="651"/>
      <point x="431" y="638"/>
      <point x="414" y="638" type="curve" smooth="yes"/>
      <point x="294" y="638"/>
      <point x="254" y="622"/>
      <point x="228" y="501" type="curve"/>
      <point x="366" y="500" type="line" smooth="yes"/>
      <point x="375.75" y="500"/>
      <point x="385.501" y="491.357"/>
      <point x="385.501" y="479.643" type="curve" smooth="yes"/>
      <point x="385.501" y="478.142"/>
      <point x="385.341" y="476.59"/>
      <point x="385" y="475" type="curve" smooth="yes"/>
      <point x="382" y="461"/>
      <point x="369" y="449"/>
      <point x="355" y="449" type="curve" smooth="yes"/>
      <point x="217" y="449" type="line"/>
      <point x="127" y="26" type="line" smooth="yes"/>
      <point x="124" y="12"/>
      <point x="109" y="0"/>
      <point x="94" y="0" type="curve" smooth="yes"/>
      <point x="79" y="0"/>
      <point x="68" y="12"/>
      <point x="71" y="26" type="curve" smooth="yes"/>
      <point x="161" y="449" type="line"/>
      <point x="86" y="449" type="line" smooth="yes"/>
      <point x="73.6856" y="449"/>
      <point x="64.466" y="458.284"/>
      <point x="64.466" y="470.048" type="curve" smooth="yes"/>
      <point x="64.466" y="471.658"/>
      <point x="64.6388" y="473.314"/>
      <point x="65" y="475" type="curve" smooth="yes"/>
      <point x="68" y="489"/>
      <point x="83" y="501"/>
    </contour>
  </outline>
</glyph>
<glyph name="g" format="1">
  <advance width="521"/>
  <unicode hex="0067"/>
  <outline>
    <contour>
      <point x="25" y="-170" type="curve" smooth="yes"/>
      <point x="55" y="-177"/>
      <point x="97" y="-185"/>
      <point x="145" y="-185" type="curve" smooth="yes"/>
      <point x="262" y="-185"/>
      <point x="361" y="-122"/>
      <point x="394" y="19" type="curve" smooth="yes"/>
      <point x="503" y="482" type="line"/>
      <point x="506" y="498"/>
      <point x="496" y="511"/>
      <point x="481" y="511" type="curve" smooth="yes"/>
      <point x="457" y="511"/>
      <point x="448" y="492"/>
      <point x="443" y="468" type="curve"/>
      <point x="420" y="483"/>
      <point x="386" y="500"/>
      <point x="339" y="500" type="curve" smooth="yes"/>
      <point x="204" y="500"/>
      <point x="75" y="374"/>
      <point x="47" y="241" type="curve" smooth="yes"/>
      <point x="18" y="105"/>
      <point x="78" y="-1"/>
      <point x="193" y="-1" type="curve"/>
      <point x="251" y="1"/>
      <point x="306" y="29"/>
      <point x="352" y="78" type="curve"/>
      <point x="338" y="23" type="line" smooth="yes"/>
      <point x="316" y="-69"/>
      <point x="265" y="-129"/>
      <point x="156" y="-129" type="curve" smooth="yes"/>
      <point x="80" y="-129"/>
      <point x="62" y="-115"/>
      <point x="43" y="-115" type="curve" smooth="yes"/>
      <point x="28" y="-115"/>
      <point x="13" y="-127"/>
      <point x="9" y="-143" type="curve" smooth="yes"/>
      <point x="6" y="-156"/>
      <point x="13" y="-167"/>
    </contour>
    <contour>
      <point x="396" y="267" type="line" smooth="yes"/>
      <point x="361" y="102"/>
      <point x="266" y="52"/>
      <point x="197" y="52" type="curve" smooth="yes"/>
      <point x="96" y="52"/>
      <point x="81" y="165"/>
      <point x="96" y="237" type="curve" smooth="yes"/>
      <point x="121" y="356"/>
      <point x="226" y="445"/>
      <point x="331" y="445" type="curve" smooth="yes"/>
      <point x="370" y="445"/>
      <point x="409" y="431"/>
      <point x="427" y="412" type="curve"/>
    </contour>
  </outline>
</glyph>
<glyph name="h" format="1">
  <advance width="503"/>
  <unicode hex="0068"/>
  <outline>
    <contour>
      <point x="400" y="27" type="curve"/>
      <point x="396" y="12"/>
      <point x="383" y="0"/>
      <point x="368" y="0" type="curve" smooth="yes"/>
      <point x="356.367" y="-1.77636e-15"/>
      <point x="345.535" y="9.60885"/>
      <point x="345.535" y="22.3778" type="curve" smooth="yes"/>
      <point x="345.535" y="42.1614"/>
      <point x="361.343" y="90.9669"/>
      <point x="375" y="154" type="curve" smooth="yes"/>
      <point x="395.301" y="248.619"/>
      <point x="403.117" y="313.141"/>
      <point x="403.117" y="356.954" type="curve" smooth="yes"/>
      <point x="403.117" y="433.996"/>
      <point x="378.949" y="447"/>
      <point x="356" y="447" type="curve" smooth="yes"/>
      <point x="271" y="447"/>
      <point x="164" y="316"/>
      <point x="140" y="282" type="curve" smooth="yes"/>
      <point x="123" y="257"/>
      <point x="114" y="227"/>
      <point x="107" y="193" type="curve" smooth="yes"/>
      <point x="72" y="29" type="line" smooth="yes"/>
      <point x="68" y="10"/>
      <point x="52" y="-1"/>
      <point x="37" y="-1" type="curve" smooth="yes"/>
      <point x="23.797" y="-1"/>
      <point x="14.4678" y="9.07176"/>
      <point x="14.4678" y="21.714" type="curve" smooth="yes"/>
      <point x="14.4678" y="23.4347"/>
      <point x="14.6406" y="25.203"/>
      <point x="15" y="27" type="curve" smooth="yes"/>
      <point x="150" y="661" type="line" smooth="yes"/>
      <point x="153" y="676"/>
      <point x="168" y="690"/>
      <point x="184" y="690" type="curve" smooth="yes"/>
      <point x="198.652" y="690"/>
      <point x="206.619" y="679.6"/>
      <point x="206.619" y="667.123" type="curve" smooth="yes"/>
      <point x="206.619" y="665.124"/>
      <point x="206.414" y="663.071"/>
      <point x="206" y="661" type="curve" smooth="yes"/>
      <point x="137" y="336" type="line"/>
      <point x="190" y="416"/>
      <point x="289" y="502"/>
      <point x="372" y="502" type="curve" smooth="yes"/>
      <point x="433.441" y="502"/>
      <point x="460.217" y="458.092"/>
      <point x="460.217" y="370.753" type="curve" smooth="yes"/>
      <point x="460.217" y="317.362"/>
      <point x="450.211" y="247.742"/>
      <point x="432" y="162" type="curve" smooth="yes"/>
      <point x="418" y="96"/>
      <point x="410" y="57"/>
    </contour>
  </outline>
</glyph>
<glyph name="j" format="1">
  <advance width="333"/>
  <unicode hex="006A"/>
  <outline>
    <contour>
      <point x="303" y="474" type="curve" smooth="yes"/>
      <point x="306" y="489"/>
      <point x="296" y="502"/>
      <point x="281" y="502" type="curve" smooth="yes"/>
      <point x="264" y="502"/>
      <point x="250" y="489"/>
      <point x="247" y="473" type="curve" smooth="yes"/>
      <point x="240" y="440"/>
      <point x="158" y="21"/>
      <point x="152" y="-7" type="curve" smooth="yes"/>
      <point x="148" y="-28"/>
      <point x="123" y="-130"/>
      <point x="61" y="-130" type="curve" smooth="yes"/>
      <point x="14" y="-130"/>
      <point x="-7" y="-66"/>
      <point x="-14" y="-21" type="curve"/>
      <point x="-15" y="-9"/>
      <point x="-25" y="-1"/>
      <point x="-37" y="-1" type="curve" smooth="yes"/>
      <point x="-54" y="-1"/>
      <point x="-67" y="-14"/>
      <point x="-70" y="-28" type="curve" smooth="yes"/>
      <point x="-71" y="-31"/>
      <point x="-71" y="-35"/>
      <point x="-71" y="-38" type="curve" smooth="yes"/>
      <point x="-68" y="-58"/>
      <point x="-47" y="-181"/>
      <point x="50" y="-181" type="curve" smooth="yes"/>
      <point x="150" y="-181"/>
      <point x="194" y="-66"/>
      <point x="208" y="-2" type="curve" smooth="yes"/>
      <point x="214" y="28"/>
      <point x="299" y="454"/>
    </contour>
    <contour>
      <point x="331" y="690" type="curve" smooth="yes"/>
      <point x="318" y="690"/>
      <point x="302" y="681"/>
      <point x="298" y="668" type="curve" smooth="yes"/>
      <point x="283" y="620" type="line" smooth="yes"/>
      <point x="280" y="608"/>
      <point x="289" y="593"/>
      <point x="304" y="593" type="curve" smooth="yes"/>
      <point x="317" y="593"/>
      <point x="332" y="602"/>
      <point x="337" y="615" type="curve" smooth="yes"/>
      <point x="351" y="658" type="line" smooth="yes"/>
      <point x="356" y="672"/>
      <point x="349" y="690"/>
    </contour>
  </outline>
</glyph>
<glyph name="l" format="1">
  <advance width="226"/>
  <unicode hex="006C"/>
  <outline>
    <contour>
      <point x="226" y="663" type="line"/>
      <point x="230" y="678"/>
      <point x="219" y="690"/>
      <point x="204" y="690" type="curve" smooth="yes"/>
      <point x="188" y="690"/>
      <point x="174" y="678"/>
      <point x="170" y="663" type="curve"/>
      <point x="35" y="25" type="line" smooth="yes"/>
      <point x="32" y="11"/>
      <point x="44" y="0"/>
      <point x="58" y="0" type="curve" smooth="yes"/>
      <point x="72" y="0"/>
      <point x="88" y="11"/>
      <point x="91" y="25" type="curve" smooth="yes"/>
    </contour>
  </outline>
</glyph>
<glyph name="m" format="1">
  <advance width="813"/>
  <unicode hex="006D"/>
  <outline>
    <contour>
      <point x="665" y="511" type="curve" smooth="yes"/>
      <point x="611" y="511"/>
      <point x="531" y="468"/>
      <point x="470" y="401" type="curve"/>
      <point x="469" y="490"/>
      <point x="415" y="511"/>
      <point x="365" y="511" type="curve" smooth="yes"/>
      <point x="297" y="511"/>
      <point x="211" y="436"/>
      <point x="142" y="362" type="curve"/>
      <point x="166" y="471" type="line" smooth="yes"/>
      <point x="169" y="486"/>
      <point x="160" y="499"/>
      <point x="144" y="499" type="curve" smooth="yes"/>
      <point x="129" y="499"/>
      <point x="113" y="486"/>
      <point x="110" y="471" type="curve" smooth="yes"/>
      <point x="15" y="27" type="line" smooth="yes"/>
      <point x="12" y="12"/>
      <point x="23" y="0"/>
      <point x="38" y="0" type="curve" smooth="yes"/>
      <point x="53" y="0"/>
      <point x="68" y="12"/>
      <point x="71" y="27" type="curve" smooth="yes"/>
      <point x="122" y="265" type="line"/>
      <point x="126" y="278"/>
      <point x="135" y="297"/>
      <point x="143" y="307" type="curve" smooth="yes"/>
      <point x="232" y="415"/>
      <point x="313" y="462"/>
      <point x="355" y="462" type="curve" smooth="yes"/>
      <point x="389" y="462"/>
      <point x="431" y="449"/>
      <point x="406" y="334" type="curve" smooth="yes"/>
      <point x="341" y="27" type="line" smooth="yes"/>
      <point x="338" y="12"/>
      <point x="349" y="0"/>
      <point x="364" y="0" type="curve" smooth="yes"/>
      <point x="380" y="0"/>
      <point x="394" y="12"/>
      <point x="397" y="27" type="curve" smooth="yes"/>
      <point x="452" y="283" type="line" smooth="yes"/>
      <point x="476" y="396"/>
      <point x="600" y="462"/>
      <point x="655" y="462" type="curve" smooth="yes"/>
      <point x="689" y="462"/>
      <point x="732" y="449"/>
      <point x="707" y="334" type="curve" smooth="yes"/>
      <point x="642" y="27" type="line" smooth="yes"/>
      <point x="639" y="12"/>
      <point x="650" y="0"/>
      <point x="665" y="0" type="curve" smooth="yes"/>
      <point x="680" y="0"/>
      <point x="695" y="12"/>
      <point x="698" y="27" type="curve" smooth="yes"/>
      <point x="762" y="327" type="line" smooth="yes"/>
      <point x="794" y="479"/>
      <point x="727" y="511"/>
    </contour>
  </outline>
</glyph>
<glyph name="o" format="1">
  <advance width="535"/>
  <unicode hex="006F"/>
  <outline>
    <contour>
      <point x="197" y="0" type="curve" smooth="yes"/>
      <point x="323" y="0"/>
      <point x="456" y="123"/>
      <point x="487" y="270" type="curve" smooth="yes"/>
      <point x="513" y="394"/>
      <point x="448" y="500"/>
      <point x="334" y="500" type="curve" smooth="yes"/>
      <point x="208" y="500"/>
      <point x="74" y="376"/>
      <point x="43" y="230" type="curve" smooth="yes"/>
      <point x="17" y="104"/>
      <point x="82" y="0"/>
    </contour>
    <contour>
      <point x="319" y="452" type="curve" smooth="yes"/>
      <point x="402" y="452"/>
      <point x="449" y="365"/>
      <point x="428" y="265" type="curve" smooth="yes"/>
      <point x="403" y="149"/>
      <point x="298" y="48"/>
      <point x="207" y="48" type="curve" smooth="yes"/>
      <point x="120" y="48"/>
      <point x="80" y="133"/>
      <point x="101" y="232" type="curve" smooth="yes"/>
      <point x="126" y="349"/>
      <point x="226" y="452"/>
    </contour>
  </outline>
</glyph>
<glyph name="r" format="1">
  <advance width="416"/>
  <unicode hex="0072"/>
  <outline>
    <contour>
      <point x="410" y="422" type="line" smooth="yes"/>
      <point x="418" y="458"/>
      <point x="409" y="502"/>
      <point x="346" y="502" type="curve" smooth="yes"/>
      <point x="258" y="502"/>
      <point x="188" y="430"/>
      <point x="146" y="376" type="curve"/>
      <point x="167" y="472" type="line" smooth="yes"/>
      <point x="170" y="487"/>
      <point x="160" y="499"/>
      <point x="144" y="499" type="curve" smooth="yes"/>
      <point x="129" y="499"/>
      <point x="113" y="487"/>
      <point x="110" y="472" type="curve" smooth="yes"/>
      <point x="15" y="26" type="line" smooth="yes"/>
      <point x="12" y="12"/>
      <point x="24" y="0"/>
      <point x="38" y="0" type="curve" smooth="yes"/>
      <point x="53" y="0"/>
      <point x="68" y="12"/>
      <point x="71" y="26" type="curve" smooth="yes"/>
      <point x="120" y="253" type="line" smooth="yes"/>
      <point x="127" y="285"/>
      <point x="152" y="332"/>
      <point x="176" y="357" type="curve" smooth="yes"/>
      <point x="224" y="407"/>
      <point x="278" y="447"/>
      <point x="326" y="447" type="curve" smooth="yes"/>
      <point x="355" y="447"/>
      <point x="358" y="432"/>
      <point x="355" y="415" type="curve"/>
      <point x="349" y="390" type="line"/>
      <point x="347" y="377"/>
      <point x="349" y="362"/>
      <point x="369" y="362" type="curve" smooth="yes"/>
      <point x="385" y="362"/>
      <point x="400" y="374"/>
      <point x="403" y="389" type="curve" smooth="yes"/>
    </contour>
  </outline>
</glyph>
<glyph name="v" format="1">
  <advance width="436"/>
  <unicode hex="0076"/>
  <outline>
    <contour>
      <point x="465" y="460" type="line" smooth="yes"/>
      <point x="467" y="463"/>
      <point x="470" y="467"/>
      <point x="471" y="472" type="curve" smooth="yes"/>
      <point x="474" y="487"/>
      <point x="464" y="500"/>
      <point x="449" y="500" type="curve" smooth="yes"/>
      <point x="437" y="500"/>
      <point x="425" y="493"/>
      <point x="419" y="483" type="curve" smooth="yes"/>
      <point x="182" y="94" type="line"/>
      <point x="112" y="480" type="line"/>
      <point x="109" y="492"/>
      <point x="103" y="499"/>
      <point x="90" y="499" type="curve" smooth="yes"/>
      <point x="74" y="499"/>
      <point x="58" y="487"/>
      <point x="55" y="471" type="curve" smooth="yes"/>
      <point x="54" y="468"/>
      <point x="54" y="465"/>
      <point x="55" y="462" type="curve" smooth="yes"/>
      <point x="141" y="19" type="line"/>
      <point x="142" y="8"/>
      <point x="150" y="-1"/>
      <point x="162" y="-1" type="curve" smooth="yes"/>
      <point x="175" y="-1"/>
      <point x="185" y="6"/>
      <point x="192" y="17" type="curve" smooth="yes"/>
    </contour>
  </outline>
</glyph>
<glyph name="w" format="1">
  <advance width="594"/>
  <unicode hex="0077"/>
  <outline>
    <contour>
      <point x="629" y="471" type="curve" smooth="yes"/>
      <point x="628" y="468"/>
      <point x="626" y="465"/>
      <point x="625" y="462" type="curve" smooth="yes"/>
      <point x="390" y="22" type="line" smooth="yes"/>
      <point x="383" y="9"/>
      <point x="373" y="0"/>
      <point x="359" y="0" type="curve" smooth="yes"/>
      <point x="346" y="0"/>
      <point x="336" y="9"/>
      <point x="336" y="22" type="curve" smooth="yes"/>
      <point x="321" y="391" type="line"/>
      <point x="108" y="21" type="line" smooth="yes"/>
      <point x="101" y="9"/>
      <point x="90" y="0"/>
      <point x="78" y="0" type="curve" smooth="yes"/>
      <point x="64" y="0"/>
      <point x="54" y="11"/>
      <point x="54" y="24" type="curve" smooth="yes"/>
      <point x="54" y="458" type="line" smooth="yes"/>
      <point x="54" y="462"/>
      <point x="54" y="469"/>
      <point x="55" y="472" type="curve" smooth="yes"/>
      <point x="58" y="487"/>
      <point x="73" y="500"/>
      <point x="88" y="500" type="curve" smooth="yes"/>
      <point x="103" y="500"/>
      <point x="111" y="490"/>
      <point x="111" y="476" type="curve" smooth="yes"/>
      <point x="105" y="104" type="line"/>
      <point x="314" y="479" type="line" smooth="yes"/>
      <point x="319" y="489"/>
      <point x="334" y="500"/>
      <point x="348" y="500" type="curve" smooth="yes"/>
      <point x="362" y="500"/>
      <point x="371" y="487"/>
      <point x="371" y="474" type="curve" smooth="yes"/>
      <point x="382" y="99" type="line"/>
      <point x="575" y="477" type="line"/>
      <point x="580" y="489"/>
      <point x="594" y="499"/>
      <point x="607" y="499" type="curve" smooth="yes"/>
      <point x="620.203" y="499"/>
      <point x="629.532" y="488.928"/>
      <point x="629.532" y="476.286" type="curve" smooth="yes"/>
      <point x="629.532" y="474.565"/>
      <point x="629.359" y="472.797"/>
    </contour>
  </outline>
</glyph>
<glyph name="x" format="1">
  <advance width="510"/>
  <unicode hex="0078"/>
  <outline>
    <contour>
      <point x="531" y="451" type="curve"/>
      <point x="298" y="255" type="line"/>
      <point x="428" y="45" type="line" smooth="yes"/>
      <point x="431" y="40"/>
      <point x="432" y="34"/>
      <point x="430" y="28" type="curve"/>
      <point x="427" y="12"/>
      <point x="412" y="0"/>
      <point x="397" y="0" type="curve" smooth="yes"/>
      <point x="390" y="0"/>
      <point x="382" y="2"/>
      <point x="378" y="8" type="curve" smooth="yes"/>
      <point x="250" y="220" type="line"/>
      <point x="4" y="9" type="line" smooth="yes"/>
      <point x="-3" y="3"/>
      <point x="-10" y="1"/>
      <point x="-17" y="1" type="curve" smooth="yes"/>
      <point x="-29.7485" y="1"/>
      <point x="-38.8854" y="10.3903"/>
      <point x="-38.8854" y="22.4179" type="curve" smooth="yes"/>
      <point x="-38.8854" y="24.5421"/>
      <point x="-38.6004" y="26.7485"/>
      <point x="-38" y="29" type="curve" smooth="yes"/>
      <point x="-37" y="36"/>
      <point x="-33" y="43"/>
      <point x="-26" y="49" type="curve" smooth="yes"/>
      <point x="222" y="258" type="line"/>
      <point x="101" y="452" type="line" smooth="yes"/>
      <point x="97" y="458"/>
      <point x="95" y="465"/>
      <point x="97" y="472" type="curve" smooth="yes"/>
      <point x="100" y="487"/>
      <point x="115" y="500"/>
      <point x="130" y="500" type="curve" smooth="yes"/>
      <point x="137" y="500"/>
      <point x="145" y="499"/>
      <point x="148" y="492" type="curve"/>
      <point x="269" y="293" type="line"/>
      <point x="500" y="490" type="line" smooth="yes"/>
      <point x="506" y="495"/>
      <point x="514" y="498"/>
      <point x="521" y="498" type="curve" smooth="yes"/>
      <point x="533.891" y="498"/>
      <point x="543.828" y="488.398"/>
      <point x="543.828" y="476.177" type="curve" smooth="yes"/>
      <point x="543.828" y="474.178"/>
      <point x="543.562" y="472.109"/>
      <point x="543" y="470" type="curve" smooth="yes"/>
      <point x="542" y="463"/>
      <point x="537" y="456"/>
    </contour>
  </outline>
</glyph>
<glyph name="y" format="1">
  <advance width="489"/>
  <unicode hex="0079"/>
  <outline>
    <contour>
      <point x="509" y="461" type="line" smooth="yes"/>
      <point x="512" y="465"/>
      <point x="513" y="469"/>
      <point x="514" y="473" type="curve" smooth="yes"/>
      <point x="517" y="489"/>
      <point x="507" y="501"/>
      <point x="492" y="501" type="curve" smooth="yes"/>
      <point x="479" y="501"/>
      <point x="467" y="493"/>
      <point x="461" y="483" type="curve" smooth="yes"/>
      <point x="222" y="127" type="line"/>
      <point x="122" y="481" type="line" smooth="yes"/>
      <point x="119" y="491"/>
      <point x="111" y="500"/>
      <point x="99" y="500" type="curve" smooth="yes"/>
      <point x="83" y="500"/>
      <point x="68" y="487"/>
      <point x="65" y="471" type="curve" smooth="yes"/>
      <point x="64" y="466"/>
      <point x="64" y="460"/>
      <point x="65" y="456" type="curve" smooth="yes"/>
      <point x="177" y="61" type="line"/>
      <point x="32" y="-156" type="line" smooth="yes"/>
      <point x="29" y="-160"/>
      <point x="28" y="-164"/>
      <point x="27" y="-168" type="curve" smooth="yes"/>
      <point x="23" y="-184"/>
      <point x="34" y="-197"/>
      <point x="49" y="-197" type="curve" smooth="yes"/>
      <point x="62" y="-197"/>
      <point x="73" y="-189"/>
      <point x="79" y="-179" type="curve" smooth="yes"/>
    </contour>
  </outline>
</glyph>
<glyph name="z" format="1">
  <advance width="509"/>
  <unicode hex="007A"/>
  <outline>
    <contour>
      <point x="409" y="28" type="curve" smooth="yes"/>
      <point x="413" y="43"/>
      <point x="402" y="56"/>
      <point x="387" y="56" type="curve" smooth="yes"/>
      <point x="87" y="56" type="line"/>
      <point x="489" y="456" type="line" smooth="yes"/>
      <point x="496" y="462"/>
      <point x="498" y="466"/>
      <point x="499" y="473" type="curve" smooth="yes"/>
      <point x="502" y="488"/>
      <point x="492" y="501"/>
      <point x="477" y="501" type="curve" smooth="yes"/>
      <point x="140" y="501" type="line" smooth="yes"/>
      <point x="124" y="501"/>
      <point x="109" y="488"/>
      <point x="106" y="473" type="curve" smooth="yes"/>
      <point x="103" y="457"/>
      <point x="112" y="445"/>
      <point x="128" y="445" type="curve" smooth="yes"/>
      <point x="412" y="445" type="line"/>
      <point x="10" y="45" type="line" smooth="yes"/>
      <point x="5" y="40"/>
      <point x="2" y="35"/>
      <point x="0" y="28" type="curve" smooth="yes"/>
      <point x="-3" y="13"/>
      <point x="8" y="0"/>
      <point x="23" y="0" type="curve" smooth="yes"/>
      <point x="376" y="0" type="line" smooth="yes"/>
      <point x="391" y="0"/>
      <point x="406" y="13"/>
    </contour>
  </outline>
</glyph>
<glyph name="braceleft" format="1">
  <advance width="376"/>
  <unicode hex="007B"/>
  <outline>
    <contour>
      <point x="186" y="226" type="line"/>
      <point x="197" y="282"/>
      <point x="181" y="325"/>
      <point x="153" y="350" type="curve"/>
      <point x="194" y="378"/>
      <point x="227" y="419"/>
      <point x="238" y="474" type="curve" smooth="yes"/>
      <point x="278" y="662" type="line" smooth="yes"/>
      <point x="292" y="727"/>
      <point x="357" y="748"/>
      <point x="394" y="754" type="curve" smooth="yes"/>
      <point x="412" y="757"/>
      <point x="423" y="767"/>
      <point x="426" y="781" type="curve" smooth="yes"/>
      <point x="428" y="795"/>
      <point x="419" y="811"/>
      <point x="399" y="808" type="curve" smooth="yes"/>
      <point x="335" y="798"/>
      <point x="245" y="758"/>
      <point x="224" y="662" type="curve" smooth="yes"/>
      <point x="184" y="473" type="line" smooth="yes"/>
      <point x="175" y="432"/>
      <point x="155" y="401"/>
      <point x="95" y="374" type="curve" smooth="yes"/>
      <point x="81" y="368"/>
      <point x="76" y="364"/>
      <point x="73" y="350" type="curve" smooth="yes"/>
      <point x="71" y="341"/>
      <point x="74" y="330"/>
      <point x="86" y="325" type="curve" smooth="yes"/>
      <point x="120" y="311"/>
      <point x="143" y="278"/>
      <point x="132" y="227" type="curve" smooth="yes"/>
      <point x="88" y="22" type="line" smooth="yes"/>
      <point x="68" y="-73"/>
      <point x="138" y="-111"/>
      <point x="196" y="-123" type="curve" smooth="yes"/>
      <point x="217" y="-127"/>
      <point x="235" y="-116"/>
      <point x="239" y="-97" type="curve" smooth="yes"/>
      <point x="242" y="-83"/>
      <point x="234" y="-72"/>
      <point x="219" y="-70" type="curve"/>
      <point x="185" y="-63"/>
      <point x="128" y="-43"/>
      <point x="142" y="22" type="curve" smooth="yes"/>
    </contour>
  </outline>
</glyph>
<glyph name="braceright" format="1">
  <advance width="376"/>
  <unicode hex="007D"/>
  <outline>
    <contour>
      <point x="218" y="458" type="line" smooth="yes"/>
      <point x="206" y="400"/>
      <point x="223" y="359"/>
      <point x="250" y="334" type="curve"/>
      <point x="210" y="306"/>
      <point x="177" y="265"/>
      <point x="165" y="210" type="curve" smooth="yes"/>
      <point x="125" y="22" type="line" smooth="yes"/>
      <point x="111" y="-43"/>
      <point x="46" y="-64"/>
      <point x="10" y="-70" type="curve" smooth="yes"/>
      <point x="-9" y="-73"/>
      <point x="-19" y="-83"/>
      <point x="-22" y="-97" type="curve" smooth="yes"/>
      <point x="-25" y="-111"/>
      <point x="-15" y="-127"/>
      <point x="4" y="-124" type="curve" smooth="yes"/>
      <point x="68" y="-114"/>
      <point x="159" y="-74"/>
      <point x="179" y="22" type="curve" smooth="yes"/>
      <point x="219" y="211" type="line" smooth="yes"/>
      <point x="228" y="252"/>
      <point x="249" y="283"/>
      <point x="308" y="310" type="curve" smooth="yes"/>
      <point x="323" y="316"/>
      <point x="328" y="320"/>
      <point x="330" y="334" type="curve" smooth="yes"/>
      <point x="332" y="343"/>
      <point x="330" y="354"/>
      <point x="318" y="359" type="curve" smooth="yes"/>
      <point x="284" y="373"/>
      <point x="261" y="406"/>
      <point x="272" y="457" type="curve" smooth="yes"/>
      <point x="315" y="662" type="line" smooth="yes"/>
      <point x="335" y="757"/>
      <point x="265" y="795"/>
      <point x="207" y="807" type="curve" smooth="yes"/>
      <point x="187" y="811"/>
      <point x="169" y="800"/>
      <point x="165" y="781" type="curve" smooth="yes"/>
      <point x="162" y="767"/>
      <point x="169" y="756"/>
      <point x="185" y="754" type="curve"/>
      <point x="218" y="747"/>
      <point x="275" y="727"/>
      <point x="261" y="662" type="curve" smooth="yes"/>
    </contour>
  </outline>
</glyph>
<glyph name="asciitilde" format="1">
  <advance width="640"/>
  <unicode hex="007E"/>
  <outline>
    <contour>
      <point x="575" y="291" type="curve" smooth="yes"/>
      <point x="548" y="243"/>
      <point x="483" y="150"/>
      <point x="394" y="150" type="curve" smooth="yes"/>
      <point x="332" y="150"/>
      <point x="309" y="195"/>
      <point x="288" y="236" type="curve" smooth="yes"/>
      <point x="268" y="275"/>
      <point x="253" y="298"/>
      <point x="221" y="298" type="curve" smooth="yes"/>
      <point x="169" y="298"/>
      <point x="125" y="242"/>
      <point x="106" y="204" type="curve"/>
      <point x="99" y="192"/>
      <point x="89" y="184"/>
      <point x="76" y="184" type="curve" smooth="yes"/>
      <point x="62.797" y="184"/>
      <point x="53.4678" y="193.297"/>
      <point x="53.4678" y="205.754" type="curve" smooth="yes"/>
      <point x="53.4678" y="207.449"/>
      <point x="53.6406" y="209.203"/>
      <point x="54" y="211" type="curve" smooth="yes"/>
      <point x="55" y="214"/>
      <point x="57" y="218"/>
      <point x="60" y="224" type="curve" smooth="yes"/>
      <point x="100" y="293"/>
      <point x="157" y="352"/>
      <point x="232" y="352" type="curve" smooth="yes"/>
      <point x="294" y="352"/>
      <point x="318" y="307"/>
      <point x="338" y="267" type="curve"/>
      <point x="359" y="228"/>
      <point x="374" y="204"/>
      <point x="406" y="204" type="curve" smooth="yes"/>
      <point x="460" y="204"/>
      <point x="506" y="271"/>
      <point x="528" y="308" type="curve" smooth="yes"/>
      <point x="538" y="325"/>
      <point x="549" y="333"/>
      <point x="560" y="333" type="curve" smooth="yes"/>
      <point x="573.203" y="333"/>
      <point x="582.532" y="323.703"/>
      <point x="582.532" y="311.246" type="curve" smooth="yes"/>
      <point x="582.532" y="309.551"/>
      <point x="582.359" y="307.797"/>
      <point x="582" y="306" type="curve" smooth="yes"/>
      <point x="581" y="303"/>
      <point x="580" y="299"/>
    </contour>
  </outline>
</glyph>
<glyph name="exclamdown" format="1">
  <advance width="196"/>
  <unicode hex="00A1"/>
  <outline>
    <contour>
      <point x="126" y="315" type="line" smooth="yes"/>
      <point x="130" y="331"/>
      <point x="120" y="344"/>
      <point x="104" y="344" type="curve" smooth="yes"/>
      <point x="88" y="344"/>
      <point x="72" y="331"/>
      <point x="68" y="315" type="curve" smooth="yes"/>
      <point x="-35" y="-167" type="line" smooth="yes"/>
      <point x="-38" y="-183"/>
      <point x="-28" y="-197"/>
      <point x="-12" y="-197" type="curve" smooth="yes"/>
      <point x="4" y="-197"/>
      <point x="20" y="-183"/>
      <point x="23" y="-167" type="curve" smooth="yes"/>
    </contour>
    <contour>
      <point x="95" y="449" type="curve" smooth="yes"/>
      <point x="91" y="430"/>
      <point x="100" y="413"/>
      <point x="119" y="413" type="curve" smooth="yes"/>
      <point x="140" y="413"/>
      <point x="164" y="435"/>
      <point x="169" y="459" type="curve" smooth="yes"/>
      <point x="174" y="480"/>
      <point x="164" y="496"/>
      <point x="145" y="496" type="curve" smooth="yes"/>
      <point x="125" y="496"/>
      <point x="101" y="476"/>
    </contour>
  </outline>
</glyph>
<glyph name="cent" format="1">
  <advance width="556"/>
  <unicode hex="00A2"/>
  <outline>
    <contour>
      <point x="450" y="238" type="curve" smooth="yes"/>
      <point x="436" y="238"/>
      <point x="425" y="225"/>
      <point x="421" y="221" type="curve" smooth="yes"/>
      <point x="383" y="180"/>
      <point x="332" y="154"/>
      <point x="277" y="151" type="curve"/>
      <point x="371" y="546" type="line"/>
      <point x="408" y="543"/>
      <point x="438" y="524"/>
      <point x="454" y="492" type="curve"/>
      <point x="458" y="486"/>
      <point x="464" y="483"/>
      <point x="473" y="483" type="curve" smooth="yes"/>
      <point x="488" y="483"/>
      <point x="503" y="495"/>
      <point x="506" y="510" type="curve" smooth="yes"/>
      <point x="513" y="545"/>
      <point x="439" y="600"/>
      <point x="384" y="598" type="curve"/>
      <point x="400" y="665" type="line" smooth="yes"/>
      <point x="403" y="678"/>
      <point x="394" y="691"/>
      <point x="380" y="691" type="curve" smooth="yes"/>
      <point x="367" y="691"/>
      <point x="353" y="680"/>
      <point x="350" y="666" type="curve" smooth="yes"/>
      <point x="333" y="595" type="line"/>
      <point x="206" y="558"/>
      <point x="109" y="428"/>
      <point x="85" y="314" type="curve" smooth="yes"/>
      <point x="71" y="249"/>
      <point x="79" y="138"/>
      <point x="214" y="103" type="curve"/>
      <point x="196" y="26" type="line" smooth="yes"/>
      <point x="193" y="12"/>
      <point x="202" y="0"/>
      <point x="216" y="0" type="curve" smooth="yes"/>
      <point x="230" y="0"/>
      <point x="243" y="11"/>
      <point x="246" y="24" type="curve" smooth="yes"/>
      <point x="264" y="99" type="line"/>
      <point x="338" y="99"/>
      <point x="411" y="139"/>
      <point x="460" y="192" type="curve" smooth="yes"/>
      <point x="466" y="198"/>
      <point x="470" y="203"/>
      <point x="471" y="210" type="curve" smooth="yes"/>
      <point x="474" y="225"/>
      <point x="465" y="238"/>
    </contour>
    <contour>
      <point x="139" y="316" type="curve" smooth="yes"/>
      <point x="150" y="369"/>
      <point x="205" y="488"/>
      <point x="319" y="540" type="curve"/>
      <point x="228" y="156" type="line"/>
      <point x="159" y="179"/>
      <point x="123" y="242"/>
    </contour>
  </outline>
</glyph>
<glyph name="sterling" format="1">
  <advance width="744"/>
  <unicode hex="00A3"/>
  <outline>
    <contour>
      <point x="633" y="157" type="curve" smooth="yes"/>
      <point x="620" y="157"/>
      <point x="607" y="148"/>
      <point x="599" y="130" type="curve" smooth="yes"/>
      <point x="574" y="72"/>
      <point x="532" y="44"/>
      <point x="480" y="44" type="curve" smooth="yes"/>
      <point x="439" y="44"/>
      <point x="394" y="61"/>
      <point x="359" y="94" type="curve" smooth="yes"/>
      <point x="337" y="114"/>
      <point x="308" y="125"/>
      <point x="275" y="125" type="curve" smooth="yes"/>
      <point x="258" y="125"/>
      <point x="240" y="122"/>
      <point x="221" y="117" type="curve"/>
      <point x="241" y="145"/>
      <point x="254" y="183"/>
      <point x="260" y="211" type="curve" smooth="yes"/>
      <point x="269" y="252"/>
      <point x="261" y="291"/>
      <point x="261" y="327" type="curve"/>
      <point x="487" y="327" type="line" smooth="yes"/>
      <point x="502" y="327"/>
      <point x="517" y="340"/>
      <point x="520" y="354" type="curve" smooth="yes"/>
      <point x="523" y="369"/>
      <point x="513" y="381"/>
      <point x="498" y="381" type="curve" smooth="yes"/>
      <point x="262" y="381" type="line"/>
      <point x="263" y="418"/>
      <point x="268" y="452"/>
      <point x="274" y="482" type="curve" smooth="yes"/>
      <point x="302" y="615"/>
      <point x="372" y="672"/>
      <point x="513" y="672" type="curve" smooth="yes"/>
      <point x="588" y="672"/>
      <point x="634" y="622"/>
      <point x="632" y="537" type="curve" smooth="yes"/>
      <point x="631" y="520"/>
      <point x="640" y="510"/>
      <point x="654" y="510" type="curve" smooth="yes"/>
      <point x="675" y="510"/>
      <point x="688" y="527"/>
      <point x="687" y="547" type="curve" smooth="yes"/>
      <point x="685" y="625"/>
      <point x="656" y="726"/>
      <point x="525" y="726" type="curve" smooth="yes"/>
      <point x="355" y="726"/>
      <point x="254" y="644"/>
      <point x="220" y="482" type="curve" smooth="yes"/>
      <point x="213" y="451"/>
      <point x="209" y="417"/>
      <point x="207" y="381" type="curve"/>
      <point x="116" y="381" type="line" smooth="yes"/>
      <point x="101" y="381"/>
      <point x="87" y="369"/>
      <point x="84" y="354" type="curve" smooth="yes"/>
      <point x="81" y="340"/>
      <point x="90" y="327"/>
      <point x="105" y="327" type="curve" smooth="yes"/>
      <point x="206" y="327" type="line"/>
      <point x="207" y="294"/>
      <point x="214" y="249"/>
      <point x="206" y="211" type="curve" smooth="yes"/>
      <point x="195" y="159"/>
      <point x="155" y="91"/>
      <point x="92" y="49" type="curve" smooth="yes"/>
      <point x="84" y="44"/>
      <point x="78" y="36"/>
      <point x="76" y="27" type="curve" smooth="yes"/>
      <point x="73" y="12"/>
      <point x="83" y="0"/>
      <point x="98" y="0" type="curve" smooth="yes"/>
      <point x="117" y="0"/>
      <point x="188" y="71"/>
      <point x="264" y="71" type="curve" smooth="yes"/>
      <point x="283" y="71"/>
      <point x="301" y="65"/>
      <point x="317" y="51" type="curve" smooth="yes"/>
      <point x="362" y="11"/>
      <point x="416" y="-10"/>
      <point x="468" y="-10" type="curve" smooth="yes"/>
      <point x="514" y="-10"/>
      <point x="599" y="7"/>
      <point x="650" y="119" type="curve" smooth="yes"/>
      <point x="659" y="138"/>
      <point x="653" y="157"/>
    </contour>
  </outline>
</glyph>
<glyph name="currency" format="1">
  <advance width="517"/>
  <unicode hex="00A4"/>
  <outline>
    <contour>
      <point x="368" y="159" type="line"/>
      <point x="392" y="185"/>
      <point x="410" y="217"/>
      <point x="417" y="251" type="curve" smooth="yes"/>
      <point x="424" y="286"/>
      <point x="419" y="319"/>
      <point x="406" y="345" type="curve"/>
      <point x="493" y="418" type="line" smooth="yes"/>
      <point x="499" y="423"/>
      <point x="503" y="429"/>
      <point x="504" y="436" type="curve" smooth="yes"/>
      <point x="507" y="449"/>
      <point x="498" y="461"/>
      <point x="484" y="461" type="curve" smooth="yes"/>
      <point x="477" y="461"/>
      <point x="471" y="459"/>
      <point x="465" y="454" type="curve" smooth="yes"/>
      <point x="377" y="381" type="line"/>
      <point x="356" y="400"/>
      <point x="326" y="410"/>
      <point x="291" y="410" type="curve" smooth="yes"/>
      <point x="257" y="410"/>
      <point x="223" y="400"/>
      <point x="192" y="381" type="curve"/>
      <point x="135" y="454" type="line" smooth="yes"/>
      <point x="131" y="459"/>
      <point x="125" y="461"/>
      <point x="118" y="461" type="curve" smooth="yes"/>
      <point x="104" y="461"/>
      <point x="90" y="450"/>
      <point x="87" y="436" type="curve" smooth="yes"/>
      <point x="86" y="429"/>
      <point x="87" y="423"/>
      <point x="91" y="418" type="curve" smooth="yes"/>
      <point x="149" y="345" type="line"/>
      <point x="123" y="319"/>
      <point x="105" y="286"/>
      <point x="98" y="251" type="curve" smooth="yes"/>
      <point x="91" y="217"/>
      <point x="95" y="185"/>
      <point x="107" y="159" type="curve"/>
      <point x="21" y="88" type="line" smooth="yes"/>
      <point x="15" y="83"/>
      <point x="11" y="76"/>
      <point x="9" y="70" type="curve" smooth="yes"/>
      <point x="6" y="56"/>
      <point x="17" y="44"/>
      <point x="30" y="44" type="curve" smooth="yes"/>
      <point x="37" y="44"/>
      <point x="44" y="47"/>
      <point x="50" y="52" type="curve" smooth="yes"/>
      <point x="135" y="122" type="line"/>
      <point x="157" y="103"/>
      <point x="188" y="91"/>
      <point x="223" y="91" type="curve" smooth="yes"/>
      <point x="259" y="91"/>
      <point x="293" y="103"/>
      <point x="324" y="122" type="curve"/>
      <point x="380" y="52" type="line"/>
      <point x="383" y="47"/>
      <point x="390" y="44"/>
      <point x="396" y="44" type="curve" smooth="yes"/>
      <point x="411" y="44"/>
      <point x="424" y="57"/>
      <point x="426" y="70" type="curve"/>
      <point x="428" y="76"/>
      <point x="427" y="83"/>
      <point x="423" y="88" type="curve" smooth="yes"/>
    </contour>
    <contour>
      <point x="149" y="251" type="curve" smooth="yes"/>
      <point x="162" y="311"/>
      <point x="221" y="359"/>
      <point x="280" y="359" type="curve" smooth="yes"/>
      <point x="340" y="359"/>
      <point x="379" y="311"/>
      <point x="366" y="251" type="curve" smooth="yes"/>
      <point x="353" y="191"/>
      <point x="294" y="142"/>
      <point x="234" y="142" type="curve" smooth="yes"/>
      <point x="175" y="142"/>
      <point x="136" y="191"/>
    </contour>
  </outline>
</glyph>
<glyph name="section" format="1">
  <advance width="457"/>
  <unicode hex="00A7"/>
  <outline>
    <contour>
      <point x="463" y="284" type="curve" smooth="yes"/>
      <point x="484" y="384"/>
      <point x="417" y="406"/>
      <point x="330" y="436" type="curve" smooth="yes"/>
      <point x="293" y="448"/>
      <point x="230" y="467"/>
      <point x="242" y="524" type="curve" smooth="yes"/>
      <point x="251" y="569"/>
      <point x="307" y="594"/>
      <point x="378" y="594" type="curve" smooth="yes"/>
      <point x="447" y="594"/>
      <point x="472" y="570"/>
      <point x="464" y="533" type="curve" smooth="yes"/>
      <point x="462" y="524"/>
      <point x="458" y="516"/>
      <point x="458" y="513" type="curve" smooth="yes"/>
      <point x="455" y="499"/>
      <point x="461" y="486"/>
      <point x="479" y="486" type="curve" smooth="yes"/>
      <point x="499" y="486"/>
      <point x="510" y="502"/>
      <point x="517" y="532" type="curve" smooth="yes"/>
      <point x="531" y="600"/>
      <point x="486" y="644"/>
      <point x="385" y="644" type="curve" smooth="yes"/>
      <point x="314" y="644"/>
      <point x="210" y="620"/>
      <point x="190" y="525" type="curve" smooth="yes"/>
      <point x="184" y="496"/>
      <point x="188" y="472"/>
      <point x="201" y="452" type="curve"/>
      <point x="182" y="434"/>
      <point x="167" y="412"/>
      <point x="161" y="382" type="curve" smooth="yes"/>
      <point x="146" y="311"/>
      <point x="185" y="273"/>
      <point x="284" y="241" type="curve" smooth="yes"/>
      <point x="375" y="211"/>
      <point x="390" y="187"/>
      <point x="382" y="147" type="curve" smooth="yes"/>
      <point x="374" y="110"/>
      <point x="333" y="53"/>
      <point x="244" y="53" type="curve" smooth="yes"/>
      <point x="180" y="53"/>
      <point x="139" y="85"/>
      <point x="132" y="138" type="curve" smooth="yes"/>
      <point x="131" y="149"/>
      <point x="124" y="157"/>
      <point x="111" y="157" type="curve" smooth="yes"/>
      <point x="96" y="157"/>
      <point x="81" y="145"/>
      <point x="78" y="130" type="curve" smooth="yes"/>
      <point x="71" y="96"/>
      <point x="110" y="0"/>
      <point x="233" y="0" type="curve" smooth="yes"/>
      <point x="338" y="0"/>
      <point x="419" y="74"/>
      <point x="433" y="141" type="curve" smooth="yes"/>
      <point x="440" y="174"/>
      <point x="438" y="199"/>
      <point x="428" y="218" type="curve"/>
      <point x="446" y="239"/>
      <point x="458" y="262"/>
    </contour>
    <contour>
      <point x="212" y="381" type="curve"/>
      <point x="216" y="396"/>
      <point x="223" y="408"/>
      <point x="236" y="419" type="curve"/>
      <point x="257" y="406"/>
      <point x="280" y="397"/>
      <point x="301" y="389" type="curve" smooth="yes"/>
      <point x="367" y="364"/>
      <point x="424" y="350"/>
      <point x="411" y="291" type="curve" smooth="yes"/>
      <point x="408" y="277"/>
      <point x="404" y="265"/>
      <point x="395" y="253" type="curve"/>
      <point x="371" y="269"/>
      <point x="337" y="281"/>
      <point x="301" y="293" type="curve" smooth="yes"/>
      <point x="263" y="305"/>
      <point x="200" y="324"/>
    </contour>
  </outline>
</glyph>
<glyph name="dieresis" format="1">
  <advance width="500"/>
  <unicode hex="00A8"/>
  <outline>
    <contour>
      <point x="294" y="620" type="curve" smooth="yes"/>
      <point x="289" y="596"/>
      <point x="263" y="576"/>
      <point x="234" y="576" type="curve" smooth="yes"/>
      <point x="211.952" y="576"/>
      <point x="196.126" y="588.445"/>
      <point x="196.126" y="607.161" type="curve" smooth="yes"/>
      <point x="196.126" y="609.666"/>
      <point x="196.41" y="612.284"/>
      <point x="197" y="615" type="curve" smooth="yes"/>
      <point x="202" y="638"/>
      <point x="230" y="659"/>
      <point x="258" y="659" type="curve" smooth="yes"/>
      <point x="278.384" y="659"/>
      <point x="294.84" y="645.648"/>
      <point x="294.84" y="627.296" type="curve" smooth="yes"/>
      <point x="294.84" y="624.941"/>
      <point x="294.569" y="622.503"/>
    </contour>
    <contour>
      <point x="453" y="620" type="curve" smooth="yes"/>
      <point x="448" y="596"/>
      <point x="422" y="576"/>
      <point x="393" y="576" type="curve" smooth="yes"/>
      <point x="370.952" y="576"/>
      <point x="355.126" y="588.445"/>
      <point x="355.126" y="607.161" type="curve" smooth="yes"/>
      <point x="355.126" y="609.666"/>
      <point x="355.41" y="612.284"/>
      <point x="356" y="615" type="curve" smooth="yes"/>
      <point x="361" y="638"/>
      <point x="389" y="659"/>
      <point x="417" y="659" type="curve" smooth="yes"/>
      <point x="437.384" y="659"/>
      <point x="453.84" y="645.648"/>
      <point x="453.84" y="627.296" type="curve" smooth="yes"/>
      <point x="453.84" y="624.941"/>
      <point x="453.569" y="622.503"/>
    </contour>
  </outline>
</glyph>
<glyph name="guillemotleft" format="1">
  <advance width="591"/>
  <unicode hex="00AB"/>
  <outline>
    <contour>
      <point x="425" y="76" type="curve" smooth="yes"/>
      <point x="418" y="76"/>
      <point x="412" y="78"/>
      <point x="407" y="83" type="curve" smooth="yes"/>
      <point x="275" y="229" type="line" smooth="yes"/>
      <point x="270" y="234"/>
      <point x="269" y="242"/>
      <point x="271" y="250" type="curve" smooth="yes"/>
      <point x="272" y="258"/>
      <point x="277" y="266"/>
      <point x="284" y="271" type="curve" smooth="yes"/>
      <point x="497" y="426" type="line" smooth="yes"/>
      <point x="503" y="430"/>
      <point x="511" y="433"/>
      <point x="517" y="433" type="curve" smooth="yes"/>
      <point x="529.431" y="433"/>
      <point x="539.497" y="423.539"/>
      <point x="539.497" y="410.218" type="curve" smooth="yes"/>
      <point x="539.497" y="408.536"/>
      <point x="539.336" y="406.793"/>
      <point x="539" y="405" type="curve" smooth="yes"/>
      <point x="537" y="397"/>
      <point x="531" y="390"/>
      <point x="524" y="384" type="curve" smooth="yes"/>
      <point x="340" y="249" type="line"/>
      <point x="454" y="124" type="line" smooth="yes"/>
      <point x="459" y="119"/>
      <point x="460" y="111"/>
      <point x="458" y="103" type="curve" smooth="yes"/>
      <point x="455" y="88"/>
      <point x="440" y="76"/>
    </contour>
    <contour>
      <point x="220" y="76" type="curve" smooth="yes"/>
      <point x="213" y="76"/>
      <point x="207" y="78"/>
      <point x="202" y="83" type="curve" smooth="yes"/>
      <point x="70" y="229" type="line" smooth="yes"/>
      <point x="65" y="234"/>
      <point x="64" y="242"/>
      <point x="66" y="250" type="curve" smooth="yes"/>
      <point x="67" y="258"/>
      <point x="72" y="266"/>
      <point x="79" y="271" type="curve" smooth="yes"/>
      <point x="292" y="426" type="line" smooth="yes"/>
      <point x="298" y="430"/>
      <point x="306" y="433"/>
      <point x="312" y="433" type="curve" smooth="yes"/>
      <point x="324.431" y="433"/>
      <point x="334.497" y="423.539"/>
      <point x="334.497" y="410.218" type="curve" smooth="yes"/>
      <point x="334.497" y="408.536"/>
      <point x="334.336" y="406.793"/>
      <point x="334" y="405" type="curve" smooth="yes"/>
      <point x="332" y="397"/>
      <point x="326" y="390"/>
      <point x="319" y="384" type="curve" smooth="yes"/>
      <point x="135" y="249" type="line"/>
      <point x="249" y="124" type="line" smooth="yes"/>
      <point x="254" y="119"/>
      <point x="255" y="111"/>
      <point x="253" y="103" type="curve" smooth="yes"/>
      <point x="250" y="88"/>
      <point x="235" y="76"/>
    </contour>
  </outline>
</glyph>
<glyph name="logicalnot" format="1">
  <advance width="480"/>
  <unicode hex="00AC"/>
  <outline>
    <contour>
      <point x="365" y="125" type="curve" smooth="yes"/>
      <point x="379" y="125"/>
      <point x="392" y="136"/>
      <point x="395" y="150" type="curve" smooth="yes"/>
      <point x="429" y="303" type="line" smooth="yes"/>
      <point x="432" y="319"/>
      <point x="421" y="329"/>
      <point x="408" y="329" type="curve" smooth="yes"/>
      <point x="79" y="329" type="line" smooth="yes"/>
      <point x="65" y="329"/>
      <point x="52" y="317"/>
      <point x="49" y="303" type="curve" smooth="yes"/>
      <point x="46" y="289"/>
      <point x="55" y="278"/>
      <point x="69" y="278" type="curve" smooth="yes"/>
      <point x="373" y="278" type="line"/>
      <point x="344" y="150" type="line" smooth="yes"/>
      <point x="341" y="136"/>
      <point x="351" y="125"/>
    </contour>
  </outline>
</glyph>
<glyph name="registered" format="1">
  <advance width="544"/>
  <unicode hex="00AE"/>
  <outline>
    <contour>
      <point x="267" y="236" type="curve" smooth="yes"/>
      <point x="160.442" y="236"/>
      <point x="87.6577" y="312.553"/>
      <point x="87.6577" y="414.293" type="curve" smooth="yes"/>
      <point x="87.6577" y="429.992"/>
      <point x="89.3907" y="446.29"/>
      <point x="93" y="463" type="curve" smooth="yes"/>
      <point x="119" y="588"/>
      <point x="240" y="690"/>
      <point x="363" y="690" type="curve" smooth="yes"/>
      <point x="469.156" y="690"/>
      <point x="541.999" y="612.772"/>
      <point x="541.999" y="510.363" type="curve" smooth="yes"/>
      <point x="541.999" y="495.078"/>
      <point x="540.376" y="479.233"/>
      <point x="537" y="463" type="curve" smooth="yes"/>
      <point x="510" y="338"/>
      <point x="389" y="236"/>
    </contour>
    <contour>
      <point x="353" y="644" type="curve" smooth="yes"/>
      <point x="256" y="644"/>
      <point x="160" y="563"/>
      <point x="139" y="463" type="curve" smooth="yes"/>
      <point x="136.207" y="449.699"/>
      <point x="134.864" y="436.734"/>
      <point x="134.864" y="424.251" type="curve" smooth="yes"/>
      <point x="134.864" y="342.885"/>
      <point x="191.902" y="282"/>
      <point x="276" y="282" type="curve" smooth="yes"/>
      <point x="373" y="282"/>
      <point x="470" y="363"/>
      <point x="491" y="463" type="curve" smooth="yes"/>
      <point x="493.762" y="476.151"/>
      <point x="495.088" y="488.973"/>
      <point x="495.088" y="501.325" type="curve" smooth="yes"/>
      <point x="495.088" y="582.903"/>
      <point x="437.244" y="644"/>
    </contour>
    <contour>
      <point x="443" y="520" type="curve" smooth="yes"/>
      <point x="434" y="477"/>
      <point x="377" y="457"/>
      <point x="328" y="447" type="curve"/>
      <point x="381" y="405" type="line" smooth="yes"/>
      <point x="387" y="401"/>
      <point x="389" y="393"/>
      <point x="387" y="385" type="curve" smooth="yes"/>
      <point x="385" y="372"/>
      <point x="372" y="362"/>
      <point x="359" y="362" type="curve" smooth="yes"/>
      <point x="354" y="362"/>
      <point x="350" y="364"/>
      <point x="347" y="366" type="curve" smooth="yes"/>
      <point x="259" y="437" type="line"/>
      <point x="239" y="384" type="line" smooth="yes"/>
      <point x="235" y="372"/>
      <point x="224" y="363"/>
      <point x="212" y="363" type="curve" smooth="yes"/>
      <point x="200.663" y="363"/>
      <point x="192.604" y="371.525"/>
      <point x="192.604" y="382.203" type="curve" smooth="yes"/>
      <point x="192.604" y="384.711"/>
      <point x="193.049" y="387.337"/>
      <point x="194" y="390" type="curve" smooth="yes"/>
      <point x="261" y="567" type="line" smooth="yes"/>
      <point x="268" y="585"/>
      <point x="269" y="590"/>
      <point x="343" y="590" type="curve" smooth="yes"/>
      <point x="409.387" y="590"/>
      <point x="444.386" y="568.269"/>
      <point x="444.386" y="532.751" type="curve" smooth="yes"/>
      <point x="444.386" y="528.678"/>
      <point x="443.926" y="524.424"/>
    </contour>
    <contour>
      <point x="278" y="485" type="line"/>
      <point x="341.762" y="491.073"/>
      <point x="397.271" y="509.1"/>
      <point x="397.271" y="522.389" type="curve" smooth="yes"/>
      <point x="397.271" y="538.535"/>
      <point x="358.403" y="544"/>
      <point x="325" y="544" type="curve" smooth="yes"/>
      <point x="316" y="544"/>
      <point x="307" y="544"/>
      <point x="299" y="543" type="curve"/>
    </contour>
  </outline>
</glyph>
<glyph name="macron" format="1">
  <advance width="500"/>
  <unicode hex="00AF"/>
  <outline>
    <contour>
      <point x="426" y="600" type="line" smooth="yes"/>
      <point x="440" y="600"/>
      <point x="454" y="612"/>
      <point x="457" y="626" type="curve" smooth="yes"/>
      <point x="460" y="640"/>
      <point x="451" y="651"/>
      <point x="437" y="651" type="curve" smooth="yes"/>
      <point x="228" y="651" type="line" smooth="yes"/>
      <point x="214" y="651"/>
      <point x="201" y="640"/>
      <point x="198" y="626" type="curve" smooth="yes"/>
      <point x="195" y="612"/>
      <point x="203" y="600"/>
      <point x="217" y="600" type="curve" smooth="yes"/>
    </contour>
  </outline>
</glyph>
<glyph name="degree" format="1">
  <advance width="243"/>
  <unicode hex="00B0"/>
  <outline>
    <contour>
      <point x="165" y="464" type="curve" smooth="yes"/>
      <point x="106.543" y="464"/>
      <point x="66.3564" y="505.868"/>
      <point x="66.3564" y="561.044" type="curve" smooth="yes"/>
      <point x="66.3564" y="569.108"/>
      <point x="67.2148" y="577.457"/>
      <point x="69" y="586" type="curve" smooth="yes"/>
      <point x="83" y="653"/>
      <point x="150" y="708"/>
      <point x="217" y="708" type="curve" smooth="yes"/>
      <point x="275.313" y="708"/>
      <point x="314.689" y="666.337"/>
      <point x="314.689" y="611.361" type="curve" smooth="yes"/>
      <point x="314.689" y="603.172"/>
      <point x="313.815" y="594.687"/>
      <point x="312" y="586" type="curve" smooth="yes"/>
      <point x="298" y="519"/>
      <point x="232" y="464"/>
    </contour>
    <contour>
      <point x="207" y="662" type="curve" smooth="yes"/>
      <point x="165" y="662"/>
      <point x="123" y="628"/>
      <point x="114" y="586" type="curve" smooth="yes"/>
      <point x="112.861" y="580.683"/>
      <point x="112.314" y="575.494"/>
      <point x="112.314" y="570.485" type="curve" smooth="yes"/>
      <point x="112.314" y="535.936"/>
      <point x="138.317" y="510"/>
      <point x="175" y="510" type="curve" smooth="yes"/>
      <point x="217" y="510"/>
      <point x="258" y="544"/>
      <point x="267" y="586" type="curve" smooth="yes"/>
      <point x="268.169" y="591.457"/>
      <point x="268.731" y="596.779"/>
      <point x="268.731" y="601.908" type="curve" smooth="yes"/>
      <point x="268.731" y="636.261"/>
      <point x="243.543" y="662"/>
    </contour>
  </outline>
</glyph>
<glyph name="threesuperior" format="1">
  <advance width="236"/>
  <unicode hex="00B3"/>
  <outline>
    <contour>
      <point x="154" y="440" type="curve" smooth="yes"/>
      <point x="92" y="440"/>
      <point x="65" y="476"/>
      <point x="55" y="502" type="curve" smooth="yes"/>
      <point x="53" y="507"/>
      <point x="54" y="513"/>
      <point x="54" y="516" type="curve"/>
      <point x="57" y="528"/>
      <point x="68" y="540"/>
      <point x="81" y="540" type="curve" smooth="yes"/>
      <point x="94" y="540"/>
      <point x="99" y="530"/>
      <point x="100" y="526" type="curve" smooth="yes"/>
      <point x="112" y="499"/>
      <point x="133" y="486"/>
      <point x="164" y="486" type="curve" smooth="yes"/>
      <point x="192" y="486"/>
      <point x="241" y="505"/>
      <point x="253" y="560" type="curve" smooth="yes"/>
      <point x="254.248" y="565.929"/>
      <point x="254.912" y="571.711"/>
      <point x="254.912" y="577.268" type="curve" smooth="yes"/>
      <point x="254.912" y="607.328"/>
      <point x="235.483" y="630.78"/>
      <point x="184" y="635" type="curve" smooth="yes"/>
      <point x="173.368" y="635.886"/>
      <point x="166.661" y="643.837"/>
      <point x="166.661" y="653.984" type="curve" smooth="yes"/>
      <point x="166.661" y="673.369"/>
      <point x="181.703" y="681.054"/>
      <point x="194" y="682" type="curve" smooth="yes"/>
      <point x="227" y="684"/>
      <point x="275" y="703"/>
      <point x="283" y="740" type="curve" smooth="yes"/>
      <point x="283.429" y="742.216"/>
      <point x="283.633" y="744.335"/>
      <point x="283.633" y="746.36" type="curve" smooth="yes"/>
      <point x="283.633" y="772.654"/>
      <point x="249.213" y="783"/>
      <point x="226" y="783" type="curve" smooth="yes"/>
      <point x="185" y="783"/>
      <point x="172" y="770"/>
      <point x="160" y="762" type="curve" smooth="yes"/>
      <point x="156" y="759"/>
      <point x="150" y="757"/>
      <point x="144" y="757" type="curve" smooth="yes"/>
      <point x="134.345" y="757"/>
      <point x="125.461" y="763.163"/>
      <point x="125.461" y="774.813" type="curve" smooth="yes"/>
      <point x="125.461" y="776.436"/>
      <point x="125.633" y="778.166"/>
      <point x="126" y="780" type="curve" smooth="yes"/>
      <point x="131" y="803"/>
      <point x="182" y="830"/>
      <point x="236" y="830" type="curve" smooth="yes"/>
      <point x="286.229" y="830"/>
      <point x="330.826" y="803.452"/>
      <point x="330.826" y="756.849" type="curve" smooth="yes"/>
      <point x="330.826" y="751.494"/>
      <point x="330.237" y="745.875"/>
      <point x="329" y="740" type="curve" smooth="yes"/>
      <point x="322" y="710"/>
      <point x="300" y="678"/>
      <point x="266" y="660" type="curve"/>
      <point x="290.288" y="643.547"/>
      <point x="302.913" y="617.886"/>
      <point x="302.913" y="586.865" type="curve" smooth="yes"/>
      <point x="302.913" y="578.292"/>
      <point x="301.949" y="569.31"/>
      <point x="300" y="560" type="curve" smooth="yes"/>
      <point x="284" y="488"/>
      <point x="217" y="440"/>
    </contour>
  </outline>
</glyph>
<glyph name="acute" format="1">
  <advance width="500"/>
  <unicode hex="00B4"/>
  <outline>
    <contour>
      <point x="423" y="666" type="line" smooth="yes"/>
      <point x="431" y="671"/>
      <point x="436" y="680"/>
      <point x="438" y="689" type="curve" smooth="yes"/>
      <point x="442" y="709"/>
      <point x="431" y="725"/>
      <point x="412" y="725" type="curve" smooth="yes"/>
      <point x="401" y="725"/>
      <point x="389" y="717"/>
      <point x="379" y="710" type="curve" smooth="yes"/>
      <point x="232" y="607" type="line" smooth="yes"/>
      <point x="226" y="603"/>
      <point x="223" y="596"/>
      <point x="222" y="590" type="curve" smooth="yes"/>
      <point x="219" y="575"/>
      <point x="228" y="563"/>
      <point x="242" y="563" type="curve" smooth="yes"/>
      <point x="248" y="563"/>
      <point x="257" y="567"/>
      <point x="265" y="572" type="curve" smooth="yes"/>
    </contour>
  </outline>
</glyph>
<glyph name="mu" format="1">
  <advance width="500"/>
  <unicode hex="00B5"/>
  <outline>
    <contour>
      <point x="64" y="256" type="curve" smooth="yes"/>
      <point x="46" y="158"/>
      <point x="30" y="41"/>
      <point x="25" y="0" type="curve"/>
      <point x="13" y="-83"/>
      <point x="12" y="-122"/>
      <point x="10" y="-159" type="curve"/>
      <point x="10" y="-172"/>
      <point x="19" y="-181"/>
      <point x="32" y="-181" type="curve" smooth="yes"/>
      <point x="52" y="-181"/>
      <point x="65" y="-164"/>
      <point x="65" y="-149" type="curve" smooth="yes"/>
      <point x="67" y="-101"/>
      <point x="74" y="-26"/>
      <point x="80" y="18" type="curve"/>
      <point x="80" y="18"/>
      <point x="108" y="-3"/>
      <point x="160" y="-3" type="curve" smooth="yes"/>
      <point x="237" y="-3"/>
      <point x="313" y="40"/>
      <point x="346" y="76" type="curve"/>
      <point x="337" y="33" type="line" smooth="yes"/>
      <point x="333" y="15"/>
      <point x="342" y="0"/>
      <point x="361" y="0" type="curve" smooth="yes"/>
      <point x="377" y="0"/>
      <point x="393" y="13"/>
      <point x="396" y="28" type="curve" smooth="yes"/>
      <point x="491" y="475" type="line"/>
      <point x="495" y="490"/>
      <point x="485" y="500"/>
      <point x="471" y="500" type="curve" smooth="yes"/>
      <point x="457" y="500"/>
      <point x="443" y="490"/>
      <point x="439" y="475" type="curve" smooth="yes"/>
      <point x="368" y="161" type="line"/>
      <point x="368" y="161"/>
      <point x="362" y="133"/>
      <point x="346" y="118" type="curve" smooth="yes"/>
      <point x="319" y="94"/>
      <point x="239" y="46"/>
      <point x="170" y="46" type="curve" smooth="yes"/>
      <point x="90" y="46"/>
      <point x="86" y="106"/>
      <point x="126" y="292" type="curve" smooth="yes"/>
      <point x="145" y="384"/>
      <point x="170" y="450"/>
      <point x="177" y="474" type="curve" smooth="yes"/>
      <point x="181" y="489"/>
      <point x="170" y="500"/>
      <point x="155" y="500" type="curve" smooth="yes"/>
      <point x="141" y="500"/>
      <point x="131" y="495"/>
      <point x="121" y="466" type="curve" smooth="yes"/>
      <point x="107" y="428"/>
      <point x="78" y="333"/>
    </contour>
  </outline>
</glyph>
<glyph name="cedilla" format="1">
  <advance width="500"/>
  <unicode hex="00B8"/>
  <outline>
    <contour>
      <point x="146" y="-201" type="curve" smooth="yes"/>
      <point x="116.345" y="-201"/>
      <point x="77.2426" y="-182.106"/>
      <point x="77.2426" y="-153.073" type="curve" smooth="yes"/>
      <point x="77.2426" y="-150.777"/>
      <point x="77.4871" y="-148.418"/>
      <point x="78" y="-146" type="curve" smooth="yes"/>
      <point x="80" y="-138"/>
      <point x="91" y="-128"/>
      <point x="103" y="-128" type="curve" smooth="yes"/>
      <point x="111" y="-128"/>
      <point x="115" y="-133"/>
      <point x="119" y="-139" type="curve" smooth="yes"/>
      <point x="125" y="-148"/>
      <point x="132" y="-159"/>
      <point x="155" y="-159" type="curve" smooth="yes"/>
      <point x="182" y="-159"/>
      <point x="208" y="-137"/>
      <point x="214" y="-110" type="curve" smooth="yes"/>
      <point x="214.814" y="-106.338"/>
      <point x="215.204" y="-102.768"/>
      <point x="215.204" y="-99.332" type="curve" smooth="yes"/>
      <point x="215.204" y="-77.4368"/>
      <point x="199.338" y="-61"/>
      <point x="176" y="-61" type="curve" smooth="yes"/>
      <point x="161" y="-61"/>
      <point x="150" y="-67"/>
      <point x="142" y="-71" type="curve" smooth="yes"/>
      <point x="138" y="-74"/>
      <point x="133" y="-76"/>
      <point x="129" y="-76" type="curve" smooth="yes"/>
      <point x="118" y="-76"/>
      <point x="110" y="-68"/>
      <point x="113" y="-56" type="curve" smooth="yes"/>
      <point x="114" y="-50"/>
      <point x="117" y="-43"/>
      <point x="123" y="-33" type="curve" smooth="yes"/>
      <point x="160" y="30"/>
      <point x="162" y="42"/>
      <point x="175" y="42" type="curve" smooth="yes"/>
      <point x="183" y="42"/>
      <point x="189" y="38"/>
      <point x="184" y="22" type="curve" smooth="yes"/>
      <point x="173" y="-19" type="line"/>
      <point x="231.439" y="-19"/>
      <point x="258.12" y="-50.7586"/>
      <point x="258.12" y="-90.156" type="curve" smooth="yes"/>
      <point x="258.12" y="-96.6014"/>
      <point x="257.406" y="-103.251"/>
      <point x="256" y="-110" type="curve" smooth="yes"/>
      <point x="245" y="-160"/>
      <point x="196" y="-201"/>
    </contour>
  </outline>
</glyph>
<glyph name="onesuperior" format="1">
  <advance width="166"/>
  <unicode hex="00B9"/>
  <outline>
    <contour>
      <point x="182" y="444" type="line" smooth="yes"/>
      <point x="193" y="444"/>
      <point x="207" y="452"/>
      <point x="210" y="467" type="curve" smooth="yes"/>
      <point x="212" y="479"/>
      <point x="204" y="490"/>
      <point x="192" y="490" type="curve" smooth="yes"/>
      <point x="160" y="490" type="line"/>
      <point x="232" y="805" type="line"/>
      <point x="234" y="817"/>
      <point x="226" y="829"/>
      <point x="213" y="829" type="curve" smooth="yes"/>
      <point x="207" y="829"/>
      <point x="200" y="826"/>
      <point x="194" y="821" type="curve" smooth="yes"/>
      <point x="109" y="746" type="line" smooth="yes"/>
      <point x="104" y="741"/>
      <point x="101" y="735"/>
      <point x="99" y="729" type="curve"/>
      <point x="97" y="716"/>
      <point x="107" y="707"/>
      <point x="117" y="707" type="curve" smooth="yes"/>
      <point x="125" y="707"/>
      <point x="130" y="709"/>
      <point x="136" y="714" type="curve" smooth="yes"/>
      <point x="172" y="745" type="line"/>
      <point x="114" y="490" type="line"/>
      <point x="74" y="490" type="line" smooth="yes"/>
      <point x="62" y="490"/>
      <point x="49" y="481"/>
      <point x="46" y="467" type="curve" smooth="yes"/>
      <point x="43" y="455"/>
      <point x="48" y="444"/>
      <point x="64" y="444" type="curve" smooth="yes"/>
    </contour>
  </outline>
</glyph>
<glyph name="ordmasculine" format="1">
  <advance width="277"/>
  <unicode hex="00BA"/>
  <outline>
    <contour>
      <point x="147" y="347" type="curve" smooth="yes"/>
      <point x="247" y="347"/>
      <point x="317" y="449"/>
      <point x="331" y="515" type="curve" smooth="yes"/>
      <point x="350" y="604"/>
      <point x="302" y="663"/>
      <point x="233" y="663" type="curve" smooth="yes"/>
      <point x="141" y="663"/>
      <point x="66" y="572"/>
      <point x="49" y="491" type="curve" smooth="yes"/>
      <point x="31" y="409"/>
      <point x="78" y="347"/>
    </contour>
    <contour>
      <point x="221" y="618" type="curve" smooth="yes"/>
      <point x="267" y="618"/>
      <point x="291" y="567"/>
      <point x="280" y="515" type="curve" smooth="yes"/>
      <point x="265" y="444"/>
      <point x="204" y="392"/>
      <point x="157" y="392" type="curve" smooth="yes"/>
      <point x="112" y="392"/>
      <point x="89" y="439"/>
      <point x="101" y="494" type="curve" smooth="yes"/>
      <point x="115" y="562"/>
      <point x="173" y="618"/>
    </contour>
  </outline>
</glyph>
<glyph name="questiondown" format="1">
  <advance width="533"/>
  <unicode hex="00BF"/>
  <outline>
    <contour>
      <point x="319" y="323" type="curve" smooth="yes"/>
      <point x="293" y="304"/>
      <point x="232" y="257"/>
      <point x="180" y="220" type="curve" smooth="yes"/>
      <point x="120" y="176"/>
      <point x="34" y="116"/>
      <point x="13" y="15" type="curve" smooth="yes"/>
      <point x="-13" y="-108"/>
      <point x="56" y="-187"/>
      <point x="177" y="-187" type="curve" smooth="yes"/>
      <point x="253" y="-187"/>
      <point x="317" y="-150"/>
      <point x="356" y="-115" type="curve" smooth="yes"/>
      <point x="371" y="-102"/>
      <point x="382" y="-91"/>
      <point x="384" y="-81" type="curve" smooth="yes"/>
      <point x="388" y="-65"/>
      <point x="377" y="-55"/>
      <point x="362" y="-55" type="curve" smooth="yes"/>
      <point x="356" y="-55"/>
      <point x="348" y="-59"/>
      <point x="343" y="-63" type="curve" smooth="yes"/>
      <point x="306" y="-97"/>
      <point x="256" y="-135"/>
      <point x="188" y="-135" type="curve" smooth="yes"/>
      <point x="74" y="-135"/>
      <point x="48" y="-58"/>
      <point x="64" y="15" type="curve" smooth="yes"/>
      <point x="80" y="91"/>
      <point x="148" y="135"/>
      <point x="204" y="178" type="curve" smooth="yes"/>
      <point x="259" y="221"/>
      <point x="324" y="269"/>
      <point x="347" y="286" type="curve" smooth="yes"/>
      <point x="354" y="291"/>
      <point x="360" y="297"/>
      <point x="361" y="305" type="curve"/>
      <point x="365" y="320"/>
      <point x="355" y="332"/>
      <point x="340" y="332" type="curve" smooth="yes"/>
      <point x="333" y="332"/>
      <point x="325" y="328"/>
    </contour>
    <contour>
      <point x="410" y="501" type="curve" smooth="yes"/>
      <point x="389" y="501"/>
      <point x="366" y="481"/>
      <point x="360" y="455" type="curve" smooth="yes"/>
      <point x="356" y="435"/>
      <point x="367" y="421"/>
      <point x="385" y="421" type="curve" smooth="yes"/>
      <point x="406" y="421"/>
      <point x="428" y="441"/>
      <point x="433" y="464" type="curve" smooth="yes"/>
      <point x="438" y="485"/>
      <point x="429" y="501"/>
    </contour>
  </outline>
</glyph>
<glyph name="Agrave" format="1">
  <advance width="624"/>
  <unicode hex="00C0"/>
  <outline>
    <contour>
      <point x="446" y="725" type="line" smooth="yes"/>
      <point x="450" y="720"/>
      <point x="455" y="716"/>
      <point x="463" y="716" type="curve" smooth="yes"/>
      <point x="477" y="716"/>
      <point x="493" y="727"/>
      <point x="496" y="742" type="curve" smooth="yes"/>
      <point x="497" y="748"/>
      <point x="497" y="753"/>
      <point x="493" y="760" type="curve" smooth="yes"/>
      <point x="416" y="890" type="line"/>
      <point x="410" y="898"/>
      <point x="401" y="905"/>
      <point x="390" y="905" type="curve" smooth="yes"/>
      <point x="372" y="905"/>
      <point x="351" y="889"/>
      <point x="348" y="871" type="curve" smooth="yes"/>
      <point x="346" y="861"/>
      <point x="348" y="853"/>
      <point x="353" y="846" type="curve" smooth="yes"/>
    </contour>
    <contour>
      <point x="441" y="670" type="line" smooth="yes"/>
      <point x="439" y="681"/>
      <point x="430" y="689"/>
      <point x="419" y="689" type="curve" smooth="yes"/>
      <point x="407" y="689"/>
      <point x="394" y="682"/>
      <point x="387" y="671" type="curve" smooth="yes"/>
      <point x="136" y="256" type="line"/>
      <point x="81" y="244" type="line" smooth="yes"/>
      <point x="68" y="241"/>
      <point x="56" y="230"/>
      <point x="54" y="217" type="curve"/>
      <point x="50" y="200"/>
      <point x="60" y="188"/>
      <point x="76" y="188" type="curve" smooth="yes"/>
      <point x="78" y="188"/>
      <point x="80" y="188"/>
      <point x="97" y="192" type="curve"/>
      <point x="5" y="39" type="line" smooth="yes"/>
      <point x="3" y="36"/>
      <point x="1" y="32"/>
      <point x="1" y="29" type="curve" smooth="yes"/>
      <point x="-2" y="15"/>
      <point x="7" y="0"/>
      <point x="24" y="0" type="curve" smooth="yes"/>
      <point x="35" y="0"/>
      <point x="47" y="7"/>
      <point x="53" y="18" type="curve" smooth="yes"/>
      <point x="167" y="206" type="line"/>
      <point x="434" y="262" type="line"/>
      <point x="466" y="18" type="line" smooth="yes"/>
      <point x="468" y="6"/>
      <point x="477" y="-1"/>
      <point x="489" y="-1" type="curve" smooth="yes"/>
      <point x="506" y="-1"/>
      <point x="520" y="13"/>
      <point x="523" y="28" type="curve" smooth="yes"/>
      <point x="524" y="31"/>
      <point x="525" y="34"/>
      <point x="524" y="37" type="curve"/>
    </contour>
    <contour>
      <point x="206" y="270" type="line"/>
      <point x="392" y="578" type="line"/>
      <point x="427" y="316" type="line"/>
    </contour>
  </outline>
</glyph>
<glyph name="Atilde" format="1">
  <advance width="624"/>
  <unicode hex="00C3"/>
  <outline>
    <contour>
      <point x="574" y="833" type="curve" smooth="yes"/>
      <point x="556" y="804"/>
      <point x="527" y="755"/>
      <point x="497" y="755" type="curve" smooth="yes"/>
      <point x="480" y="755"/>
      <point x="474" y="777"/>
      <point x="460" y="803" type="curve" smooth="yes"/>
      <point x="446" y="830"/>
      <point x="429" y="863"/>
      <point x="384" y="863" type="curve" smooth="yes"/>
      <point x="347" y="863"/>
      <point x="311" y="842"/>
      <point x="281" y="804" type="curve" smooth="yes"/>
      <point x="273" y="793"/>
      <point x="259" y="776"/>
      <point x="256" y="761" type="curve" smooth="yes"/>
      <point x="253" y="747"/>
      <point x="263" y="736"/>
      <point x="277" y="736" type="curve" smooth="yes"/>
      <point x="289" y="736"/>
      <point x="299" y="742"/>
      <point x="306" y="755" type="curve" smooth="yes"/>
      <point x="332" y="804"/>
      <point x="362" y="821"/>
      <point x="375" y="821" type="curve" smooth="yes"/>
      <point x="392" y="821"/>
      <point x="398" y="799"/>
      <point x="412" y="773" type="curve" smooth="yes"/>
      <point x="426" y="745"/>
      <point x="443" y="713"/>
      <point x="488" y="713" type="curve" smooth="yes"/>
      <point x="553" y="713"/>
      <point x="599" y="781"/>
      <point x="616" y="812" type="curve" smooth="yes"/>
      <point x="619" y="818"/>
      <point x="621" y="821"/>
      <point x="622" y="826" type="curve" smooth="yes"/>
      <point x="625" y="839"/>
      <point x="615" y="850"/>
      <point x="601" y="850" type="curve" smooth="yes"/>
      <point x="591" y="850"/>
      <point x="580" y="843"/>
    </contour>
    <contour>
      <point x="441" y="670" type="line" smooth="yes"/>
      <point x="439" y="681"/>
      <point x="430" y="689"/>
      <point x="419" y="689" type="curve" smooth="yes"/>
      <point x="407" y="689"/>
      <point x="394" y="682"/>
      <point x="387" y="671" type="curve" smooth="yes"/>
      <point x="136" y="256" type="line"/>
      <point x="81" y="244" type="line" smooth="yes"/>
      <point x="68" y="241"/>
      <point x="56" y="230"/>
      <point x="54" y="217" type="curve"/>
      <point x="50" y="200"/>
      <point x="60" y="188"/>
      <point x="76" y="188" type="curve" smooth="yes"/>
      <point x="78" y="188"/>
      <point x="80" y="188"/>
      <point x="97" y="192" type="curve"/>
      <point x="5" y="39" type="line" smooth="yes"/>
      <point x="3" y="36"/>
      <point x="1" y="32"/>
      <point x="1" y="29" type="curve" smooth="yes"/>
      <point x="-2" y="15"/>
      <point x="7" y="0"/>
      <point x="24" y="0" type="curve" smooth="yes"/>
      <point x="35" y="0"/>
      <point x="47" y="7"/>
      <point x="53" y="18" type="curve" smooth="yes"/>
      <point x="167" y="206" type="line"/>
      <point x="434" y="262" type="line"/>
      <point x="466" y="18" type="line" smooth="yes"/>
      <point x="468" y="6"/>
      <point x="477" y="-1"/>
      <point x="489" y="-1" type="curve" smooth="yes"/>
      <point x="506" y="-1"/>
      <point x="520" y="13"/>
      <point x="523" y="28" type="curve" smooth="yes"/>
      <point x="524" y="31"/>
      <point x="525" y="34"/>
      <point x="524" y="37" type="curve"/>
    </contour>
    <contour>
      <point x="206" y="270" type="line"/>
      <point x="392" y="578" type="line"/>
      <point x="427" y="316" type="line"/>
    </contour>
  </outline>
</glyph>
<glyph name="Adieresis" format="1">
  <advance width="624"/>
  <unicode hex="00C4"/>
  <outline>
    <contour>
      <point x="404" y="777" type="curve" smooth="yes"/>
      <point x="408" y="799"/>
      <point x="390" y="816"/>
      <point x="367" y="816" type="curve" smooth="yes"/>
      <point x="339" y="816"/>
      <point x="311" y="795"/>
      <point x="307" y="772" type="curve" smooth="yes"/>
      <point x="302" y="749"/>
      <point x="318" y="733"/>
      <point x="343" y="733" type="curve" smooth="yes"/>
      <point x="372" y="733"/>
      <point x="399" y="753"/>
    </contour>
    <contour>
      <point x="563" y="777" type="curve" smooth="yes"/>
      <point x="567" y="799"/>
      <point x="549" y="816"/>
      <point x="526" y="816" type="curve" smooth="yes"/>
      <point x="498" y="816"/>
      <point x="470" y="795"/>
      <point x="466" y="772" type="curve" smooth="yes"/>
      <point x="461" y="749"/>
      <point x="477" y="733"/>
      <point x="502" y="733" type="curve" smooth="yes"/>
      <point x="531" y="733"/>
      <point x="558" y="753"/>
    </contour>
    <contour>
      <point x="441" y="670" type="line" smooth="yes"/>
      <point x="439" y="681"/>
      <point x="430" y="689"/>
      <point x="419" y="689" type="curve" smooth="yes"/>
      <point x="407" y="689"/>
      <point x="394" y="682"/>
      <point x="387" y="671" type="curve" smooth="yes"/>
      <point x="136" y="256" type="line"/>
      <point x="81" y="244" type="line" smooth="yes"/>
      <point x="68" y="241"/>
      <point x="56" y="230"/>
      <point x="54" y="217" type="curve"/>
      <point x="50" y="200"/>
      <point x="60" y="188"/>
      <point x="76" y="188" type="curve" smooth="yes"/>
      <point x="78" y="188"/>
      <point x="80" y="188"/>
      <point x="97" y="192" type="curve"/>
      <point x="5" y="39" type="line" smooth="yes"/>
      <point x="3" y="36"/>
      <point x="1" y="32"/>
      <point x="1" y="29" type="curve" smooth="yes"/>
      <point x="-2" y="15"/>
      <point x="7" y="0"/>
      <point x="24" y="0" type="curve" smooth="yes"/>
      <point x="35" y="0"/>
      <point x="47" y="7"/>
      <point x="53" y="18" type="curve" smooth="yes"/>
      <point x="167" y="206" type="line"/>
      <point x="434" y="262" type="line"/>
      <point x="466" y="18" type="line" smooth="yes"/>
      <point x="468" y="6"/>
      <point x="477" y="-1"/>
      <point x="489" y="-1" type="curve" smooth="yes"/>
      <point x="506" y="-1"/>
      <point x="520" y="13"/>
      <point x="523" y="28" type="curve" smooth="yes"/>
      <point x="524" y="31"/>
      <point x="525" y="34"/>
      <point x="524" y="37" type="curve"/>
    </contour>
    <contour>
      <point x="206" y="270" type="line"/>
      <point x="392" y="578" type="line"/>
      <point x="427" y="316" type="line"/>
    </contour>
  </outline>
</glyph>
<glyph name="AE" format="1">
  <advance width="1040"/>
  <unicode hex="00C6"/>
  <outline>
    <contour>
      <point x="507" y="54" type="line"/>
      <point x="561" y="310" type="line"/>
      <point x="913" y="309" type="line" smooth="yes"/>
      <point x="928" y="309"/>
      <point x="943" y="321"/>
      <point x="946" y="337" type="curve" smooth="yes"/>
      <point x="949" y="351"/>
      <point x="940" y="364"/>
      <point x="925" y="364" type="curve" smooth="yes"/>
      <point x="573" y="364" type="line"/>
      <point x="629" y="627" type="line"/>
      <point x="1031" y="627" type="line" smooth="yes"/>
      <point x="1047" y="627"/>
      <point x="1061" y="640"/>
      <point x="1064" y="654" type="curve" smooth="yes"/>
      <point x="1067" y="670"/>
      <point x="1058" y="681"/>
      <point x="1042" y="681" type="curve" smooth="yes"/>
      <point x="610" y="681" type="line" smooth="yes"/>
      <point x="601" y="681"/>
      <point x="593" y="675"/>
      <point x="589" y="670" type="curve" smooth="yes"/>
      <point x="255" y="307" type="line"/>
      <point x="182" y="293" type="line" smooth="yes"/>
      <point x="167" y="290"/>
      <point x="156" y="280"/>
      <point x="153" y="267" type="curve" smooth="yes"/>
      <point x="150" y="251"/>
      <point x="160" y="236"/>
      <point x="175" y="239" type="curve" smooth="yes"/>
      <point x="195" y="243" type="line"/>
      <point x="8" y="39" type="line" smooth="yes"/>
      <point x="3" y="34"/>
      <point x="1" y="29"/>
      <point x="-1" y="23" type="curve"/>
      <point x="-3" y="10"/>
      <point x="7" y="-3"/>
      <point x="21" y="-3" type="curve" smooth="yes"/>
      <point x="29" y="-3"/>
      <point x="39" y="1"/>
      <point x="45" y="8" type="curve" smooth="yes"/>
      <point x="275" y="258" type="line"/>
      <point x="506" y="304" type="line"/>
      <point x="447" y="27" type="line" smooth="yes"/>
      <point x="444" y="12"/>
      <point x="454" y="0"/>
      <point x="469" y="0" type="curve" smooth="yes"/>
      <point x="898" y="0" type="line" smooth="yes"/>
      <point x="914" y="0"/>
      <point x="927" y="12"/>
      <point x="930" y="27" type="curve" smooth="yes"/>
      <point x="934" y="43"/>
      <point x="925" y="54"/>
      <point x="909" y="54" type="curve" smooth="yes"/>
    </contour>
    <contour>
      <point x="336" y="323" type="line"/>
      <point x="562" y="569" type="line"/>
      <point x="518" y="359" type="line"/>
    </contour>
  </outline>
</glyph>
<glyph name="Eacute" format="1">
  <advance width="610"/>
  <unicode hex="00C9"/>
  <outline>
    <contour>
      <point x="522" y="835" type="line" smooth="yes"/>
      <point x="530" y="840"/>
      <point x="535" y="849"/>
      <point x="537" y="858" type="curve" smooth="yes"/>
      <point x="541" y="878"/>
      <point x="530" y="894"/>
      <point x="511" y="894" type="curve" smooth="yes"/>
      <point x="500" y="894"/>
      <point x="488" y="886"/>
      <point x="478" y="879" type="curve" smooth="yes"/>
      <point x="330" y="776" type="line" smooth="yes"/>
      <point x="325" y="772"/>
      <point x="322" y="765"/>
      <point x="321" y="759" type="curve" smooth="yes"/>
      <point x="318" y="744"/>
      <point x="327" y="732"/>
      <point x="341" y="732" type="curve" smooth="yes"/>
      <point x="347" y="732"/>
      <point x="356" y="736"/>
      <point x="364" y="741" type="curve" smooth="yes"/>
    </contour>
    <contour>
      <point x="79" y="57" type="line"/>
      <point x="135" y="324" type="line"/>
      <point x="486" y="324" type="line" smooth="yes"/>
      <point x="502" y="324"/>
      <point x="517" y="337"/>
      <point x="521" y="353" type="curve" smooth="yes"/>
      <point x="524" y="369"/>
      <point x="514" y="381"/>
      <point x="498" y="381" type="curve" smooth="yes"/>
      <point x="147" y="381" type="line"/>
      <point x="199" y="625" type="line"/>
      <point x="599" y="625" type="line" smooth="yes"/>
      <point x="615" y="625"/>
      <point x="630" y="638"/>
      <point x="634" y="654" type="curve" smooth="yes"/>
      <point x="637" y="670"/>
      <point x="627" y="682"/>
      <point x="611" y="682" type="curve" smooth="yes"/>
      <point x="183" y="682" type="line" smooth="yes"/>
      <point x="167" y="682"/>
      <point x="152" y="670"/>
      <point x="149" y="654" type="curve" smooth="yes"/>
      <point x="16" y="29" type="line" smooth="yes"/>
      <point x="12" y="13"/>
      <point x="23" y="0"/>
      <point x="39" y="0" type="curve" smooth="yes"/>
      <point x="465" y="0" type="line" smooth="yes"/>
      <point x="481" y="0"/>
      <point x="495" y="13"/>
      <point x="499" y="29" type="curve" smooth="yes"/>
      <point x="502" y="45"/>
      <point x="493" y="57"/>
      <point x="477" y="57" type="curve" smooth="yes"/>
    </contour>
  </outline>
</glyph>
<glyph name="Ecircumflex" format="1">
  <advance width="610"/>
  <unicode hex="00CA"/>
  <outline>
    <contour>
      <point x="481" y="887" type="curve"/>
      <point x="568" y="777" type="line"/>
      <point x="573" y="772"/>
      <point x="574" y="765"/>
      <point x="572" y="757" type="curve" smooth="yes"/>
      <point x="569" y="743"/>
      <point x="555" y="731"/>
      <point x="541" y="731" type="curve" smooth="yes"/>
      <point x="534" y="731"/>
      <point x="527" y="733"/>
      <point x="523" y="738" type="curve" smooth="yes"/>
      <point x="446" y="825" type="line"/>
      <point x="312" y="736" type="line" smooth="yes"/>
      <point x="306" y="732"/>
      <point x="300" y="731"/>
      <point x="294" y="731" type="curve" smooth="yes"/>
      <point x="281.686" y="731"/>
      <point x="272.466" y="739.511"/>
      <point x="272.466" y="751.768" type="curve" smooth="yes"/>
      <point x="272.466" y="753.446"/>
      <point x="272.639" y="755.194"/>
      <point x="273" y="757" type="curve" smooth="yes"/>
      <point x="275" y="765"/>
      <point x="280" y="773"/>
      <point x="288" y="778" type="curve" smooth="yes"/>
      <point x="442" y="888" type="line" smooth="yes"/>
      <point x="449" y="893"/>
      <point x="457" y="895"/>
      <point x="463" y="895" type="curve" smooth="yes"/>
      <point x="470" y="895"/>
      <point x="476" y="892"/>
    </contour>
    <contour>
      <point x="79" y="57" type="line"/>
      <point x="477" y="57" type="line" smooth="yes"/>
      <point x="490.945" y="57"/>
      <point x="499.573" y="47.8845"/>
      <point x="499.573" y="34.9501" type="curve" smooth="yes"/>
      <point x="499.573" y="33.044"/>
      <point x="499.385" y="31.055"/>
      <point x="499" y="29" type="curve" smooth="yes"/>
      <point x="495" y="13"/>
      <point x="481" y="0"/>
      <point x="465" y="0" type="curve" smooth="yes"/>
      <point x="39" y="0" type="line" smooth="yes"/>
      <point x="25.2376" y="0"/>
      <point x="15.1746" y="9.61809"/>
      <point x="15.1746" y="22.4904" type="curve" smooth="yes"/>
      <point x="15.1746" y="24.5834"/>
      <point x="15.4406" y="26.7624"/>
      <point x="16" y="29" type="curve" smooth="yes"/>
      <point x="149" y="654" type="line" smooth="yes"/>
      <point x="152" y="670"/>
      <point x="167" y="682"/>
      <point x="183" y="682" type="curve" smooth="yes"/>
      <point x="611" y="682" type="line" smooth="yes"/>
      <point x="625.093" y="682"/>
      <point x="634.531" y="672.691"/>
      <point x="634.531" y="659.538" type="curve" smooth="yes"/>
      <point x="634.531" y="657.758"/>
      <point x="634.358" y="655.907"/>
      <point x="634" y="654" type="curve" smooth="yes"/>
      <point x="630" y="638"/>
      <point x="615" y="625"/>
      <point x="599" y="625" type="curve" smooth="yes"/>
      <point x="199" y="625" type="line"/>
      <point x="147" y="381" type="line"/>
      <point x="498" y="381" type="line" smooth="yes"/>
      <point x="512.093" y="381"/>
      <point x="521.531" y="371.691"/>
      <point x="521.531" y="358.538" type="curve" smooth="yes"/>
      <point x="521.531" y="356.758"/>
      <point x="521.358" y="354.907"/>
      <point x="521" y="353" type="curve" smooth="yes"/>
      <point x="517" y="337"/>
      <point x="502" y="324"/>
      <point x="486" y="324" type="curve" smooth="yes"/>
      <point x="135" y="324" type="line"/>
    </contour>
  </outline>
</glyph>
<glyph name="Edieresis" format="1">
  <advance width="610"/>
  <unicode hex="00CB"/>
  <outline>
    <contour>
      <point x="391" y="777" type="curve" smooth="yes"/>
      <point x="386" y="753"/>
      <point x="359" y="733"/>
      <point x="330" y="733" type="curve" smooth="yes"/>
      <point x="308.085" y="733"/>
      <point x="293.086" y="745.295"/>
      <point x="293.086" y="763.822" type="curve" smooth="yes"/>
      <point x="293.086" y="766.43"/>
      <point x="293.383" y="769.162"/>
      <point x="294" y="772" type="curve" smooth="yes"/>
      <point x="298" y="795"/>
      <point x="326" y="816"/>
      <point x="354" y="816" type="curve" smooth="yes"/>
      <point x="374.83" y="816"/>
      <point x="391.559" y="802.057"/>
      <point x="391.559" y="783.083" type="curve" smooth="yes"/>
      <point x="391.559" y="781.107"/>
      <point x="391.377" y="779.076"/>
    </contour>
    <contour>
      <point x="550" y="777" type="curve" smooth="yes"/>
      <point x="545" y="753"/>
      <point x="518" y="733"/>
      <point x="489" y="733" type="curve" smooth="yes"/>
      <point x="467.085" y="733"/>
      <point x="452.086" y="745.295"/>
      <point x="452.086" y="763.822" type="curve" smooth="yes"/>
      <point x="452.086" y="766.43"/>
      <point x="452.383" y="769.162"/>
      <point x="453" y="772" type="curve" smooth="yes"/>
      <point x="457" y="795"/>
      <point x="485" y="816"/>
      <point x="513" y="816" type="curve" smooth="yes"/>
      <point x="533.83" y="816"/>
      <point x="550.559" y="802.057"/>
      <point x="550.559" y="783.083" type="curve" smooth="yes"/>
      <point x="550.559" y="781.107"/>
      <point x="550.377" y="779.076"/>
    </contour>
    <contour>
      <point x="79" y="57" type="line"/>
      <point x="477" y="57" type="line" smooth="yes"/>
      <point x="490.945" y="57"/>
      <point x="499.573" y="47.8845"/>
      <point x="499.573" y="34.9501" type="curve" smooth="yes"/>
      <point x="499.573" y="33.044"/>
      <point x="499.385" y="31.055"/>
      <point x="499" y="29" type="curve" smooth="yes"/>
      <point x="495" y="13"/>
      <point x="481" y="0"/>
      <point x="465" y="0" type="curve" smooth="yes"/>
      <point x="39" y="0" type="line" smooth="yes"/>
      <point x="25.2376" y="0"/>
      <point x="15.1746" y="9.61809"/>
      <point x="15.1746" y="22.4904" type="curve" smooth="yes"/>
      <point x="15.1746" y="24.5834"/>
      <point x="15.4406" y="26.7624"/>
      <point x="16" y="29" type="curve" smooth="yes"/>
      <point x="149" y="654" type="line" smooth="yes"/>
      <point x="152" y="670"/>
      <point x="167" y="682"/>
      <point x="183" y="682" type="curve" smooth="yes"/>
      <point x="611" y="682" type="line" smooth="yes"/>
      <point x="625.093" y="682"/>
      <point x="634.531" y="672.691"/>
      <point x="634.531" y="659.538" type="curve" smooth="yes"/>
      <point x="634.531" y="657.758"/>
      <point x="634.358" y="655.907"/>
      <point x="634" y="654" type="curve" smooth="yes"/>
      <point x="630" y="638"/>
      <point x="615" y="625"/>
      <point x="599" y="625" type="curve" smooth="yes"/>
      <point x="199" y="625" type="line"/>
      <point x="147" y="381" type="line"/>
      <point x="498" y="381" type="line" smooth="yes"/>
      <point x="512.093" y="381"/>
      <point x="521.531" y="371.691"/>
      <point x="521.531" y="358.538" type="curve" smooth="yes"/>
      <point x="521.531" y="356.758"/>
      <point x="521.358" y="354.907"/>
      <point x="521" y="353" type="curve" smooth="yes"/>
      <point x="517" y="337"/>
      <point x="502" y="324"/>
      <point x="486" y="324" type="curve" smooth="yes"/>
      <point x="135" y="324" type="line"/>
    </contour>
  </outline>
</glyph>
<glyph name="Igrave" format="1">
  <advance width="433"/>
  <unicode hex="00CC"/>
  <outline>
    <contour>
      <point x="202" y="56" type="line"/>
      <point x="323" y="624" type="line"/>
      <point x="422" y="624" type="line" smooth="yes"/>
      <point x="438" y="624"/>
      <point x="453" y="637"/>
      <point x="456" y="653" type="curve" smooth="yes"/>
      <point x="460" y="669"/>
      <point x="450" y="681"/>
      <point x="434" y="681" type="curve" smooth="yes"/>
      <point x="178" y="681" type="line" smooth="yes"/>
      <point x="162" y="681"/>
      <point x="147" y="669"/>
      <point x="143" y="653" type="curve" smooth="yes"/>
      <point x="140" y="637"/>
      <point x="150" y="624"/>
      <point x="166" y="624" type="curve" smooth="yes"/>
      <point x="266" y="624" type="line"/>
      <point x="145" y="56" type="line"/>
      <point x="45" y="56" type="line" smooth="yes"/>
      <point x="29" y="56"/>
      <point x="14" y="44"/>
      <point x="10" y="28" type="curve" smooth="yes"/>
      <point x="7" y="12"/>
      <point x="17" y="-1"/>
      <point x="33" y="-1" type="curve" smooth="yes"/>
      <point x="289" y="-1" type="line" smooth="yes"/>
      <point x="305" y="-1"/>
      <point x="320" y="12"/>
      <point x="323" y="28" type="curve" smooth="yes"/>
      <point x="327" y="44"/>
      <point x="318" y="56"/>
      <point x="301" y="56" type="curve" smooth="yes"/>
    </contour>
    <contour>
      <point x="350" y="725" type="line" smooth="yes"/>
      <point x="354" y="720"/>
      <point x="359" y="716"/>
      <point x="367" y="716" type="curve" smooth="yes"/>
      <point x="381" y="716"/>
      <point x="397" y="727"/>
      <point x="400" y="742" type="curve" smooth="yes"/>
      <point x="401" y="748"/>
      <point x="401" y="753"/>
      <point x="397" y="760" type="curve" smooth="yes"/>
      <point x="320" y="890" type="line"/>
      <point x="314" y="898"/>
      <point x="305" y="905"/>
      <point x="294" y="905" type="curve" smooth="yes"/>
      <point x="276" y="905"/>
      <point x="255" y="889"/>
      <point x="252" y="871" type="curve" smooth="yes"/>
      <point x="250" y="861"/>
      <point x="252" y="853"/>
      <point x="257" y="846" type="curve" smooth="yes"/>
    </contour>
  </outline>
</glyph>
<glyph name="Iacute" format="1">
  <advance width="433"/>
  <unicode hex="00CD"/>
  <outline>
    <contour>
      <point x="202" y="56" type="line"/>
      <point x="301" y="56" type="line" smooth="yes"/>
      <point x="315.302" y="56"/>
      <point x="323.942" y="47.5063"/>
      <point x="323.942" y="35.2829" type="curve" smooth="yes"/>
      <point x="323.942" y="32.9773"/>
      <point x="323.635" y="30.539"/>
      <point x="323" y="28" type="curve" smooth="yes"/>
      <point x="320" y="12"/>
      <point x="305" y="-1"/>
      <point x="289" y="-1" type="curve" smooth="yes"/>
      <point x="33" y="-1" type="line" smooth="yes"/>
      <point x="18.9074" y="-1"/>
      <point x="9.46948" y="9.08527"/>
      <point x="9.46948" y="22.4227" type="curve" smooth="yes"/>
      <point x="9.46948" y="24.2279"/>
      <point x="9.64237" y="26.0926"/>
      <point x="10" y="28" type="curve" smooth="yes"/>
      <point x="14" y="44"/>
      <point x="29" y="56"/>
      <point x="45" y="56" type="curve" smooth="yes"/>
      <point x="145" y="56" type="line"/>
      <point x="266" y="624" type="line"/>
      <point x="166" y="624" type="line" smooth="yes"/>
      <point x="151.907" y="624"/>
      <point x="142.469" y="634.085"/>
      <point x="142.469" y="647.423" type="curve" smooth="yes"/>
      <point x="142.469" y="649.228"/>
      <point x="142.642" y="651.093"/>
      <point x="143" y="653" type="curve" smooth="yes"/>
      <point x="147" y="669"/>
      <point x="162" y="681"/>
      <point x="178" y="681" type="curve" smooth="yes"/>
      <point x="434" y="681" type="line" smooth="yes"/>
      <point x="447.612" y="681"/>
      <point x="456.882" y="672.314"/>
      <point x="456.882" y="659.869" type="curve" smooth="yes"/>
      <point x="456.882" y="657.686"/>
      <point x="456.597" y="655.388"/>
      <point x="456" y="653" type="curve" smooth="yes"/>
      <point x="453" y="637"/>
      <point x="438" y="624"/>
      <point x="422" y="624" type="curve" smooth="yes"/>
      <point x="323" y="624" type="line"/>
    </contour>
    <contour>
      <point x="446" y="835" type="curve" smooth="yes"/>
      <point x="288" y="741" type="line" smooth="yes"/>
      <point x="280" y="736"/>
      <point x="271" y="732"/>
      <point x="265" y="732" type="curve" smooth="yes"/>
      <point x="252.819" y="732"/>
      <point x="244.423" y="741.084"/>
      <point x="244.423" y="753.325" type="curve" smooth="yes"/>
      <point x="244.423" y="755.153"/>
      <point x="244.61" y="757.051"/>
      <point x="245" y="759" type="curve" smooth="yes"/>
      <point x="246" y="765"/>
      <point x="249" y="772"/>
      <point x="254" y="776" type="curve" smooth="yes"/>
      <point x="402" y="879" type="line" smooth="yes"/>
      <point x="412" y="886"/>
      <point x="424" y="894"/>
      <point x="435" y="894" type="curve" smooth="yes"/>
      <point x="451.383" y="894"/>
      <point x="461.817" y="882.105"/>
      <point x="461.817" y="866.007" type="curve" smooth="yes"/>
      <point x="461.817" y="863.435"/>
      <point x="461.551" y="860.755"/>
      <point x="461" y="858" type="curve" smooth="yes"/>
      <point x="459" y="849"/>
      <point x="454" y="840"/>
    </contour>
  </outline>
</glyph>
<glyph name="Icircumflex" format="1">
  <advance width="433"/>
  <unicode hex="00CE"/>
  <outline>
    <contour>
      <point x="202" y="56" type="line"/>
      <point x="323" y="624" type="line"/>
      <point x="422" y="624" type="line" smooth="yes"/>
      <point x="438" y="624"/>
      <point x="453" y="637"/>
      <point x="456" y="653" type="curve" smooth="yes"/>
      <point x="460" y="669"/>
      <point x="450" y="681"/>
      <point x="434" y="681" type="curve" smooth="yes"/>
      <point x="178" y="681" type="line" smooth="yes"/>
      <point x="162" y="681"/>
      <point x="147" y="669"/>
      <point x="143" y="653" type="curve" smooth="yes"/>
      <point x="140" y="637"/>
      <point x="150" y="624"/>
      <point x="166" y="624" type="curve" smooth="yes"/>
      <point x="266" y="624" type="line"/>
      <point x="145" y="56" type="line"/>
      <point x="45" y="56" type="line" smooth="yes"/>
      <point x="29" y="56"/>
      <point x="14" y="44"/>
      <point x="10" y="28" type="curve" smooth="yes"/>
      <point x="7" y="12"/>
      <point x="17" y="-1"/>
      <point x="33" y="-1" type="curve" smooth="yes"/>
      <point x="289" y="-1" type="line" smooth="yes"/>
      <point x="305" y="-1"/>
      <point x="320" y="12"/>
      <point x="323" y="28" type="curve" smooth="yes"/>
      <point x="327" y="44"/>
      <point x="318" y="56"/>
      <point x="301" y="56" type="curve" smooth="yes"/>
    </contour>
    <contour>
      <point x="386" y="887" type="line"/>
      <point x="381" y="892"/>
      <point x="375" y="895"/>
      <point x="368" y="895" type="curve" smooth="yes"/>
      <point x="362" y="895"/>
      <point x="354" y="893"/>
      <point x="347" y="888" type="curve" smooth="yes"/>
      <point x="193" y="778" type="line" smooth="yes"/>
      <point x="185" y="773"/>
      <point x="180" y="765"/>
      <point x="178" y="757" type="curve" smooth="yes"/>
      <point x="175" y="742"/>
      <point x="185" y="731"/>
      <point x="199" y="731" type="curve" smooth="yes"/>
      <point x="205" y="731"/>
      <point x="211" y="732"/>
      <point x="217" y="736" type="curve" smooth="yes"/>
      <point x="351" y="825" type="line"/>
      <point x="428" y="738" type="line" smooth="yes"/>
      <point x="432" y="733"/>
      <point x="439" y="731"/>
      <point x="446" y="731" type="curve" smooth="yes"/>
      <point x="460" y="731"/>
      <point x="474" y="743"/>
      <point x="477" y="757" type="curve" smooth="yes"/>
      <point x="479" y="765"/>
      <point x="478" y="772"/>
      <point x="473" y="777" type="curve"/>
    </contour>
  </outline>
</glyph>
<glyph name="Idieresis" format="1">
  <advance width="433"/>
  <unicode hex="00CF"/>
  <outline>
    <contour>
      <point x="202" y="56" type="line"/>
      <point x="323" y="624" type="line"/>
      <point x="422" y="624" type="line" smooth="yes"/>
      <point x="438" y="624"/>
      <point x="453" y="637"/>
      <point x="456" y="653" type="curve" smooth="yes"/>
      <point x="460" y="669"/>
      <point x="450" y="681"/>
      <point x="434" y="681" type="curve" smooth="yes"/>
      <point x="178" y="681" type="line" smooth="yes"/>
      <point x="162" y="681"/>
      <point x="147" y="669"/>
      <point x="143" y="653" type="curve" smooth="yes"/>
      <point x="140" y="637"/>
      <point x="150" y="624"/>
      <point x="166" y="624" type="curve" smooth="yes"/>
      <point x="266" y="624" type="line"/>
      <point x="145" y="56" type="line"/>
      <point x="45" y="56" type="line" smooth="yes"/>
      <point x="29" y="56"/>
      <point x="14" y="44"/>
      <point x="10" y="28" type="curve" smooth="yes"/>
      <point x="7" y="12"/>
      <point x="17" y="-1"/>
      <point x="33" y="-1" type="curve" smooth="yes"/>
      <point x="289" y="-1" type="line" smooth="yes"/>
      <point x="305" y="-1"/>
      <point x="320" y="12"/>
      <point x="323" y="28" type="curve" smooth="yes"/>
      <point x="327" y="44"/>
      <point x="318" y="56"/>
      <point x="301" y="56" type="curve" smooth="yes"/>
    </contour>
    <contour>
      <point x="300" y="777" type="curve" smooth="yes"/>
      <point x="304" y="799"/>
      <point x="286" y="816"/>
      <point x="263" y="816" type="curve" smooth="yes"/>
      <point x="235" y="816"/>
      <point x="207" y="795"/>
      <point x="203" y="772" type="curve" smooth="yes"/>
      <point x="198" y="749"/>
      <point x="214" y="733"/>
      <point x="239" y="733" type="curve" smooth="yes"/>
      <point x="268" y="733"/>
      <point x="295" y="753"/>
    </contour>
    <contour>
      <point x="459" y="777" type="curve" smooth="yes"/>
      <point x="463" y="799"/>
      <point x="445" y="816"/>
      <point x="422" y="816" type="curve" smooth="yes"/>
      <point x="394" y="816"/>
      <point x="366" y="795"/>
      <point x="362" y="772" type="curve" smooth="yes"/>
      <point x="357" y="749"/>
      <point x="373" y="733"/>
      <point x="398" y="733" type="curve" smooth="yes"/>
      <point x="427" y="733"/>
      <point x="454" y="753"/>
    </contour>
  </outline>
</glyph>
<glyph name="Eth" format="1">
  <advance width="655"/>
  <unicode hex="00D0"/>
  <outline>
    <contour>
      <point x="211" y="-20" type="curve" smooth="yes"/>
      <point x="404" y="-20"/>
      <point x="565" y="77"/>
      <point x="612" y="300" type="curve" smooth="yes"/>
      <point x="682" y="626"/>
      <point x="407" y="681"/>
      <point x="244" y="681" type="curve" smooth="yes"/>
      <point x="228" y="681"/>
      <point x="213" y="669"/>
      <point x="209" y="653" type="curve" smooth="yes"/>
      <point x="142" y="338" type="line"/>
      <point x="79" y="338" type="line" smooth="yes"/>
      <point x="64" y="338"/>
      <point x="49" y="325"/>
      <point x="45" y="309" type="curve" smooth="yes"/>
      <point x="42" y="294"/>
      <point x="52" y="281"/>
      <point x="67" y="281" type="curve" smooth="yes"/>
      <point x="130" y="281" type="line"/>
      <point x="76" y="25" type="line" smooth="yes"/>
      <point x="73" y="12"/>
      <point x="80" y="0"/>
      <point x="92" y="-3" type="curve" smooth="yes"/>
      <point x="99" y="-5"/>
      <point x="152" y="-20"/>
    </contour>
    <contour>
      <point x="184" y="281" type="line"/>
      <point x="288" y="281" type="line" smooth="yes"/>
      <point x="303" y="281"/>
      <point x="319" y="294"/>
      <point x="322" y="309" type="curve" smooth="yes"/>
      <point x="326" y="325"/>
      <point x="315" y="338"/>
      <point x="300" y="338" type="curve" smooth="yes"/>
      <point x="196" y="338" type="line"/>
      <point x="257" y="624" type="line"/>
      <point x="458" y="615"/>
      <point x="607" y="532"/>
      <point x="557" y="300" type="curve"/>
      <point x="520" y="123"/>
      <point x="401" y="37"/>
      <point x="223" y="37" type="curve" smooth="yes"/>
      <point x="191" y="37"/>
      <point x="156" y="43"/>
      <point x="135" y="48" type="curve"/>
    </contour>
  </outline>
</glyph>
<glyph name="Oacute" format="1">
  <advance width="660"/>
  <unicode hex="00D3"/>
  <outline>
    <contour>
      <point x="253" y="-2" type="curve" smooth="yes"/>
      <point x="132.657" y="-2"/>
      <point x="61.9085" y="97.8796"/>
      <point x="61.9085" y="229.036" type="curve" smooth="yes"/>
      <point x="61.9085" y="255.907"/>
      <point x="64.8784" y="284.092"/>
      <point x="71" y="313" type="curve" smooth="yes"/>
      <point x="114" y="513"/>
      <point x="284" y="682"/>
      <point x="440" y="682" type="curve" smooth="yes"/>
      <point x="559.885" y="682"/>
      <point x="631.945" y="582.885"/>
      <point x="631.945" y="450.438" type="curve" smooth="yes"/>
      <point x="631.945" y="423.796"/>
      <point x="629.029" y="395.805"/>
      <point x="623" y="367" type="curve" smooth="yes"/>
      <point x="580" y="167"/>
      <point x="409" y="-2"/>
    </contour>
    <contour>
      <point x="422" y="630" type="curve" smooth="yes"/>
      <point x="299" y="630"/>
      <point x="161" y="489"/>
      <point x="124" y="313" type="curve" smooth="yes"/>
      <point x="118.359" y="286.797"/>
      <point x="115.632" y="261.421"/>
      <point x="115.632" y="237.439" type="curve" smooth="yes"/>
      <point x="115.632" y="129.632"/>
      <point x="170.744" y="50"/>
      <point x="264" y="50" type="curve" smooth="yes"/>
      <point x="387" y="50"/>
      <point x="533" y="193"/>
      <point x="569" y="363" type="curve" smooth="yes"/>
      <point x="573.768" y="385.989"/>
      <point x="576.1" y="408.892"/>
      <point x="576.1" y="431.07" type="curve" smooth="yes"/>
      <point x="576.1" y="539.129"/>
      <point x="520.735" y="630"/>
    </contour>
    <contour>
      <point x="577" y="835" type="curve" smooth="yes"/>
      <point x="419" y="741" type="line" smooth="yes"/>
      <point x="411" y="736"/>
      <point x="402" y="732"/>
      <point x="396" y="732" type="curve" smooth="yes"/>
      <point x="383.819" y="732"/>
      <point x="375.423" y="741.084"/>
      <point x="375.423" y="753.325" type="curve" smooth="yes"/>
      <point x="375.423" y="755.153"/>
      <point x="375.61" y="757.051"/>
      <point x="376" y="759" type="curve" smooth="yes"/>
      <point x="377" y="765"/>
      <point x="380" y="772"/>
      <point x="385" y="776" type="curve" smooth="yes"/>
      <point x="533" y="879" type="line" smooth="yes"/>
      <point x="543" y="886"/>
      <point x="555" y="894"/>
      <point x="566" y="894" type="curve" smooth="yes"/>
      <point x="582.383" y="894"/>
      <point x="592.817" y="882.105"/>
      <point x="592.817" y="866.007" type="curve" smooth="yes"/>
      <point x="592.817" y="863.435"/>
      <point x="592.551" y="860.755"/>
      <point x="592" y="858" type="curve" smooth="yes"/>
      <point x="590" y="849"/>
      <point x="585" y="840"/>
    </contour>
  </outline>
</glyph>
<glyph name="Ocircumflex" format="1">
  <advance width="660"/>
  <unicode hex="00D4"/>
  <outline>
    <contour>
      <point x="253" y="-2" type="curve" smooth="yes"/>
      <point x="409" y="-2"/>
      <point x="580" y="167"/>
      <point x="623" y="367" type="curve" smooth="yes"/>
      <point x="659" y="539"/>
      <point x="584" y="682"/>
      <point x="440" y="682" type="curve" smooth="yes"/>
      <point x="284" y="682"/>
      <point x="114" y="513"/>
      <point x="71" y="313" type="curve" smooth="yes"/>
      <point x="35" y="143"/>
      <point x="108" y="-2"/>
    </contour>
    <contour>
      <point x="422" y="630" type="curve" smooth="yes"/>
      <point x="541" y="630"/>
      <point x="597" y="498"/>
      <point x="569" y="363" type="curve" smooth="yes"/>
      <point x="533" y="193"/>
      <point x="387" y="50"/>
      <point x="264" y="50" type="curve" smooth="yes"/>
      <point x="150" y="50"/>
      <point x="93" y="169"/>
      <point x="124" y="313" type="curve" smooth="yes"/>
      <point x="161" y="489"/>
      <point x="299" y="630"/>
    </contour>
    <contour>
      <point x="522" y="887" type="line"/>
      <point x="517" y="892"/>
      <point x="511" y="895"/>
      <point x="504" y="895" type="curve" smooth="yes"/>
      <point x="498" y="895"/>
      <point x="490" y="893"/>
      <point x="483" y="888" type="curve" smooth="yes"/>
      <point x="329" y="778" type="line" smooth="yes"/>
      <point x="321" y="773"/>
      <point x="316" y="765"/>
      <point x="314" y="757" type="curve" smooth="yes"/>
      <point x="311" y="742"/>
      <point x="321" y="731"/>
      <point x="335" y="731" type="curve" smooth="yes"/>
      <point x="341" y="731"/>
      <point x="347" y="732"/>
      <point x="353" y="736" type="curve" smooth="yes"/>
      <point x="487" y="825" type="line"/>
      <point x="564" y="738" type="line" smooth="yes"/>
      <point x="568" y="733"/>
      <point x="575" y="731"/>
      <point x="582" y="731" type="curve" smooth="yes"/>
      <point x="596" y="731"/>
      <point x="610" y="743"/>
      <point x="613" y="757" type="curve" smooth="yes"/>
      <point x="615" y="765"/>
      <point x="614" y="772"/>
      <point x="609" y="777" type="curve"/>
    </contour>
  </outline>
</glyph>
<glyph name="Oslash" format="1">
  <advance width="660"/>
  <unicode hex="00D8"/>
  <outline>
    <contour>
      <point x="253" y="-2" type="curve" smooth="yes"/>
      <point x="409" y="-2"/>
      <point x="580" y="167"/>
      <point x="623" y="367" type="curve" smooth="yes"/>
      <point x="645" y="473"/>
      <point x="625" y="567"/>
      <point x="573" y="625" type="curve"/>
      <point x="634" y="704" type="line" smooth="yes"/>
      <point x="637" y="708"/>
      <point x="639" y="713"/>
      <point x="640" y="717" type="curve" smooth="yes"/>
      <point x="643" y="733"/>
      <point x="631" y="743"/>
      <point x="619" y="743" type="curve" smooth="yes"/>
      <point x="609" y="743"/>
      <point x="599" y="738"/>
      <point x="594" y="730" type="curve"/>
      <point x="537" y="655" type="line"/>
      <point x="509" y="672"/>
      <point x="477" y="682"/>
      <point x="440" y="682" type="curve" smooth="yes"/>
      <point x="284" y="682"/>
      <point x="114" y="513"/>
      <point x="71" y="313" type="curve" smooth="yes"/>
      <point x="52" y="224"/>
      <point x="63" y="143"/>
      <point x="98" y="85" type="curve"/>
      <point x="38" y="7" type="line" smooth="yes"/>
      <point x="35" y="3"/>
      <point x="33" y="-1"/>
      <point x="32" y="-5" type="curve" smooth="yes"/>
      <point x="29" y="-20"/>
      <point x="36" y="-32"/>
      <point x="54" y="-32" type="curve" smooth="yes"/>
      <point x="64" y="-32"/>
      <point x="72" y="-28"/>
      <point x="78" y="-19" type="curve" smooth="yes"/>
      <point x="128" y="46" type="line"/>
      <point x="160" y="15"/>
      <point x="202" y="-2"/>
    </contour>
    <contour>
      <point x="264" y="50" type="curve" smooth="yes"/>
      <point x="222" y="50"/>
      <point x="188" y="65"/>
      <point x="164" y="92" type="curve"/>
      <point x="535" y="574" type="line"/>
      <point x="573" y="523"/>
      <point x="586" y="443"/>
      <point x="569" y="363" type="curve" smooth="yes"/>
      <point x="533" y="193"/>
      <point x="387" y="50"/>
    </contour>
    <contour>
      <point x="422" y="630" type="curve" smooth="yes"/>
      <point x="451" y="630"/>
      <point x="478" y="622"/>
      <point x="500" y="607" type="curve"/>
      <point x="136" y="135" type="line"/>
      <point x="114" y="182"/>
      <point x="109" y="244"/>
      <point x="124" y="313" type="curve" smooth="yes"/>
      <point x="161" y="489"/>
      <point x="299" y="630"/>
    </contour>
  </outline>
</glyph>
<glyph name="Ugrave" format="1">
  <advance width="683"/>
  <unicode hex="00D9"/>
  <outline>
    <contour>
      <point x="699" y="653" type="curve" smooth="yes"/>
      <point x="702" y="668"/>
      <point x="692" y="681"/>
      <point x="677" y="681" type="curve" smooth="yes"/>
      <point x="659" y="681"/>
      <point x="646" y="667"/>
      <point x="643" y="651" type="curve" smooth="yes"/>
      <point x="615" y="518"/>
      <point x="594" y="397"/>
      <point x="555" y="277" type="curve" smooth="yes"/>
      <point x="510" y="139"/>
      <point x="425" y="49"/>
      <point x="290" y="49" type="curve" smooth="yes"/>
      <point x="114" y="49"/>
      <point x="123" y="236"/>
      <point x="148" y="381" type="curve"/>
      <point x="165" y="474"/>
      <point x="185" y="564"/>
      <point x="206" y="653" type="curve" smooth="yes"/>
      <point x="210" y="669"/>
      <point x="199" y="681"/>
      <point x="184" y="681" type="curve" smooth="yes"/>
      <point x="170" y="681"/>
      <point x="154" y="670"/>
      <point x="151" y="654" type="curve"/>
      <point x="131" y="569"/>
      <point x="108" y="474"/>
      <point x="90" y="367" type="curve"/>
      <point x="47" y="125"/>
      <point x="110" y="0"/>
      <point x="278" y="0" type="curve" smooth="yes"/>
      <point x="455" y="0"/>
      <point x="555" y="110"/>
      <point x="610" y="270" type="curve" smooth="yes"/>
      <point x="655" y="400"/>
      <point x="677" y="527"/>
    </contour>
    <contour>
      <point x="465" y="725" type="line" smooth="yes"/>
      <point x="469" y="720"/>
      <point x="474" y="716"/>
      <point x="482" y="716" type="curve" smooth="yes"/>
      <point x="496" y="716"/>
      <point x="512" y="727"/>
      <point x="515" y="742" type="curve" smooth="yes"/>
      <point x="516" y="748"/>
      <point x="516" y="753"/>
      <point x="512" y="760" type="curve" smooth="yes"/>
      <point x="435" y="890" type="line"/>
      <point x="429" y="898"/>
      <point x="420" y="905"/>
      <point x="409" y="905" type="curve" smooth="yes"/>
      <point x="391" y="905"/>
      <point x="370" y="889"/>
      <point x="367" y="871" type="curve" smooth="yes"/>
      <point x="365" y="861"/>
      <point x="367" y="853"/>
      <point x="372" y="846" type="curve" smooth="yes"/>
    </contour>
  </outline>
</glyph>
<glyph name="Ucircumflex" format="1">
  <advance width="683"/>
  <unicode hex="00DB"/>
  <outline>
    <contour>
      <point x="699" y="653" type="curve" smooth="yes"/>
      <point x="702" y="668"/>
      <point x="692" y="681"/>
      <point x="677" y="681" type="curve" smooth="yes"/>
      <point x="659" y="681"/>
      <point x="646" y="667"/>
      <point x="643" y="651" type="curve" smooth="yes"/>
      <point x="615" y="518"/>
      <point x="594" y="397"/>
      <point x="555" y="277" type="curve" smooth="yes"/>
      <point x="510" y="139"/>
      <point x="425" y="49"/>
      <point x="290" y="49" type="curve" smooth="yes"/>
      <point x="114" y="49"/>
      <point x="123" y="236"/>
      <point x="148" y="381" type="curve"/>
      <point x="165" y="474"/>
      <point x="185" y="564"/>
      <point x="206" y="653" type="curve" smooth="yes"/>
      <point x="210" y="669"/>
      <point x="199" y="681"/>
      <point x="184" y="681" type="curve" smooth="yes"/>
      <point x="170" y="681"/>
      <point x="154" y="670"/>
      <point x="151" y="654" type="curve"/>
      <point x="131" y="569"/>
      <point x="108" y="474"/>
      <point x="90" y="367" type="curve"/>
      <point x="47" y="125"/>
      <point x="110" y="0"/>
      <point x="278" y="0" type="curve" smooth="yes"/>
      <point x="455" y="0"/>
      <point x="555" y="110"/>
      <point x="610" y="270" type="curve" smooth="yes"/>
      <point x="655" y="400"/>
      <point x="677" y="527"/>
    </contour>
    <contour>
      <point x="515" y="887" type="line"/>
      <point x="510" y="892"/>
      <point x="504" y="895"/>
      <point x="497" y="895" type="curve" smooth="yes"/>
      <point x="491" y="895"/>
      <point x="483" y="893"/>
      <point x="476" y="888" type="curve" smooth="yes"/>
      <point x="322" y="778" type="line" smooth="yes"/>
      <point x="314" y="773"/>
      <point x="309" y="765"/>
      <point x="307" y="757" type="curve" smooth="yes"/>
      <point x="304" y="742"/>
      <point x="314" y="731"/>
      <point x="328" y="731" type="curve" smooth="yes"/>
      <point x="334" y="731"/>
      <point x="340" y="732"/>
      <point x="346" y="736" type="curve" smooth="yes"/>
      <point x="480" y="825" type="line"/>
      <point x="557" y="738" type="line" smooth="yes"/>
      <point x="561" y="733"/>
      <point x="568" y="731"/>
      <point x="575" y="731" type="curve" smooth="yes"/>
      <point x="589" y="731"/>
      <point x="603" y="743"/>
      <point x="606" y="757" type="curve" smooth="yes"/>
      <point x="608" y="765"/>
      <point x="607" y="772"/>
      <point x="602" y="777" type="curve"/>
    </contour>
  </outline>
</glyph>
<glyph name="Udieresis" format="1">
  <advance width="683"/>
  <unicode hex="00DC"/>
  <outline>
    <contour>
      <point x="699" y="653" type="curve" smooth="yes"/>
      <point x="702" y="668"/>
      <point x="692" y="681"/>
      <point x="677" y="681" type="curve" smooth="yes"/>
      <point x="659" y="681"/>
      <point x="646" y="667"/>
      <point x="643" y="651" type="curve" smooth="yes"/>
      <point x="615" y="518"/>
      <point x="594" y="397"/>
      <point x="555" y="277" type="curve" smooth="yes"/>
      <point x="510" y="139"/>
      <point x="425" y="49"/>
      <point x="290" y="49" type="curve" smooth="yes"/>
      <point x="114" y="49"/>
      <point x="123" y="236"/>
      <point x="148" y="381" type="curve"/>
      <point x="165" y="474"/>
      <point x="185" y="564"/>
      <point x="206" y="653" type="curve" smooth="yes"/>
      <point x="210" y="669"/>
      <point x="199" y="681"/>
      <point x="184" y="681" type="curve" smooth="yes"/>
      <point x="170" y="681"/>
      <point x="154" y="670"/>
      <point x="151" y="654" type="curve"/>
      <point x="131" y="569"/>
      <point x="108" y="474"/>
      <point x="90" y="367" type="curve"/>
      <point x="47" y="125"/>
      <point x="110" y="0"/>
      <point x="278" y="0" type="curve" smooth="yes"/>
      <point x="455" y="0"/>
      <point x="555" y="110"/>
      <point x="610" y="270" type="curve" smooth="yes"/>
      <point x="655" y="400"/>
      <point x="677" y="527"/>
    </contour>
    <contour>
      <point x="422" y="777" type="curve" smooth="yes"/>
      <point x="426" y="799"/>
      <point x="408" y="816"/>
      <point x="385" y="816" type="curve" smooth="yes"/>
      <point x="357" y="816"/>
      <point x="329" y="795"/>
      <point x="325" y="772" type="curve" smooth="yes"/>
      <point x="320" y="749"/>
      <point x="336" y="733"/>
      <point x="361" y="733" type="curve" smooth="yes"/>
      <point x="390" y="733"/>
      <point x="417" y="753"/>
    </contour>
    <contour>
      <point x="581" y="777" type="curve" smooth="yes"/>
      <point x="585" y="799"/>
      <point x="567" y="816"/>
      <point x="544" y="816" type="curve" smooth="yes"/>
      <point x="516" y="816"/>
      <point x="488" y="795"/>
      <point x="484" y="772" type="curve" smooth="yes"/>
      <point x="479" y="749"/>
      <point x="495" y="733"/>
      <point x="520" y="733" type="curve" smooth="yes"/>
      <point x="549" y="733"/>
      <point x="576" y="753"/>
    </contour>
  </outline>
</glyph>
<glyph name="Yacute" format="1">
  <advance width="593"/>
  <unicode hex="00DD"/>
  <outline>
    <contour>
      <point x="653" y="681" type="curve" smooth="yes"/>
      <point x="665.142" y="681"/>
      <point x="675.78" y="671.974"/>
      <point x="675.78" y="659.14" type="curve" smooth="yes"/>
      <point x="675.78" y="657.176"/>
      <point x="675.531" y="655.123"/>
      <point x="675" y="653" type="curve" smooth="yes"/>
      <point x="674" y="648"/>
      <point x="672" y="644"/>
      <point x="663" y="632" type="curve" smooth="yes"/>
      <point x="164" y="14" type="line"/>
      <point x="158" y="5"/>
      <point x="148" y="0"/>
      <point x="138" y="0" type="curve" smooth="yes"/>
      <point x="123.907" y="1.77636e-15"/>
      <point x="114.469" y="10.8611"/>
      <point x="114.469" y="23.0169" type="curve" smooth="yes"/>
      <point x="114.469" y="24.6621"/>
      <point x="114.642" y="26.3311"/>
      <point x="115" y="28" type="curve" smooth="yes"/>
      <point x="117" y="34"/>
      <point x="121" y="41"/>
      <point x="125" y="46" type="curve" smooth="yes"/>
      <point x="261" y="214" type="line"/>
      <point x="105" y="635" type="line" smooth="yes"/>
      <point x="103" y="642"/>
      <point x="102" y="648"/>
      <point x="103" y="653" type="curve" smooth="yes"/>
      <point x="106" y="668"/>
      <point x="122" y="681"/>
      <point x="138" y="681" type="curve" smooth="yes"/>
      <point x="147" y="681"/>
      <point x="155" y="676"/>
      <point x="158" y="667" type="curve" smooth="yes"/>
      <point x="306" y="269" type="line"/>
      <point x="626" y="667" type="line" smooth="yes"/>
      <point x="633" y="676"/>
      <point x="643" y="681"/>
    </contour>
    <contour>
      <point x="530" y="853" type="curve" smooth="yes"/>
      <point x="372" y="759" type="line" smooth="yes"/>
      <point x="364" y="754"/>
      <point x="355" y="750"/>
      <point x="349" y="750" type="curve" smooth="yes"/>
      <point x="337.114" y="750"/>
      <point x="328.111" y="758.65"/>
      <point x="328.111" y="770.441" type="curve" smooth="yes"/>
      <point x="328.111" y="772.538"/>
      <point x="328.396" y="774.735"/>
      <point x="329" y="777" type="curve" smooth="yes"/>
      <point x="330" y="783"/>
      <point x="332" y="790"/>
      <point x="338" y="794" type="curve" smooth="yes"/>
      <point x="486" y="897" type="line" smooth="yes"/>
      <point x="496" y="904"/>
      <point x="507" y="912"/>
      <point x="518" y="912" type="curve" smooth="yes"/>
      <point x="534.535" y="912"/>
      <point x="545.769" y="899.882"/>
      <point x="545.769" y="883.556" type="curve" smooth="yes"/>
      <point x="545.769" y="881.122"/>
      <point x="545.519" y="878.595"/>
      <point x="545" y="876" type="curve" smooth="yes"/>
      <point x="543" y="867"/>
      <point x="538" y="858"/>
    </contour>
  </outline>
</glyph>
<glyph name="Thorn" format="1">
  <advance width="547"/>
  <unicode hex="00DE"/>
  <outline>
    <contour>
      <point x="184" y="572" type="curve"/>
      <point x="202" y="654" type="line" smooth="yes"/>
      <point x="205" y="669"/>
      <point x="195" y="680"/>
      <point x="181" y="680" type="curve" smooth="yes"/>
      <point x="167" y="680"/>
      <point x="154" y="669"/>
      <point x="151" y="655" type="curve" smooth="yes"/>
      <point x="15" y="26" type="line" smooth="yes"/>
      <point x="12" y="11"/>
      <point x="21" y="0"/>
      <point x="35" y="0" type="curve" smooth="yes"/>
      <point x="50" y="0"/>
      <point x="63" y="11"/>
      <point x="66" y="25" type="curve" smooth="yes"/>
      <point x="91" y="143" type="line"/>
      <point x="234" y="146"/>
      <point x="461" y="198"/>
      <point x="498" y="375" type="curve" smooth="yes"/>
      <point x="536" y="553"/>
      <point x="332" y="572"/>
    </contour>
    <contour>
      <point x="104" y="198" type="curve"/>
      <point x="173" y="518" type="line"/>
      <point x="183" y="519"/>
      <point x="195" y="519"/>
      <point x="209" y="519" type="curve" smooth="yes"/>
      <point x="379" y="519"/>
      <point x="467" y="466"/>
      <point x="447" y="375" type="curve"/>
      <point x="418" y="236"/>
      <point x="206" y="199"/>
    </contour>
  </outline>
</glyph>
<glyph name="germandbls" format="1">
  <advance width="525"/>
  <unicode hex="00DF"/>
  <outline>
    <contour>
      <point x="217" y="-25" type="curve" smooth="yes"/>
      <point x="324" y="-25"/>
      <point x="433" y="65"/>
      <point x="456" y="172" type="curve" smooth="yes"/>
      <point x="475" y="261"/>
      <point x="436" y="334"/>
      <point x="362" y="360" type="curve"/>
      <point x="399" y="391"/>
      <point x="426" y="432"/>
      <point x="436" y="476" type="curve" smooth="yes"/>
      <point x="455" y="566"/>
      <point x="397" y="639"/>
      <point x="308" y="639" type="curve" smooth="yes"/>
      <point x="218" y="639"/>
      <point x="130" y="566"/>
      <point x="111" y="476" type="curve" smooth="yes"/>
      <point x="15" y="25" type="line" smooth="yes"/>
      <point x="12" y="11"/>
      <point x="21" y="-1"/>
      <point x="35" y="-1" type="curve" smooth="yes"/>
      <point x="49" y="-1"/>
      <point x="64" y="11"/>
      <point x="67" y="25" type="curve" smooth="yes"/>
      <point x="163" y="476" type="line" smooth="yes"/>
      <point x="176" y="537"/>
      <point x="236" y="587"/>
      <point x="297" y="587" type="curve" smooth="yes"/>
      <point x="358" y="587"/>
      <point x="397" y="537"/>
      <point x="384" y="476" type="curve" smooth="yes"/>
      <point x="372" y="421"/>
      <point x="319" y="371"/>
      <point x="264" y="367" type="curve" smooth="yes"/>
      <point x="248" y="366" type="line" smooth="yes"/>
      <point x="234" y="365"/>
      <point x="222" y="353"/>
      <point x="219" y="339" type="curve" smooth="yes"/>
      <point x="216" y="325"/>
      <point x="226" y="314"/>
      <point x="239" y="314" type="curve" smooth="yes"/>
      <point x="249" y="314"/>
      <point x="260" y="316"/>
      <point x="269" y="317" type="curve" smooth="yes"/>
      <point x="374" y="330"/>
      <point x="421" y="252"/>
      <point x="404" y="173" type="curve" smooth="yes"/>
      <point x="387" y="93"/>
      <point x="306" y="27"/>
      <point x="228" y="27" type="curve" smooth="yes"/>
      <point x="204" y="27"/>
      <point x="182" y="33"/>
      <point x="163" y="44" type="curve" smooth="yes"/>
      <point x="159" y="46"/>
      <point x="155" y="47"/>
      <point x="151" y="47" type="curve" smooth="yes"/>
      <point x="138" y="47"/>
      <point x="123" y="36"/>
      <point x="120" y="21" type="curve" smooth="yes"/>
      <point x="113" y="-11"/>
      <point x="179" y="-25"/>
    </contour>
  </outline>
</glyph>
<glyph name="aacute" format="1">
  <advance width="505"/>
  <unicode hex="00E1"/>
  <outline>
    <contour>
      <point x="483" y="463" type="line"/>
      <point x="470" y="471"/>
      <point x="415" y="504"/>
      <point x="341" y="504" type="curve" smooth="yes"/>
      <point x="167" y="504"/>
      <point x="62" y="318"/>
      <point x="40" y="214" type="curve" smooth="yes"/>
      <point x="13" y="85"/>
      <point x="74" y="-2"/>
      <point x="182" y="-2" type="curve" smooth="yes"/>
      <point x="237" y="-2"/>
      <point x="297" y="23"/>
      <point x="338" y="45" type="curve"/>
      <point x="333" y="22" type="line" smooth="yes"/>
      <point x="330" y="5"/>
      <point x="335" y="-10"/>
      <point x="354" y="-10" type="curve" smooth="yes"/>
      <point x="370" y="-10"/>
      <point x="385" y="4"/>
      <point x="389" y="20" type="curve" smooth="yes"/>
    </contour>
    <contour>
      <point x="350" y="111" type="line"/>
      <point x="324" y="95"/>
      <point x="253" y="53"/>
      <point x="192" y="53" type="curve" smooth="yes"/>
      <point x="97" y="53"/>
      <point x="83" y="146"/>
      <point x="97" y="216" type="curve"/>
      <point x="115" y="299"/>
      <point x="195" y="449"/>
      <point x="332" y="449" type="curve" smooth="yes"/>
      <point x="366" y="449"/>
      <point x="404" y="436"/>
      <point x="421" y="428" type="curve"/>
    </contour>
    <contour>
      <point x="502" y="666" type="line" smooth="yes"/>
      <point x="510" y="671"/>
      <point x="515" y="680"/>
      <point x="517" y="689" type="curve" smooth="yes"/>
      <point x="521" y="709"/>
      <point x="510" y="725"/>
      <point x="491" y="725" type="curve" smooth="yes"/>
      <point x="480" y="725"/>
      <point x="468" y="717"/>
      <point x="458" y="710" type="curve" smooth="yes"/>
      <point x="311" y="607" type="line" smooth="yes"/>
      <point x="305" y="603"/>
      <point x="302" y="596"/>
      <point x="301" y="590" type="curve" smooth="yes"/>
      <point x="298" y="575"/>
      <point x="307" y="563"/>
      <point x="321" y="563" type="curve" smooth="yes"/>
      <point x="327" y="563"/>
      <point x="336" y="567"/>
      <point x="344" y="572" type="curve" smooth="yes"/>
    </contour>
  </outline>
</glyph>
<glyph name="atilde" format="1">
  <advance width="505"/>
  <unicode hex="00E3"/>
  <outline>
    <contour>
      <point x="483" y="463" type="curve"/>
      <point x="389" y="20" type="line" smooth="yes"/>
      <point x="385" y="4"/>
      <point x="370" y="-10"/>
      <point x="354" y="-10" type="curve" smooth="yes"/>
      <point x="338.342" y="-10"/>
      <point x="332.192" y="0.187173"/>
      <point x="332.192" y="13.2856" type="curve" smooth="yes"/>
      <point x="332.192" y="16.0814"/>
      <point x="332.472" y="19.0097"/>
      <point x="333" y="22" type="curve" smooth="yes"/>
      <point x="338" y="45" type="line"/>
      <point x="297" y="23"/>
      <point x="237" y="-2"/>
      <point x="182" y="-2" type="curve" smooth="yes"/>
      <point x="91.2068" y="-2"/>
      <point x="33.6304" y="59.4863"/>
      <point x="33.6304" y="155.723" type="curve" smooth="yes"/>
      <point x="33.6304" y="173.961"/>
      <point x="35.6983" y="193.447"/>
      <point x="40" y="214" type="curve" smooth="yes"/>
      <point x="62" y="318"/>
      <point x="167" y="504"/>
      <point x="341" y="504" type="curve" smooth="yes"/>
      <point x="415" y="504"/>
      <point x="470" y="471"/>
    </contour>
    <contour>
      <point x="350" y="111" type="curve"/>
      <point x="421" y="428" type="line"/>
      <point x="404" y="436"/>
      <point x="366" y="449"/>
      <point x="332" y="449" type="curve" smooth="yes"/>
      <point x="195" y="449"/>
      <point x="115" y="299"/>
      <point x="97" y="216" type="curve"/>
      <point x="94.0774" y="201.387"/>
      <point x="92.3751" y="185.772"/>
      <point x="92.3751" y="170.21" type="curve" smooth="yes"/>
      <point x="92.3751" y="111.224"/>
      <point x="116.832" y="53"/>
      <point x="192" y="53" type="curve" smooth="yes"/>
      <point x="253" y="53"/>
      <point x="324" y="95"/>
    </contour>
    <contour>
      <point x="480" y="676" type="curve" smooth="yes"/>
      <point x="486" y="686"/>
      <point x="498" y="693"/>
      <point x="508" y="693" type="curve" smooth="yes"/>
      <point x="520.694" y="693"/>
      <point x="529.277" y="683.956"/>
      <point x="529.277" y="672.578" type="curve" smooth="yes"/>
      <point x="529.277" y="664.864"/>
      <point x="526.509" y="662.019"/>
      <point x="523" y="655" type="curve" smooth="yes"/>
      <point x="505" y="624"/>
      <point x="460" y="556"/>
      <point x="395" y="556" type="curve" smooth="yes"/>
      <point x="350" y="556"/>
      <point x="332" y="588"/>
      <point x="318" y="616" type="curve" smooth="yes"/>
      <point x="305" y="642"/>
      <point x="299" y="664"/>
      <point x="282" y="664" type="curve" smooth="yes"/>
      <point x="269" y="664"/>
      <point x="239" y="647"/>
      <point x="213" y="598" type="curve" smooth="yes"/>
      <point x="206" y="585"/>
      <point x="196" y="579"/>
      <point x="184" y="579" type="curve" smooth="yes"/>
      <point x="171.686" y="579"/>
      <point x="162.466" y="587.511"/>
      <point x="162.466" y="599.088" type="curve" smooth="yes"/>
      <point x="162.466" y="600.672"/>
      <point x="162.639" y="602.314"/>
      <point x="163" y="604" type="curve" smooth="yes"/>
      <point x="166" y="619"/>
      <point x="180" y="636"/>
      <point x="188" y="647" type="curve" smooth="yes"/>
      <point x="218" y="685"/>
      <point x="254" y="706"/>
      <point x="291" y="706" type="curve" smooth="yes"/>
      <point x="336" y="706"/>
      <point x="353" y="673"/>
      <point x="367" y="646" type="curve" smooth="yes"/>
      <point x="380" y="620"/>
      <point x="387" y="598"/>
      <point x="404" y="598" type="curve" smooth="yes"/>
      <point x="434" y="598"/>
      <point x="463" y="647"/>
    </contour>
  </outline>
</glyph>
<glyph name="adieresis" format="1">
  <advance width="505"/>
  <unicode hex="00E4"/>
  <outline>
    <contour>
      <point x="483" y="463" type="line"/>
      <point x="470" y="471"/>
      <point x="415" y="504"/>
      <point x="341" y="504" type="curve" smooth="yes"/>
      <point x="167" y="504"/>
      <point x="62" y="318"/>
      <point x="40" y="214" type="curve" smooth="yes"/>
      <point x="13" y="85"/>
      <point x="74" y="-2"/>
      <point x="182" y="-2" type="curve" smooth="yes"/>
      <point x="237" y="-2"/>
      <point x="297" y="23"/>
      <point x="338" y="45" type="curve"/>
      <point x="333" y="22" type="line" smooth="yes"/>
      <point x="330" y="5"/>
      <point x="335" y="-10"/>
      <point x="354" y="-10" type="curve" smooth="yes"/>
      <point x="370" y="-10"/>
      <point x="385" y="4"/>
      <point x="389" y="20" type="curve" smooth="yes"/>
    </contour>
    <contour>
      <point x="350" y="111" type="line"/>
      <point x="324" y="95"/>
      <point x="253" y="53"/>
      <point x="192" y="53" type="curve" smooth="yes"/>
      <point x="97" y="53"/>
      <point x="83" y="146"/>
      <point x="97" y="216" type="curve"/>
      <point x="115" y="299"/>
      <point x="195" y="449"/>
      <point x="332" y="449" type="curve" smooth="yes"/>
      <point x="366" y="449"/>
      <point x="404" y="436"/>
      <point x="421" y="428" type="curve"/>
    </contour>
    <contour>
      <point x="329" y="620" type="curve" smooth="yes"/>
      <point x="334" y="642"/>
      <point x="316" y="659"/>
      <point x="293" y="659" type="curve" smooth="yes"/>
      <point x="265" y="659"/>
      <point x="237" y="638"/>
      <point x="232" y="615" type="curve" smooth="yes"/>
      <point x="227" y="592"/>
      <point x="244" y="576"/>
      <point x="269" y="576" type="curve" smooth="yes"/>
      <point x="298" y="576"/>
      <point x="324" y="596"/>
    </contour>
    <contour>
      <point x="488" y="620" type="curve" smooth="yes"/>
      <point x="493" y="642"/>
      <point x="475" y="659"/>
      <point x="452" y="659" type="curve" smooth="yes"/>
      <point x="424" y="659"/>
      <point x="396" y="638"/>
      <point x="391" y="615" type="curve" smooth="yes"/>
      <point x="386" y="592"/>
      <point x="403" y="576"/>
      <point x="428" y="576" type="curve" smooth="yes"/>
      <point x="457" y="576"/>
      <point x="483" y="596"/>
    </contour>
  </outline>
</glyph>
